STARTFONT 2.1
FONT -FontForge-Pacifico-Book-R-Normal--28-280-72-72-P-165-ISO10646-1
SIZE 28 72 72
FONTBOUNDINGBOX 63 55 -17 -13
COMMENT "Generated by fontforge, http://fontforge.sourceforge.net"
COMMENT "Copyright 2018 The Pacifico Project Authors (https://github.com/googlefonts/Pacifico)"
STARTPROPERTIES 40
FOUNDRY "FontForge"
FAMILY_NAME "Pacifico"
WEIGHT_NAME "Book"
SLANT "R"
SETWIDTH_NAME "Normal"
ADD_STYLE_NAME ""
PIXEL_SIZE 28
POINT_SIZE 280
RESOLUTION_X 72
RESOLUTION_Y 72
SPACING "P"
AVERAGE_WIDTH 165
CHARSET_REGISTRY "ISO10646"
CHARSET_ENCODING "1"
FONTNAME_REGISTRY ""
CHARSET_COLLECTIONS "ISO8859-2 ISO8859-5 ISO8859-9 ISO8859-4 ISO10646-1"
FONT_NAME "Pacifico-Regular"
FACE_NAME "Pacifico Regular"
COPYRIGHT "Copyright 2018 The Pacifico Project Authors (https://github.com/googlefonts/Pacifico)"
FONT_VERSION "3.001"
FONT_ASCENT 22
FONT_DESCENT 6
UNDERLINE_POSITION -3
UNDERLINE_THICKNESS 2
X_HEIGHT 12
CAP_HEIGHT 23
DEFAULT_CHAR 1
RAW_ASCENT 800
RAW_DESCENT 200
NORM_SPACE 7
RELATIVE_WEIGHT 40
RELATIVE_SETWIDTH 50
SUPERSCRIPT_X 0
SUPERSCRIPT_Y 9
SUPERSCRIPT_SIZE 16
SUBSCRIPT_X 0
SUBSCRIPT_Y 2
SUBSCRIPT_SIZE 16
AVG_LOWERCASE_WIDTH 132
AVG_UPPERCASE_WIDTH 229
ENDPROPERTIES
CHARS 1514
STARTCHAR NULL.dup1
ENCODING 0
SWIDTH 0 0
DWIDTH 0 0
BBX 1 1 0 0
BITMAP
00
ENDCHAR
STARTCHAR nonmarkingreturn
ENCODING 13
SWIDTH 265 0
DWIDTH 7 0
BBX 1 1 0 0
BITMAP
00
ENDCHAR
STARTCHAR space
ENCODING 32
SWIDTH 265 0
DWIDTH 7 0
BBX 1 1 0 0
BITMAP
00
ENDCHAR
STARTCHAR exclam
ENCODING 33
SWIDTH 340 0
DWIDTH 10 0
BBX 9 24 1 0
BITMAP
0380
0780
0780
0780
0F00
0F00
0F00
0F00
0E00
1E00
1E00
1E00
1C00
1C00
3C00
3800
3800
1000
0000
7000
F800
F800
F800
7000
ENDCHAR
STARTCHAR quotedbl
ENCODING 34
SWIDTH 510 0
DWIDTH 14 0
BBX 11 10 3 14
BITMAP
38E0
79E0
79E0
79E0
79E0
F1E0
F1C0
F3C0
F3C0
E180
ENDCHAR
STARTCHAR numbersign
ENCODING 35
SWIDTH 700 0
DWIDTH 20 0
BBX 18 17 1 0
BITMAP
010200
038700
078F00
078E00
7FFFC0
7FFFC0
7FFFC0
0E1C00
0E3C00
1E3C00
FFFF80
FFFF80
FFFF80
3C7000
387000
387000
306000
ENDCHAR
STARTCHAR dollar
ENCODING 36
SWIDTH 524 0
DWIDTH 15 0
BBX 13 24 1 -4
BITMAP
0080
0180
0180
0180
0FC0
3FF0
3FF0
7B78
7330
7B20
7F00
3F80
1FC0
07E0
46F0
E670
E670
F6F0
7FE0
3FC0
0E00
0C00
0C00
0C00
ENDCHAR
STARTCHAR percent
ENCODING 37
SWIDTH 896 0
DWIDTH 25 0
BBX 24 21 1 0
BITMAP
1F00C0
3F81E0
7F83C0
73CFC0
73FF80
E3FF80
E1FF00
738F00
7F9E00
7F1C00
1E3C78
0078FE
0079FE
00F3CF
00E387
01E387
03C38F
03C38E
0781FE
0701FC
0300F8
ENDCHAR
STARTCHAR ampersand
ENCODING 38
SWIDTH 851 0
DWIDTH 24 0
BBX 22 27 1 -2
BITMAP
00F800
03FE00
07FE00
078F00
0F0F00
0F0700
0F0F00
0F0F00
0F1E00
073E00
07FC00
07F800
07E000
0FE000
1FF01C
3CF03C
78F87C
787C78
F03EF0
F01FE0
F00FC0
7C1FC0
7FFFC0
3FFFE0
0FE1F0
0000F0
000070
ENDCHAR
STARTCHAR quotesingle
ENCODING 39
SWIDTH 290 0
DWIDTH 8 0
BBX 5 10 3 14
BITMAP
38
78
78
78
78
F0
F0
F0
F0
E0
ENDCHAR
STARTCHAR parenleft
ENCODING 40
SWIDTH 613 0
DWIDTH 17 0
BBX 18 30 3 -4
BITMAP
007E00
01FF80
03FFC0
07C380
0F8080
0F0000
1E0000
1E0000
3C0000
3C0000
780000
780000
780000
700000
F00000
F00000
F00000
F00000
F00000
E00000
E00000
E00000
E00000
E00000
F01000
F03800
F8F800
7FF000
3FE000
1F8000
ENDCHAR
STARTCHAR parenright
ENCODING 41
SWIDTH 613 0
DWIDTH 17 0
BBX 18 30 -2 -4
BITMAP
007C00
01FF00
03FF00
078780
070780
0603C0
0003C0
0003C0
0003C0
0003C0
0003C0
0003C0
0003C0
000380
000780
000780
000780
000780
000F00
000F00
000F00
001E00
001E00
003C00
007C00
007800
E1F000
FFE000
FFC000
3F0000
ENDCHAR
STARTCHAR asterisk
ENCODING 42
SWIDTH 520 0
DWIDTH 15 0
BBX 12 12 3 14
BITMAP
0300
0700
7700
7F60
3FF0
0FE0
7F00
FFC0
6FE0
0EE0
0E00
0C00
ENDCHAR
STARTCHAR plus
ENCODING 43
SWIDTH 700 0
DWIDTH 20 0
BBX 16 17 2 0
BITMAP
0080
01C0
01C0
01C0
01C0
01C0
01C0
7FFE
FFFF
7FFE
0380
0380
0380
0380
0380
0380
0300
ENDCHAR
STARTCHAR comma
ENCODING 44
SWIDTH 257 0
DWIDTH 7 0
BBX 6 10 0 -4
BITMAP
10
38
7C
78
78
78
70
70
E0
60
ENDCHAR
STARTCHAR hyphen
ENCODING 45
SWIDTH 403 0
DWIDTH 11 0
BBX 8 4 2 7
BITMAP
07
FF
FF
FE
ENDCHAR
STARTCHAR period
ENCODING 46
SWIDTH 257 0
DWIDTH 7 0
BBX 5 5 1 0
BITMAP
70
F8
F8
F8
70
ENDCHAR
STARTCHAR slash
ENCODING 47
SWIDTH 509 0
DWIDTH 14 0
BBX 16 26 0 0
BITMAP
0006
000F
000E
001E
001C
003C
0038
0078
00F0
00F0
01E0
01E0
03C0
03C0
0780
0700
0F00
0E00
1E00
1C00
3C00
7800
7800
F000
F000
6000
ENDCHAR
STARTCHAR zero
ENCODING 48
SWIDTH 543 0
DWIDTH 15 0
BBX 13 16 1 0
BITMAP
07C0
1FE0
3FF0
3C78
7878
7038
7038
F038
F038
F078
F078
7070
78F0
7FE0
3FC0
0F80
ENDCHAR
STARTCHAR one
ENCODING 49
SWIDTH 376 0
DWIDTH 11 0
BBX 7 17 2 0
BITMAP
04
3E
FE
FE
FE
1E
1E
1C
1C
3C
3C
3C
3C
3C
3C
38
38
ENDCHAR
STARTCHAR two
ENCODING 50
SWIDTH 560 0
DWIDTH 16 0
BBX 14 17 1 0
BITMAP
07C0
1FF0
3FF8
3C78
7878
7878
7078
0078
00F0
01E0
03E0
07C0
1F00
7E00
FFF8
FFFC
7FF8
ENDCHAR
STARTCHAR three
ENCODING 51
SWIDTH 520 0
DWIDTH 15 0
BBX 13 17 1 0
BITMAP
0FC0
3FF0
7FF0
78F8
7078
7070
00F0
07E0
0F80
0FE0
01F0
C0F0
E0F0
F0F0
FFF0
7FE0
1F80
ENDCHAR
STARTCHAR four
ENCODING 52
SWIDTH 577 0
DWIDTH 16 0
BBX 14 17 1 0
BITMAP
0100
0700
0F00
0E00
1E38
3C78
3C78
3870
7870
70F0
FFFC
FFFC
7FFC
00F0
00E0
00E0
00E0
ENDCHAR
STARTCHAR five
ENCODING 53
SWIDTH 518 0
DWIDTH 15 0
BBX 13 16 1 0
BITMAP
3FF8
7FF8
7FF8
3C00
3800
3800
3F80
7FE0
3FF0
01F0
4070
E070
F0F0
FFF0
7FE0
1F80
ENDCHAR
STARTCHAR six
ENCODING 54
SWIDTH 541 0
DWIDTH 15 0
BBX 13 17 1 0
BITMAP
03E0
0FF0
1FF8
3C78
7838
7838
7000
77C0
FFE0
FFF0
F8F0
F078
7070
78F0
7FF0
3FE0
0F80
ENDCHAR
STARTCHAR seven
ENCODING 55
SWIDTH 497 0
DWIDTH 14 0
BBX 14 16 1 0
BITMAP
7FF8
FFFC
FFF8
00F0
01E0
03C0
0780
0F00
0F00
1E00
1E00
1E00
3C00
3C00
1C00
1C00
ENDCHAR
STARTCHAR eight
ENCODING 56
SWIDTH 512 0
DWIDTH 14 0
BBX 13 17 1 0
BITMAP
0FC0
1FF0
3FF0
7878
7878
7870
7CF0
3FE0
1FC0
3FE0
79F0
F070
E070
F0F0
FFF0
7FE0
1F80
ENDCHAR
STARTCHAR nine
ENCODING 57
SWIDTH 541 0
DWIDTH 15 0
BBX 13 17 1 0
BITMAP
0FC0
1FE0
3FF0
7CF8
7878
7878
7878
78F8
3FF8
3FF8
0F78
0070
E0F0
F1F0
FFE0
7FC0
1F00
ENDCHAR
STARTCHAR colon
ENCODING 58
SWIDTH 257 0
DWIDTH 7 0
BBX 6 13 1 0
BITMAP
38
7C
7C
7C
38
00
00
00
70
F8
F8
F8
70
ENDCHAR
STARTCHAR semicolon
ENCODING 59
SWIDTH 257 0
DWIDTH 7 0
BBX 7 17 0 -4
BITMAP
1C
3E
3E
3E
1C
00
00
10
38
7C
78
78
78
70
70
E0
60
ENDCHAR
STARTCHAR less
ENCODING 60
SWIDTH 700 0
DWIDTH 20 0
BBX 16 13 2 2
BITMAP
0002
000F
007F
03FE
1FF0
7F80
FC00
FE00
7FC0
0FF0
03FE
007E
000E
ENDCHAR
STARTCHAR equal
ENCODING 61
SWIDTH 700 0
DWIDTH 20 0
BBX 16 9 2 4
BITMAP
7FFF
7FFF
7FFF
0000
0000
0000
FFFE
FFFE
FFFE
ENDCHAR
STARTCHAR greater
ENCODING 62
SWIDTH 700 0
DWIDTH 20 0
BBX 16 13 2 2
BITMAP
2000
7C00
7F00
3FE0
07FC
01FE
003F
007E
03FE
1FF0
FF80
FC00
E000
ENDCHAR
STARTCHAR question
ENCODING 63
SWIDTH 476 0
DWIDTH 13 0
BBX 13 24 2 0
BITMAP
0FC0
3FE0
7FF0
78F0
70F8
70F8
70F0
00F0
01E0
03E0
07C0
0F00
1E00
1C00
1C00
3800
3800
1000
0000
7000
F800
F800
F800
7000
ENDCHAR
STARTCHAR at
ENCODING 64
SWIDTH 1015 0
DWIDTH 28 0
BBX 27 29 1 -8
BITMAP
000FF000
007FFC00
01FFFE00
03F01F00
07C00780
0F0003C0
1E0001C0
3C0001C0
3C0701C0
381FE1E0
783FE1E0
787DE1C0
7079C1C0
F0F1C1C0
F0E1C1C0
F0E3C3C0
F0E3C780
F0E3C780
F0FFFF00
F0FEFE00
70387800
78000000
78000000
3C000200
1E000F00
1FC07F00
07FFFE00
03FFF800
007FC000
ENDCHAR
STARTCHAR A
ENCODING 65
SWIDTH 786 0
DWIDTH 22 0
BBX 24 24 2 0
BITMAP
001FF0
00FFFC
03FFF8
07E030
0F8000
1F01C0
3E03E0
3C03C0
7803C0
7803C0
F803C0
F00780
F00780
F00780
F00780
F00F80
F00F80
F01F80
F01F83
F83F87
7C778E
7FE7FC
3FE3F8
0F81F0
ENDCHAR
STARTCHAR B
ENCODING 66
SWIDTH 827 0
DWIDTH 23 0
BBX 23 25 1 -1
BITMAP
00FFC0
0FFFF0
3FFFFC
FF00FE
F8003E
E0001E
07801E
07801E
07801E
0F003C
0F01F8
0F1FF0
0F1FC0
1E1FC0
1E03E0
1E00F0
1E00F0
1E00F0
1E00F0
1C01F0
3C07E0
3FFFC0
3FFF00
3FF800
3C0000
ENDCHAR
STARTCHAR C
ENCODING 67
SWIDTH 686 0
DWIDTH 19 0
BBX 21 24 2 0
BITMAP
00FC00
03FF00
07FF80
0F8780
1E03C0
3C03C0
7C03C0
780380
780380
F00100
F00000
F00000
F00000
F00000
F00000
F00000
F00000
F80000
780000
7C0038
3F01F8
1FFFF0
0FFFE0
01FE00
ENDCHAR
STARTCHAR D
ENCODING 68
SWIDTH 836 0
DWIDTH 23 0
BBX 22 24 1 0
BITMAP
01FE00
1FFF80
7FFFE0
FE03F0
F001F0
4000F8
078078
07807C
0F003C
0F003C
0F003C
0F003C
1E003C
1E007C
1E0078
1E0078
1E00F8
1E00F0
3C01F0
3C03E0
3C0FC0
3FFF80
3FFE00
1FF000
ENDCHAR
STARTCHAR E
ENCODING 69
SWIDTH 686 0
DWIDTH 19 0
BBX 22 24 1 0
BITMAP
00FE00
03FF80
07FFC0
0F83E0
1F01E0
1E01E0
1E01E0
1E01E0
1E01C0
1F0000
0FF000
07F000
1FF000
3E0000
780000
F80000
F00000
F00000
F00000
F8001C
7E01FC
7FFFF8
1FFFF0
03FF00
ENDCHAR
STARTCHAR F
ENCODING 70
SWIDTH 712 0
DWIDTH 20 0
BBX 26 24 0 0
BITMAP
003FFF80
03FFFFC0
0FFFFFC0
1F9E0000
1E1E0000
1C1E0000
3C1E0000
3C1E0000
1E1E0000
1C1E0000
001E0000
00FFF800
01FFF800
00FFF800
003C0000
003C0000
003C0000
003C0000
C0780000
E0780000
F0F00000
7FF00000
3FE00000
1F800000
ENDCHAR
STARTCHAR G
ENCODING 71
SWIDTH 811 0
DWIDTH 23 0
BBX 24 37 2 -13
BITMAP
00FE00
03FF80
07FF80
0F83C0
1E03C0
3C01C0
7C01C0
7803C0
7803C0
F00180
F00000
F00000
F00000
F00000
F01FE0
F01FE0
F01FE0
F801E0
7801E2
7C01E7
3F03DF
1FFFFC
0FFFF8
01FDE0
0003C0
000FC0
001F80
003B80
007380
007780
00E700
00C700
01CE00
01CE00
01FC00
00FC00
007000
ENDCHAR
STARTCHAR H
ENCODING 72
SWIDTH 873 0
DWIDTH 24 0
BBX 28 25 0 0
BITMAP
00000380
07800FC0
1FC00FC0
7FE01EE0
71E03CE0
E1E038E0
C1E038C0
81E078C0
01E071C0
01E07180
01E0F780
01C0FF00
03C1FC00
1FFFF800
1FFFF000
1FF0E000
03C0E000
0780F000
0780F000
0780F030
0780F070
0F00F8F0
0F007FE0
0F003FC0
0E001F00
ENDCHAR
STARTCHAR I
ENCODING 73
SWIDTH 495 0
DWIDTH 14 0
BBX 16 24 0 0
BITMAP
1FFE
1FFF
1FFE
01E0
01E0
01E0
03C0
03C0
03C0
03C0
03C0
03C0
0380
0780
0780
0780
0780
0780
0780
0F00
0F00
FFF0
FFF0
FFF0
ENDCHAR
STARTCHAR J
ENCODING 74
SWIDTH 743 0
DWIDTH 21 0
BBX 19 26 2 -2
BITMAP
03FF80
1FFFE0
3FFFE0
7C03C0
F003C0
E003C0
E003C0
F00380
F00780
700780
000780
001F80
007F80
00FF00
03EF00
078F00
0F0F00
1E0E00
1C1E00
3C1C00
3C3C00
3C3C00
3C7800
1FF000
1FE000
078000
ENDCHAR
STARTCHAR K
ENCODING 75
SWIDTH 937 0
DWIDTH 26 0
BBX 29 24 1 0
BITMAP
03FC01C0
0FFE03C0
3FFF03C0
3C3E0780
783C0780
703C0780
703C0F00
703C1F00
783C1E00
783C3C00
30787800
0079F000
01FFE000
01FF8000
01FFC000
007BE000
0071F000
00F0F000
C0F0F818
E0F07838
F1E07C78
FFE03FF0
7FC01FE0
1F000F80
ENDCHAR
STARTCHAR L
ENCODING 76
SWIDTH 673 0
DWIDTH 19 0
BBX 23 24 -1 0
BITMAP
000FC0
003FF0
007FF8
00F878
01E038
03E03C
03C03C
03C038
03C038
03C000
078000
078000
078000
078000
078000
078000
078000
078002
3F8006
7FFC0E
FFFFFE
FEFFFC
FE1FF8
7C07E0
ENDCHAR
STARTCHAR M
ENCODING 77
SWIDTH 1232 0
DWIDTH 35 0
BBX 38 24 0 0
BITMAP
0781F03E00
1FC3F87F00
3FC7F8FF80
79CE39CF80
E1DC3F8780
C1D83F0780
C1F03B0780
01F03E0780
03F03E0F00
03E03C0F00
03E07C0F00
03C07C0F00
03C0780F00
03C0781E00
03C0781E00
07C0781E00
0780F81E00
0780F01E00
0780F01E0C
0780F01E1C
0780F01E3C
0780F01FF8
0700F00FF0
0700E007C0
ENDCHAR
STARTCHAR N
ENCODING 78
SWIDTH 884 0
DWIDTH 25 0
BBX 28 24 0 0
BITMAP
0780F800
1FC3FC00
3FC7FE00
79CF1E00
E1CC1E00
C1D81E00
C1D81E00
03F01E00
03F01E00
03E03E00
03E03C00
03E03C00
03C03C00
03C03C00
07C07800
07C07800
07807800
07807800
07807810
07807830
07807CF0
07807FE0
07003FC0
07001F00
ENDCHAR
STARTCHAR O
ENCODING 79
SWIDTH 816 0
DWIDTH 23 0
BBX 20 24 2 0
BITMAP
00FE00
03FF80
07FFC0
0F87E0
1E01E0
3C01F0
7C00F0
7800F0
7800F0
F000F0
F000F0
F000F0
F000F0
F000F0
F000F0
F001E0
F001E0
F003E0
F803C0
7C0780
3E1F80
3FFF00
0FFC00
07F000
ENDCHAR
STARTCHAR P
ENCODING 80
SWIDTH 805 0
DWIDTH 23 0
BBX 22 26 1 -2
BITMAP
003F80
00FFE0
03FFF0
07C0F8
0F007C
1E003C
1C383C
3C783C
38783C
78783C
707878
70F0F8
70F1F0
F3FFE0
F7FFC0
E3FE00
E0F000
E1E000
E1E000
F1E000
71E000
71E000
7BC000
3FC000
1FC000
0F8000
ENDCHAR
STARTCHAR Q
ENCODING 81
SWIDTH 816 0
DWIDTH 23 0
BBX 23 32 2 -8
BITMAP
00FE00
03FF80
07FFC0
1F87E0
1E01E0
3C01F0
7C00F0
7800F0
7800F0
F000F0
F000F0
F000F0
F000F0
F000F0
F000F0
F001E0
F001E0
F803C0
7807C0
7E0F80
3FFF00
1FFE00
07F800
00F800
007C00
007C00
003E06
003E0E
001F1C
001FFC
000FF8
0003E0
ENDCHAR
STARTCHAR R
ENCODING 82
SWIDTH 880 0
DWIDTH 25 0
BBX 26 24 2 0
BITMAP
007F0000
03FFC000
07FFE000
0F83F000
1E00F000
3C60F800
78F0F800
70F0F800
70F0F000
E1E0F000
E1E1E000
E1E7C000
E7FF8000
E7FE0000
E7FF0000
E3CF8000
E3C78000
E3C7C000
E3C3C0C0
E3C3E0C0
77C1F3C0
7F81FF80
3F80FF00
0F007C00
ENDCHAR
STARTCHAR S
ENCODING 83
SWIDTH 693 0
DWIDTH 19 0
BBX 18 24 1 0
BITMAP
01FC00
07FF00
0FFF80
1F07C0
3C01C0
3C01C0
3C01C0
3C01C0
3E01C0
3F0000
1FC000
0FF800
03FE00
00FF00
003F80
600F80
F00780
F00780
F00780
F00780
F81F00
7FFF00
3FFC00
0FF000
ENDCHAR
STARTCHAR T
ENCODING 84
SWIDTH 697 0
DWIDTH 20 0
BBX 24 24 1 0
BITMAP
01FFFE
0FFFFF
3FFFFF
7C3C00
F03C00
E03C00
E03C00
F03C00
F07800
607800
007800
007800
007800
007800
00F000
00F000
00F000
00F000
00F000
00F000
00F000
01F000
01E000
00E000
ENDCHAR
STARTCHAR U
ENCODING 85
SWIDTH 890 0
DWIDTH 25 0
BBX 29 24 0 0
BITMAP
07800E00
1FC00E00
3FE01E00
79E01E00
E1E01E00
E1E01E00
C1E01E00
01E01E00
03E03E00
03C03C00
03C03C00
03C03C00
03C07C00
07C07C00
07807C00
0780FC00
0780F800
0781B800
0783F810
07837838
078E7C70
07FE3FE0
03FC3FC0
01F01F80
ENDCHAR
STARTCHAR V
ENCODING 86
SWIDTH 763 0
DWIDTH 21 0
BBX 22 24 3 0
BITMAP
380780
780FC0
781FE0
781DE0
7838E0
7838E0
7838E0
7838E0
F039E0
F03DE0
F01FC0
F01FC0
F00FFC
F007FC
7007FC
780F00
780F00
781E00
783C00
7C7C00
3FF800
3FF000
1FC000
0F8000
ENDCHAR
STARTCHAR W
ENCODING 87
SWIDTH 1217 0
DWIDTH 34 0
BBX 35 24 3 0
BITMAP
3801C03C00
7803C0FE00
7803C0FF00
7803C1CF00
7803C1CF00
7803C1CF00
7807C1CF00
7807C1CF00
F007C1CE00
F007C1CE00
F00F80FE00
F00F80FE00
F00F807FE0
F01F803FE0
F01FC03FE0
703FC07800
783BC0F000
787BC0F000
7871C1E000
7CF1E3C000
3FE1FF8000
3FE0FF0000
1F80FE0000
0F007C0000
ENDCHAR
STARTCHAR X
ENCODING 88
SWIDTH 712 0
DWIDTH 20 0
BBX 24 24 0 0
BITMAP
0F8038
3FC07C
7FE0F8
F1E1F0
E1F1E0
40F3C0
00F780
007F80
007F00
007E00
007C00
007C00
00FC00
01FC00
03FC00
07DE00
079E00
0F1E00
1F0F02
3E0F07
7C0F8E
F807FC
F007F8
E001F0
ENDCHAR
STARTCHAR Y
ENCODING 89
SWIDTH 851 0
DWIDTH 24 0
BBX 27 32 0 -8
BITMAP
07800E00
1FC00E00
3FE01E00
79E01E00
E1E01E00
C1E01E00
C1E01E00
01E03E00
03E03E00
03C03C00
03C03C00
03C07C00
03C07C00
0780FC00
0781FC00
0781B800
03C7B800
03FF39E0
01FE7FE0
00F8FFC0
0003FC00
000FF800
003C7000
00787000
00E0F000
01E0F000
01C0E000
01C1E000
01E3C000
01FF8000
00FF0000
007C0000
ENDCHAR
STARTCHAR Z
ENCODING 90
SWIDTH 721 0
DWIDTH 20 0
BBX 24 24 0 0
BITMAP
01FFC0
0FFFF8
1FFFFC
3E00FC
3C01F0
3801E0
3803E0
3803C0
3C0780
180F80
000F00
001E00
003E00
003C00
007800
00F800
01F000
01E002
3FE007
7FFC0F
7FFFFE
FF7FFC
7E1FF8
3C03F0
ENDCHAR
STARTCHAR bracketleft
ENCODING 91
SWIDTH 405 0
DWIDTH 11 0
BBX 12 28 2 -2
BITMAP
0FF0
1FF0
1FF0
1E00
1E00
1C00
3C00
3C00
3C00
3C00
3C00
3C00
3800
7800
7800
7800
7800
7800
7800
7800
7000
F000
F000
F000
F000
FF80
FF80
FF00
ENDCHAR
STARTCHAR backslash
ENCODING 92
SWIDTH 509 0
DWIDTH 14 0
BBX 10 26 3 0
BITMAP
6000
E000
F000
F000
7000
7800
7800
7800
3800
3C00
3C00
1C00
1E00
1E00
1E00
0F00
0F00
0F00
0700
0780
0780
0780
03C0
03C0
03C0
0180
ENDCHAR
STARTCHAR bracketright
ENCODING 93
SWIDTH 405 0
DWIDTH 11 0
BBX 12 28 -1 -2
BITMAP
1FE0
1FF0
1FF0
00F0
00E0
01E0
01E0
01E0
01E0
01E0
01E0
01C0
01C0
03C0
03C0
03C0
03C0
03C0
03C0
0380
0780
0780
0780
0780
0780
FF80
FF00
FF00
ENDCHAR
STARTCHAR asciicircum
ENCODING 94
SWIDTH 700 0
DWIDTH 20 0
BBX 14 15 2 1
BITMAP
0080
01C0
01E0
03E0
03E0
0770
0F70
0E70
1E38
1C38
3838
381C
701C
F01C
600C
ENDCHAR
STARTCHAR underscore
ENCODING 95
SWIDTH 354 0
DWIDTH 10 0
BBX 10 3 -1 -3
BITMAP
7FC0
FFC0
7FC0
ENDCHAR
STARTCHAR grave
ENCODING 96
SWIDTH 600 0
DWIDTH 17 0
BBX 6 9 3 15
BITMAP
20
70
F0
78
78
38
1C
0C
04
ENDCHAR
STARTCHAR a
ENCODING 97
SWIDTH 470 0
DWIDTH 13 0
BBX 16 13 1 0
BITMAP
0700
1FE0
3FE0
3CE0
79E0
F1E0
F1C0
F1C3
F3C7
F3CE
FFFE
7EFC
3C70
ENDCHAR
STARTCHAR b
ENCODING 98
SWIDTH 473 0
DWIDTH 13 0
BBX 15 26 2 0
BITMAP
0780
0F80
1FC0
1DC0
39C0
39C0
79C0
7180
7380
7380
F300
F700
E600
EE00
FF80
FFC0
F3C0
E3E2
E3FE
E1FE
E1FC
E1C0
F3C0
7F80
7F80
1E00
ENDCHAR
STARTCHAR c
ENCODING 99
SWIDTH 368 0
DWIDTH 10 0
BBX 13 13 1 0
BITMAP
0F00
3F80
7F80
7980
F380
F380
E000
E018
F038
F0F8
7FF0
7FC0
1F00
ENDCHAR
STARTCHAR d
ENCODING 100
SWIDTH 515 0
DWIDTH 14 0
BBX 17 26 1 0
BITMAP
000E00
001E00
003F00
007700
007300
007300
00E700
00E700
00E600
00E600
00E600
01EE00
01EC00
07FC00
1FF800
3FD800
7DF000
79F000
F1E000
F1E000
F1C180
E1E380
F3E780
FFFF00
7E7E00
3C3800
ENDCHAR
STARTCHAR e
ENCODING 101
SWIDTH 393 0
DWIDTH 11 0
BBX 14 13 1 0
BITMAP
0F00
3F80
7FC0
79C0
F1C0
E380
E780
FE0C
F83C
F078
7FF0
3FE0
1F80
ENDCHAR
STARTCHAR f
ENCODING 102
SWIDTH 371 0
DWIDTH 10 0
BBX 12 35 1 -9
BITMAP
00E0
03F0
07F0
0770
0F70
0E70
1E70
1C70
1C60
3CE0
3CC0
39C0
3980
7B80
7F00
7E00
7C00
7800
7000
77F0
77F0
FFE0
F600
F600
F600
F600
F700
7300
7300
7300
7300
7700
7E00
3E00
1C00
ENDCHAR
STARTCHAR g
ENCODING 103
SWIDTH 479 0
DWIDTH 13 0
BBX 16 26 0 -13
BITMAP
0380
0FF0
1FF0
1E70
3CF0
78F0
78E0
78E3
79E7
79FF
7FFE
3EF8
1DF0
03C0
07C0
0FC0
1DC0
3B80
7380
7380
E700
E700
EF00
FE00
FC00
7800
ENDCHAR
STARTCHAR h
ENCODING 104
SWIDTH 502 0
DWIDTH 14 0
BBX 17 26 1 0
BITMAP
03C000
07C000
0FE000
0EE000
1CE000
1CE000
1CE000
38C000
39C000
398000
7B8000
7B0000
770000
7EF000
7DF000
7BF000
77F000
76F000
7EF000
7CE000
7CE180
78E380
F8E700
F8FE00
70FC00
607800
ENDCHAR
STARTCHAR i
ENCODING 105
SWIDTH 246 0
DWIDTH 7 0
BBX 10 19 1 0
BITMAP
1C00
3E00
3E00
3C00
0000
0000
3800
7800
7800
7800
7000
7000
F000
F0C0
F180
F380
7F00
7E00
3C00
ENDCHAR
STARTCHAR j
ENCODING 106
SWIDTH 254 0
DWIDTH 7 0
BBX 16 32 -6 -13
BITMAP
0070
00F8
00F8
0070
0000
0000
0070
00F0
00F0
00F0
00E0
00E0
00E0
00E3
00E7
01FF
01FC
01F8
01E0
03C0
07C0
0FC0
1F80
3B80
7380
6780
E700
C700
CE00
FE00
FC00
7800
ENDCHAR
STARTCHAR k
ENCODING 107
SWIDTH 525 0
DWIDTH 15 0
BBX 16 26 2 0
BITMAP
0780
0FC0
1FC0
1DC0
39C0
39C0
39C0
7180
7380
7300
F700
F600
EC00
FDE0
FBF0
F7F0
EE70
EC70
F8F0
F9E1
FBC3
F787
F7CF
F3FE
E3FC
E0F8
ENDCHAR
STARTCHAR l
ENCODING 108
SWIDTH 326 0
DWIDTH 9 0
BBX 11 26 2 0
BITMAP
0780
0F80
1FC0
1DC0
39C0
39C0
79C0
71C0
7180
7180
F380
F300
E700
E700
E600
EE00
FC00
F800
F800
F000
E060
E0E0
F1C0
7F80
7F00
3E00
ENDCHAR
STARTCHAR m
ENCODING 109
SWIDTH 744 0
DWIDTH 21 0
BBX 23 13 1 0
BITMAP
38E1C0
79F3E0
7BF7E0
77EFE0
76EDC0
7CF9C0
FCF9C0
F8F1C2
F9F3C6
F9F3CE
71E3FC
70E1F8
70E1F0
ENDCHAR
STARTCHAR n
ENCODING 110
SWIDTH 496 0
DWIDTH 14 0
BBX 17 13 1 0
BITMAP
38F000
79F000
7BF000
77F000
76F000
7EE000
FCE000
F8E180
F9E300
F9E700
71FE00
70FC00
70F800
ENDCHAR
STARTCHAR o
ENCODING 111
SWIDTH 451 0
DWIDTH 13 0
BBX 15 13 1 0
BITMAP
0F00
3FC0
7FC0
7BE0
F3E2
F3FE
E1FE
E0FC
F0E0
F1C0
7FC0
7F80
1F00
ENDCHAR
STARTCHAR p
ENCODING 112
SWIDTH 481 0
DWIDTH 13 0
BBX 20 26 -3 -13
BITMAP
073C00
077E00
07FE00
07CE00
078E00
070E00
070E00
071E30
0F1C70
0F3CF0
1FFFE0
1FFFC0
37CF00
370000
770000
670000
6F0000
EF0000
CE0000
CE0000
CE0000
CE0000
DC0000
FC0000
F80000
700000
ENDCHAR
STARTCHAR q
ENCODING 113
SWIDTH 500 0
DWIDTH 14 0
BBX 17 25 1 -11
BITMAP
007000
07F000
1FF000
3FF000
3CE000
78E000
F1E000
F1E000
F1C000
E3DF80
F3DF80
FFDF00
7F9800
3B9800
039800
039800
079800
079800
079800
079800
07B800
03B000
03F000
03E000
01C000
ENDCHAR
STARTCHAR r
ENCODING 114
SWIDTH 455 0
DWIDTH 13 0
BBX 16 13 1 0
BITMAP
38E0
79F0
7BF0
77F0
76E2
7EF7
FCFF
F8FE
F878
F800
7000
7000
7000
ENDCHAR
STARTCHAR s
ENCODING 115
SWIDTH 427 0
DWIDTH 12 0
BBX 16 14 0 -1
BITMAP
0380
0780
0700
0F00
0F00
1F80
1FC0
3BC2
71E7
E1EE
EFFE
CFFC
0FF0
0780
ENDCHAR
STARTCHAR t
ENCODING 116
SWIDTH 393 0
DWIDTH 11 0
BBX 15 25 0 0
BITMAP
00E0
01F0
03F0
0770
0730
0E70
0E70
0E70
0E60
1EE0
1DC0
1F80
FFF8
FFF0
FFF0
3C00
3C00
3C00
3C00
1C06
1C0E
1E1C
1FF8
0FF0
03E0
ENDCHAR
STARTCHAR u
ENCODING 117
SWIDTH 462 0
DWIDTH 13 0
BBX 16 13 1 0
BITMAP
3860
38E0
78E0
71E0
71E0
71C0
F3C0
F3C3
F7C7
FFCE
7DFC
7DF8
38F0
ENDCHAR
STARTCHAR v
ENCODING 118
SWIDTH 449 0
DWIDTH 13 0
BBX 15 13 1 0
BITMAP
70E0
F1E0
F3E0
F3E0
F3E2
F1FE
73FE
73FC
7700
7F00
7E00
7C00
3800
ENDCHAR
STARTCHAR w
ENCODING 119
SWIDTH 700 0
DWIDTH 20 0
BBX 22 13 1 0
BITMAP
70E1C0
F0E3C0
F1E7C0
F1E7C0
F3E7C4
F3E3FC
73E7FC
77E7F8
76EE00
7EFE00
7EFC00
7CF800
387000
ENDCHAR
STARTCHAR x
ENCODING 120
SWIDTH 529 0
DWIDTH 15 0
BBX 18 13 0 0
BITMAP
0E1E00
1FBE00
3FFE00
3BEE00
19E600
01C000
01C000
73C040
73C0C0
F7E3C0
7FFF80
7EFF00
3C7C00
ENDCHAR
STARTCHAR y
ENCODING 121
SWIDTH 479 0
DWIDTH 13 0
BBX 16 26 0 -13
BITMAP
1C30
1C70
3C70
38F0
38F0
38F0
79E0
79E3
7BE7
7FFF
3EFC
3EF8
1DF0
03C0
07C0
0FC0
1DC0
3B80
7380
6380
E700
E700
EF00
FE00
FC00
7800
ENDCHAR
STARTCHAR z
ENCODING 122
SWIDTH 445 0
DWIDTH 12 0
BBX 14 13 2 0
BITMAP
FFE0
FFE0
FFE0
0FC0
1F00
7C00
F800
F00C
F01C
F07C
FFF8
7FE0
1F80
ENDCHAR
STARTCHAR braceleft
ENCODING 123
SWIDTH 490 0
DWIDTH 14 0
BBX 15 28 1 -2
BITMAP
007E
00FE
01FE
03E0
03C0
03C0
03C0
03C0
0380
0780
0780
0F80
7F00
FE00
7F00
0F00
0F00
0F00
0F00
0F00
0F00
0F00
0F00
0F00
0F00
0FF0
07F0
03F0
ENDCHAR
STARTCHAR bar
ENCODING 124
SWIDTH 326 0
DWIDTH 9 0
BBX 8 34 1 -8
BITMAP
07
0F
0F
0F
0E
0E
0E
0E
1E
1E
1E
1E
1C
1C
3C
3C
3C
3C
38
38
38
78
78
78
78
70
70
70
F0
F0
F0
F0
E0
E0
ENDCHAR
STARTCHAR braceright
ENCODING 125
SWIDTH 490 0
DWIDTH 14 0
BBX 15 28 -1 -2
BITMAP
1F80
1FC0
1FE0
01E0
01E0
01E0
01E0
01E0
01E0
01E0
01E0
01E0
01FC
007E
01FC
03E0
03C0
03C0
0380
0380
0780
0780
0780
0780
0F80
FF00
FE00
FC00
ENDCHAR
STARTCHAR asciitilde
ENCODING 126
SWIDTH 700 0
DWIDTH 20 0
BBX 16 7 2 5
BITMAP
0800
3E07
7F8F
7FEE
F3FE
E0FC
4038
ENDCHAR
STARTCHAR uni00A0
ENCODING 160
SWIDTH 265 0
DWIDTH 7 0
BBX 1 1 0 0
BITMAP
00
ENDCHAR
STARTCHAR exclamdown
ENCODING 161
SWIDTH 340 0
DWIDTH 10 0
BBX 10 23 -1 -10
BITMAP
0780
0780
0FC0
0F80
0780
0000
0200
0600
0E00
0E00
0E00
1E00
1C00
1C00
3C00
3C00
3C00
7800
7800
7800
7800
F800
F000
ENDCHAR
STARTCHAR cent
ENCODING 162
SWIDTH 466 0
DWIDTH 13 0
BBX 11 20 1 -4
BITMAP
0300
0300
0300
0300
0FC0
3FE0
7FE0
76E0
76E0
F6C0
E600
F620
F660
7DE0
7FC0
1F80
0C00
0C00
0C00
0C00
ENDCHAR
STARTCHAR sterling
ENCODING 163
SWIDTH 525 0
DWIDTH 15 0
BBX 14 17 1 0
BITMAP
03E0
0FF8
1FF8
1E3C
3C3C
3C18
3800
3800
FFC0
FFC0
3800
7800
7800
7800
FFF8
FFF8
FFF8
ENDCHAR
STARTCHAR currency
ENCODING 164
SWIDTH 700 0
DWIDTH 20 0
BBX 14 13 3 1
BITMAP
6798
FFFC
7FF8
3870
7038
7038
7038
7038
3870
3FF0
7FF8
E79C
6018
ENDCHAR
STARTCHAR yen
ENCODING 165
SWIDTH 497 0
DWIDTH 14 0
BBX 14 17 1 0
BITMAP
4008
E03C
F03C
7078
78F0
3CE0
3DE0
1FC0
1F80
7FF0
FFF0
0F00
FFF0
FFE0
0E00
0E00
0E00
ENDCHAR
STARTCHAR brokenbar
ENCODING 166
SWIDTH 326 0
DWIDTH 9 0
BBX 8 34 1 -8
BITMAP
07
0F
0F
0F
0E
0E
0E
1E
1E
1E
1E
1C
1C
1C
1C
00
00
00
00
10
38
78
78
78
78
70
70
70
F0
F0
F0
F0
E0
E0
ENDCHAR
STARTCHAR section
ENCODING 167
SWIDTH 607 0
DWIDTH 17 0
BBX 14 24 2 0
BITMAP
03E0
0FF8
1FF8
1E3C
3C3C
3C3C
3C18
1F00
1FC0
3FF0
71F8
7078
7838
7C38
3F78
1FF0
07E0
61F0
E070
E070
F0F0
FFE0
7FC0
1F80
ENDCHAR
STARTCHAR dieresis
ENCODING 168
SWIDTH 600 0
DWIDTH 17 0
BBX 10 4 4 15
BITMAP
E380
F3C0
F3C0
E380
ENDCHAR
STARTCHAR copyright
ENCODING 169
SWIDTH 647 0
DWIDTH 18 0
BBX 17 16 2 10
BITMAP
03E000
0FF800
3C1C00
31E600
63F300
663300
E63300
CC0380
CC0380
EC0300
663300
67E300
31C600
3C1E00
0FF800
03E000
ENDCHAR
STARTCHAR ordfeminine
ENCODING 170
SWIDTH 393 0
DWIDTH 11 0
BBX 10 11 2 13
BITMAP
0E00
1FC0
3DC0
79C0
73C0
F380
E380
E380
F780
7F80
3B80
ENDCHAR
STARTCHAR guillemotleft
ENCODING 171
SWIDTH 615 0
DWIDTH 17 0
BBX 15 11 1 1
BITMAP
060E
1F1E
3E7E
FCF8
F1F0
F1E0
F8F0
7CF8
3E3C
1E1E
0E0C
ENDCHAR
STARTCHAR logicalnot
ENCODING 172
SWIDTH 700 0
DWIDTH 20 0
BBX 16 8 2 1
BITMAP
7FFE
FFFF
7FFF
000E
000E
000E
000E
001E
ENDCHAR
STARTCHAR uni00AD
ENCODING 173
SWIDTH 403 0
DWIDTH 11 0
BBX 8 4 2 7
BITMAP
07
FF
FF
FE
ENDCHAR
STARTCHAR registered
ENCODING 174
SWIDTH 647 0
DWIDTH 18 0
BBX 17 16 2 10
BITMAP
03E000
0FF800
3C1C00
33C600
677300
633300
E33300
C36380
C3C380
E6C300
666300
667300
342600
3C1E00
0FF800
03E000
ENDCHAR
STARTCHAR macron
ENCODING 175
SWIDTH 600 0
DWIDTH 17 0
BBX 9 3 4 15
BITMAP
FF80
FF80
FF80
ENDCHAR
STARTCHAR degree
ENCODING 176
SWIDTH 385 0
DWIDTH 11 0
BBX 8 8 3 15
BITMAP
3E
7F
E7
C3
C3
E7
FE
3C
ENDCHAR
STARTCHAR plusminus
ENCODING 177
SWIDTH 700 0
DWIDTH 20 0
BBX 14 16 3 0
BITMAP
0180
0380
0380
0380
7FFC
7FFC
7FF8
0780
0780
0700
0700
0200
0000
FFF0
FFF8
FFF0
ENDCHAR
STARTCHAR uni00B2
ENCODING 178
SWIDTH 450 0
DWIDTH 13 0
BBX 11 14 2 10
BITMAP
1F00
3FC0
73C0
61C0
E1C0
41C0
03C0
0780
0F00
1E00
7C00
FFC0
FFE0
FFC0
ENDCHAR
STARTCHAR uni00B3
ENCODING 179
SWIDTH 450 0
DWIDTH 13 0
BBX 11 14 2 10
BITMAP
1F80
3FC0
71E0
61E0
61C0
03C0
0F80
0F80
0FC0
41C0
E1C0
E3C0
FFC0
3F00
ENDCHAR
STARTCHAR acute
ENCODING 180
SWIDTH 600 0
DWIDTH 17 0
BBX 7 9 7 15
BITMAP
08
1C
1E
3C
38
38
70
60
C0
ENDCHAR
STARTCHAR uni00B5
ENCODING 181
SWIDTH 462 0
DWIDTH 13 0
BBX 16 20 1 -7
BITMAP
3860
38E0
78E0
71E0
71E0
71C0
F3C0
F3C3
F7C7
FFCE
FDFC
FDF8
F8F0
E000
E000
E000
E000
E000
E000
E000
ENDCHAR
STARTCHAR paragraph
ENCODING 182
SWIDTH 739 0
DWIDTH 21 0
BBX 17 24 3 0
BITMAP
07FC00
3FFF00
7FFF80
FFFF80
FFCF80
FFCF00
FFCF00
FFCF00
FFCF00
7F8F00
3F8F00
078E00
079E00
079E00
079E00
071E00
0F1E00
0F1C00
0F3C00
0F3C00
0F3C00
0F3C00
0F3C00
0E3800
ENDCHAR
STARTCHAR periodcentered
ENCODING 183
SWIDTH 257 0
DWIDTH 7 0
BBX 6 5 1 4
BITMAP
78
78
FC
F8
78
ENDCHAR
STARTCHAR cedilla
ENCODING 184
SWIDTH 600 0
DWIDTH 17 0
BBX 8 8 2 -7
BITMAP
7C
7E
0F
07
0F
FE
FE
F8
ENDCHAR
STARTCHAR uni00B9
ENCODING 185
SWIDTH 450 0
DWIDTH 13 0
BBX 8 14 3 10
BITMAP
0E
7F
FE
EE
0E
0E
0E
1E
1E
1E
1C
1C
1C
1C
ENDCHAR
STARTCHAR ordmasculine
ENCODING 186
SWIDTH 408 0
DWIDTH 11 0
BBX 10 12 2 12
BITMAP
1F00
3F80
7F80
73C0
71C0
E1C0
E1C0
F1C0
7380
7F80
3F00
1C00
ENDCHAR
STARTCHAR guillemotright
ENCODING 187
SWIDTH 615 0
DWIDTH 17 0
BBX 15 11 1 1
BITMAP
60E0
F0F0
7CF8
3E7C
1F1E
0F0E
1F1E
3E7E
7CF8
F0F0
60C0
ENDCHAR
STARTCHAR onequarter
ENCODING 188
SWIDTH 955 0
DWIDTH 27 0
BBX 23 24 3 0
BITMAP
0E0000
7F0000
FE0000
EE0100
0E0380
0E0780
0E0F00
1E0E00
1E1E00
1E1C00
1C3CE0
1C79E0
1C71C0
1CF3DC
00E39C
01E3BC
03C738
038738
078FFE
070FFE
0707FE
000038
000038
000030
ENDCHAR
STARTCHAR onehalf
ENCODING 189
SWIDTH 1024 0
DWIDTH 29 0
BBX 25 24 3 0
BITMAP
0E000000
7F000000
FE000000
EE010000
0E038000
0E078000
0E0F0000
1E0E0000
1E1E0000
1E1C0000
1C3C7C00
1C79FE00
1C71CF00
1CF38700
00E38700
01E10F00
03C00F00
03801E00
07803C00
07007800
0701F000
0003FF00
0007FF80
0003FF00
ENDCHAR
STARTCHAR threequarters
ENCODING 190
SWIDTH 1035 0
DWIDTH 29 0
BBX 26 24 2 0
BITMAP
1F800000
3FC00000
71E00000
61E02000
61C07000
03C0F000
0F80E000
0F81E000
0FC3C000
41C38000
E1C79C00
E3C71C00
FFCF3800
3F1E3B80
001C7380
003C7380
0038E780
0078E700
00F0FFC0
00E0FFC0
0060FFC0
00000700
00000700
00000700
ENDCHAR
STARTCHAR questiondown
ENCODING 191
SWIDTH 476 0
DWIDTH 13 0
BBX 13 24 -1 -11
BITMAP
00F0
00F0
01F8
01F0
00F0
0000
0000
00C0
01C0
01C0
0380
0780
0F00
1E00
3C00
7800
F800
F070
F070
F0F0
F0F0
FFE0
7FC0
1F80
ENDCHAR
STARTCHAR Agrave
ENCODING 192
SWIDTH 786 0
DWIDTH 22 0
BBX 24 33 2 0
BITMAP
008000
01E000
01F000
00F800
007C00
001E00
000700
000000
000000
001FF0
00FFFC
03FFF8
07E030
0F8000
1F01C0
3E03E0
3C03C0
7803C0
7803C0
F803C0
F00780
F00780
F00780
F00780
F00F80
F00F80
F01F80
F01F83
F83F87
7C778E
7FE7FC
3FE3F8
0F81F0
ENDCHAR
STARTCHAR Aacute
ENCODING 193
SWIDTH 786 0
DWIDTH 22 0
BBX 24 33 2 0
BITMAP
000008
00003C
00007C
0000FC
0001F0
0003C0
000300
000000
000000
001FF0
00FFFC
03FFF8
07E030
0F8000
1F01C0
3E03E0
3C03C0
7803C0
7803C0
F803C0
F00780
F00780
F00780
F00780
F00F80
F00F80
F01F80
F01F83
F83F87
7C778E
7FE7FC
3FE3F8
0F81F0
ENDCHAR
STARTCHAR Acircumflex
ENCODING 194
SWIDTH 786 0
DWIDTH 22 0
BBX 24 34 2 0
BITMAP
000100
0007C0
0007C0
000EE0
001EE0
001CE0
0038F0
003860
000000
000000
001FF0
00FFFC
03FFF8
07E030
0F8000
1F01C0
3E03E0
3C03C0
7803C0
7803C0
F803C0
F00780
F00780
F00780
F00780
F00F80
F00F80
F01F80
F01F83
F83F87
7C778E
7FE7FC
3FE3F8
0F81F0
ENDCHAR
STARTCHAR Atilde
ENCODING 195
SWIDTH 786 0
DWIDTH 22 0
BBX 24 32 2 0
BITMAP
000800
001E18
003F38
007FF8
0071F0
0020E0
000000
000000
001FF0
00FFFC
03FFF8
07E030
0F8000
1F01C0
3E03E0
3C03C0
7803C0
7803C0
F803C0
F00780
F00780
F00780
F00780
F00F80
F00F80
F01F80
F01F83
F83F87
7C778E
7FE7FC
3FE3F8
0F81F0
ENDCHAR
STARTCHAR Adieresis
ENCODING 196
SWIDTH 786 0
DWIDTH 22 0
BBX 24 30 2 0
BITMAP
001C70
003CF0
003CF0
001CE0
000000
000000
001FF0
00FFFC
03FFF8
07E030
0F8000
1F01C0
3E03E0
3C03C0
7803C0
7803C0
F803C0
F00780
F00780
F00780
F00780
F00F80
F00F80
F01F80
F01F83
F83F87
7C778E
7FE7FC
3FE3F8
0F81F0
ENDCHAR
STARTCHAR Aring
ENCODING 197
SWIDTH 786 0
DWIDTH 22 0
BBX 24 34 2 0
BITMAP
000780
000FC0
000FE0
000CE0
001CE0
000FE0
000FC0
000780
000000
000000
001FF0
00FFFC
03FFF8
07E030
0F8000
1F01C0
3E03E0
3C03C0
7803C0
7803C0
F803C0
F00780
F00780
F00780
F00780
F00F80
F00F80
F01F80
F01F83
F83F87
7C778E
7FE7FC
3FE3F8
0F81F0
ENDCHAR
STARTCHAR AE
ENCODING 198
SWIDTH 1015 0
DWIDTH 28 0
BBX 30 24 2 0
BITMAP
003C7FF0
00FEFFF0
03FEFFF0
07F0E000
0FC1E000
1F01E000
3E01E000
3C01E000
7C03C000
7803C000
F803C000
F007FFC0
F007FFC0
F007FFC0
F0078000
F00F8000
F00F8000
F01F8000
F01F8000
F83FC00C
7C7BE07C
7FF1FFF8
3FE0FFF0
0F803F80
ENDCHAR
STARTCHAR Ccedilla
ENCODING 199
SWIDTH 686 0
DWIDTH 19 0
BBX 21 31 2 -7
BITMAP
00FC00
03FF00
07FF80
0F8780
1E03C0
3C03C0
7C03C0
780380
780380
F00100
F00000
F00000
F00000
F00000
F00000
F00000
F00000
F80000
780000
7C0038
3F01F8
1FFFF0
0FFFE0
07FF00
07E000
007000
007000
007000
0FE000
0FE000
0F8000
ENDCHAR
STARTCHAR Egrave
ENCODING 200
SWIDTH 686 0
DWIDTH 19 0
BBX 22 33 1 0
BITMAP
020000
070000
078000
07E000
01F000
007800
001800
000000
000000
00FE00
03FF80
07FFC0
0F83E0
1F01E0
1E01E0
1E01E0
1E01E0
1E01C0
1F0000
0FF000
07F000
1FF000
3E0000
780000
F80000
F00000
F00000
F00000
F8001C
7E01FC
7FFFF8
1FFFF0
03FF00
ENDCHAR
STARTCHAR Eacute
ENCODING 201
SWIDTH 686 0
DWIDTH 19 0
BBX 22 33 1 0
BITMAP
000040
0000E0
0001F0
0003E0
000F80
001F00
001C00
000000
000000
00FE00
03FF80
07FFC0
0F83E0
1F01E0
1E01E0
1E01E0
1E01E0
1E01C0
1F0000
0FF000
07F000
1FF000
3E0000
780000
F80000
F00000
F00000
F00000
F8001C
7E01FC
7FFFF8
1FFFF0
03FF00
ENDCHAR
STARTCHAR Ecircumflex
ENCODING 202
SWIDTH 686 0
DWIDTH 19 0
BBX 22 34 1 0
BITMAP
000400
001E00
003F00
007F00
007700
00F380
01E380
00C380
000000
000000
00FE00
03FF80
07FFC0
0F83E0
1F01E0
1E01E0
1E01E0
1E01E0
1E01C0
1F0000
0FF000
07F000
1FF000
3E0000
780000
F80000
F00000
F00000
F00000
F8001C
7E01FC
7FFFF8
1FFFF0
03FF00
ENDCHAR
STARTCHAR Edieresis
ENCODING 203
SWIDTH 686 0
DWIDTH 19 0
BBX 22 30 1 0
BITMAP
00E380
00F7C0
00F780
00E380
000000
000000
00FE00
03FF80
07FFC0
0F83E0
1F01E0
1E01E0
1E01E0
1E01E0
1E01C0
1F0000
0FF000
07F000
1FF000
3E0000
780000
F80000
F00000
F00000
F00000
F8001C
7E01FC
7FFFF8
1FFFF0
03FF00
ENDCHAR
STARTCHAR Igrave
ENCODING 204
SWIDTH 495 0
DWIDTH 14 0
BBX 16 33 0 0
BITMAP
1000
3C00
3E00
1F00
0F80
03C0
00C0
0000
0000
1FFE
1FFF
1FFE
01E0
01E0
01E0
03C0
03C0
03C0
03C0
03C0
03C0
0380
0780
0780
0780
0780
0780
0780
0F00
0F00
FFF0
FFF0
FFF0
ENDCHAR
STARTCHAR Iacute
ENCODING 205
SWIDTH 495 0
DWIDTH 14 0
BBX 17 33 0 0
BITMAP
000100
000780
000F80
001F00
003E00
007800
006000
000000
000000
1FFE00
1FFF00
1FFE00
01E000
01E000
01E000
03C000
03C000
03C000
03C000
03C000
03C000
038000
078000
078000
078000
078000
078000
078000
0F0000
0F0000
FFF000
FFF000
FFF000
ENDCHAR
STARTCHAR Icircumflex
ENCODING 206
SWIDTH 495 0
DWIDTH 14 0
BBX 16 34 0 0
BITMAP
0020
00F8
01F8
01D8
039C
079C
071E
070C
0000
0000
1FFE
1FFF
1FFE
01E0
01E0
01E0
03C0
03C0
03C0
03C0
03C0
03C0
0380
0780
0780
0780
0780
0780
0780
0F00
0F00
FFF0
FFF0
FFF0
ENDCHAR
STARTCHAR Idieresis
ENCODING 207
SWIDTH 495 0
DWIDTH 14 0
BBX 16 30 0 0
BITMAP
039E
079E
079E
071C
0000
0000
1FFE
1FFF
1FFE
01E0
01E0
01E0
03C0
03C0
03C0
03C0
03C0
03C0
0380
0780
0780
0780
0780
0780
0780
0F00
0F00
FFF0
FFF0
FFF0
ENDCHAR
STARTCHAR Eth
ENCODING 208
SWIDTH 821 0
DWIDTH 23 0
BBX 22 24 0 0
BITMAP
00FF00
01FFC0
01FFE0
03C3F0
03C0F8
03C07C
07803C
07803C
07803C
07803C
7FFC3C
FFFC3C
7FFC3C
0F003C
1E003C
1E007C
1E0078
1E00F8
1E01F0
1E03E0
1E0FC0
3FFF80
1FFE00
1FF800
ENDCHAR
STARTCHAR Ntilde
ENCODING 209
SWIDTH 884 0
DWIDTH 25 0
BBX 28 32 0 0
BITMAP
00040000
001F0C00
001F9C00
003BFC00
0039F800
00107000
00000000
00000000
0780F800
1FC3FC00
3FC7FE00
79CF1E00
E1CC1E00
C1D81E00
C1D81E00
03F01E00
03F01E00
03E03E00
03E03C00
03E03C00
03C03C00
03C03C00
07C07800
07C07800
07807800
07807800
07807810
07807830
07807CF0
07807FE0
07003FC0
07001F00
ENDCHAR
STARTCHAR Ograve
ENCODING 210
SWIDTH 816 0
DWIDTH 23 0
BBX 20 33 2 0
BITMAP
040000
0F0000
0F8000
07C000
03E000
00F000
003000
000000
000000
00FE00
03FF80
07FFC0
0F87E0
1E01E0
3C01F0
7C00F0
7800F0
7800F0
F000F0
F000F0
F000F0
F000F0
F000F0
F000F0
F001E0
F001E0
F003E0
F803C0
7C0780
3E1F80
3FFF00
0FFC00
07F000
ENDCHAR
STARTCHAR Oacute
ENCODING 211
SWIDTH 816 0
DWIDTH 23 0
BBX 20 33 2 0
BITMAP
000040
0001E0
0003E0
0007E0
000F80
001E00
001800
000000
000000
00FE00
03FF80
07FFC0
0F87E0
1E01E0
3C01F0
7C00F0
7800F0
7800F0
F000F0
F000F0
F000F0
F000F0
F000F0
F000F0
F001E0
F001E0
F003E0
F803C0
7C0780
3E1F80
3FFF00
0FFC00
07F000
ENDCHAR
STARTCHAR Ocircumflex
ENCODING 212
SWIDTH 816 0
DWIDTH 23 0
BBX 20 34 2 0
BITMAP
000800
003E00
007E00
007700
00F700
01E700
01C780
01C300
000000
000000
00FE00
03FF80
07FFC0
0F87E0
1E01E0
3C01F0
7C00F0
7800F0
7800F0
F000F0
F000F0
F000F0
F000F0
F000F0
F000F0
F001E0
F001E0
F003E0
F803C0
7C0780
3E1F80
3FFF00
0FFC00
07F000
ENDCHAR
STARTCHAR Otilde
ENCODING 213
SWIDTH 816 0
DWIDTH 23 0
BBX 20 32 2 0
BITMAP
004000
00F0C0
01F9C0
03FFC0
038F80
010700
000000
000000
00FE00
03FF80
07FFC0
0F87E0
1E01E0
3C01F0
7C00F0
7800F0
7800F0
F000F0
F000F0
F000F0
F000F0
F000F0
F000F0
F001E0
F001E0
F003E0
F803C0
7C0780
3E1F80
3FFF00
0FFC00
07F000
ENDCHAR
STARTCHAR Odieresis
ENCODING 214
SWIDTH 816 0
DWIDTH 23 0
BBX 20 30 2 0
BITMAP
00E380
01E780
01E780
01E700
000000
000000
00FE00
03FF80
07FFC0
0F87E0
1E01E0
3C01F0
7C00F0
7800F0
7800F0
F000F0
F000F0
F000F0
F000F0
F000F0
F000F0
F001E0
F001E0
F003E0
F803C0
7C0780
3E1F80
3FFF00
0FFC00
07F000
ENDCHAR
STARTCHAR multiply
ENCODING 215
SWIDTH 700 0
DWIDTH 20 0
BBX 14 13 3 2
BITMAP
1008
781C
783C
3C78
1FF0
0FE0
0FC0
0FC0
1FE0
3DF0
78F0
F078
E030
ENDCHAR
STARTCHAR Oslash
ENCODING 216
SWIDTH 816 0
DWIDTH 23 0
BBX 20 29 2 -3
BITMAP
000E00
000E00
00FE00
03FF80
07FFC0
0F9FE0
1E3DE0
3C39F0
7C38F0
7838F0
7870F0
F070F0
F070F0
F070F0
F0E0F0
F0E0F0
F0E0F0
F0E1E0
F1C1E0
F1C1E0
F9C3C0
7DC780
7F9F80
3FFF00
1FFC00
07F000
070000
070000
070000
ENDCHAR
STARTCHAR Ugrave
ENCODING 217
SWIDTH 890 0
DWIDTH 25 0
BBX 29 33 0 0
BITMAP
00400000
00E00000
01F00000
00FC0000
003E0000
001F0000
00070000
00000000
00000000
07800E00
1FC00E00
3FE01E00
79E01E00
E1E01E00
E1E01E00
C1E01E00
01E01E00
03E03E00
03C03C00
03C03C00
03C03C00
03C07C00
07C07C00
07807C00
0780FC00
0780F800
0781B800
0783F810
07837838
078E7C70
07FE3FE0
03FC3FC0
01F01F80
ENDCHAR
STARTCHAR Uacute
ENCODING 218
SWIDTH 890 0
DWIDTH 25 0
BBX 29 33 0 0
BITMAP
00000800
00001C00
00003C00
0000FC00
0001F000
0003C000
00030000
00000000
00000000
07800E00
1FC00E00
3FE01E00
79E01E00
E1E01E00
E1E01E00
C1E01E00
01E01E00
03E03E00
03C03C00
03C03C00
03C03C00
03C07C00
07C07C00
07807C00
0780FC00
0780F800
0781B800
0783F810
07837838
078E7C70
07FE3FE0
03FC3FC0
01F01F80
ENDCHAR
STARTCHAR Ucircumflex
ENCODING 219
SWIDTH 890 0
DWIDTH 25 0
BBX 29 34 0 0
BITMAP
00008000
0003C000
0007E000
000EE000
000EE000
001C7000
003C7000
00187000
00000000
00000000
07800E00
1FC00E00
3FE01E00
79E01E00
E1E01E00
E1E01E00
C1E01E00
01E01E00
03E03E00
03C03C00
03C03C00
03C03C00
03C07C00
07C07C00
07807C00
0780FC00
0780F800
0781B800
0783F810
07837838
078E7C70
07FE3FE0
03FC3FC0
01F01F80
ENDCHAR
STARTCHAR Udieresis
ENCODING 220
SWIDTH 890 0
DWIDTH 25 0
BBX 29 30 0 0
BITMAP
001C7000
003EF000
003EF000
001C7000
00000000
00000000
07800E00
1FC00E00
3FE01E00
79E01E00
E1E01E00
E1E01E00
C1E01E00
01E01E00
03E03E00
03C03C00
03C03C00
03C03C00
03C07C00
07C07C00
07807C00
0780FC00
0780F800
0781B800
0783F810
07837838
078E7C70
07FE3FE0
03FC3FC0
01F01F80
ENDCHAR
STARTCHAR Yacute
ENCODING 221
SWIDTH 851 0
DWIDTH 24 0
BBX 27 41 0 -8
BITMAP
00000400
00001E00
00003E00
00007C00
0000F800
0003E000
00018000
00000000
00000000
07800E00
1FC00E00
3FE01E00
79E01E00
E1E01E00
C1E01E00
C1E01E00
01E03E00
03E03E00
03C03C00
03C03C00
03C07C00
03C07C00
0780FC00
0781FC00
0781B800
03C7B800
03FF39E0
01FE7FE0
00F8FFC0
0003FC00
000FF800
003C7000
00787000
00E0F000
01E0F000
01C0E000
01C1E000
01E3C000
01FF8000
00FF0000
007C0000
ENDCHAR
STARTCHAR Thorn
ENCODING 222
SWIDTH 776 0
DWIDTH 22 0
BBX 21 29 1 -3
BITMAP
003800
007800
007800
007800
007800
007800
00FF00
03FFC0
07FFE0
0FF1F0
1EF0F8
3CF0F8
38F078
78F078
71E0F8
71E0F0
F1E1F0
E1E7E0
E7FFC0
E7FF00
E3F000
E3C000
E3C000
F3C000
73C000
778000
3F8000
3F8000
0F0000
ENDCHAR
STARTCHAR germandbls
ENCODING 223
SWIDTH 596 0
DWIDTH 17 0
BBX 19 28 1 -6
BITMAP
01F000
07FC00
0FFE00
1F1E00
1C0E00
3C0E00
381E00
383C00
787800
71F000
71E000
73C000
73E000
71F000
F1FF00
F1FFE0
F7FFE0
F71E20
F70E00
F79E00
F7FC00
F1F000
F00000
F00000
F00000
F00000
F00000
E00000
ENDCHAR
STARTCHAR agrave
ENCODING 224
SWIDTH 470 0
DWIDTH 13 0
BBX 16 24 1 0
BITMAP
0800
1C00
1C00
1E00
0E00
0F00
0700
0380
0180
0000
0000
0700
1FE0
3FE0
3CE0
79E0
F1E0
F1C0
F1C3
F3C7
F3CE
FFFE
7EFC
3C70
ENDCHAR
STARTCHAR aacute
ENCODING 225
SWIDTH 470 0
DWIDTH 13 0
BBX 16 24 1 0
BITMAP
0010
0078
0078
0070
00F0
00E0
01C0
0180
0180
0000
0000
0700
1FE0
3FE0
3CE0
79E0
F1E0
F1C0
F1C3
F3C7
F3CE
FFFE
7EFC
3C70
ENDCHAR
STARTCHAR acircumflex
ENCODING 226
SWIDTH 470 0
DWIDTH 13 0
BBX 16 24 1 0
BITMAP
01C0
03E0
03E0
0760
0770
0E70
1E70
1C70
1830
0000
0000
0700
1FE0
3FE0
3CE0
79E0
F1E0
F1C0
F1C3
F3C7
F3CE
FFFE
7EFC
3C70
ENDCHAR
STARTCHAR atilde
ENCODING 227
SWIDTH 470 0
DWIDTH 13 0
BBX 16 21 1 0
BITMAP
0400
0F0C
1F9C
3BFC
38F8
1070
0000
0000
0700
1FE0
3FE0
3CE0
79E0
F1E0
F1C0
F1C3
F3C7
F3CE
FFFE
7EFC
3C70
ENDCHAR
STARTCHAR adieresis
ENCODING 228
SWIDTH 470 0
DWIDTH 13 0
BBX 16 19 1 0
BITMAP
0E30
1E78
1E78
1C70
0000
0000
0700
1FE0
3FE0
3CE0
79E0
F1E0
F1C0
F1C3
F3C7
F3CE
FFFE
7EFC
3C70
ENDCHAR
STARTCHAR aring
ENCODING 229
SWIDTH 470 0
DWIDTH 13 0
BBX 16 23 1 0
BITMAP
03C0
07E0
07F0
0E70
0E70
07F0
07E0
03C0
0000
0000
0700
1FE0
3FE0
3CE0
79E0
F1E0
F1C0
F1C3
F3C7
F3CE
FFFE
7EFC
3C70
ENDCHAR
STARTCHAR ae
ENCODING 230
SWIDTH 653 0
DWIDTH 18 0
BBX 21 13 1 0
BITMAP
079F00
1FFF80
3FFF80
7CF380
78E380
F1E780
F1EF00
F1FE18
F1F038
F3F0F0
FFFFF0
7E7FC0
3C1F00
ENDCHAR
STARTCHAR ccedilla
ENCODING 231
SWIDTH 368 0
DWIDTH 10 0
BBX 13 20 1 -7
BITMAP
0F00
3F80
7F80
7980
F380
F380
E000
E018
F038
F0F8
7FF0
7FC0
3F00
3F00
0780
0380
0780
7F00
7E00
7C00
ENDCHAR
STARTCHAR egrave
ENCODING 232
SWIDTH 393 0
DWIDTH 11 0
BBX 14 24 1 0
BITMAP
1000
3800
7800
3C00
3C00
1C00
0E00
0600
0200
0000
0000
0F00
3F80
7FC0
79C0
F1C0
E380
E780
FE0C
F83C
F078
7FF0
3FE0
1F80
ENDCHAR
STARTCHAR eacute
ENCODING 233
SWIDTH 393 0
DWIDTH 11 0
BBX 14 24 1 0
BITMAP
0040
00E0
00F0
01E0
01E0
01C0
0380
0300
0200
0000
0000
0F00
3F80
7FC0
79C0
F1C0
E380
E780
FE0C
F83C
F078
7FF0
3FE0
1F80
ENDCHAR
STARTCHAR ecircumflex
ENCODING 234
SWIDTH 393 0
DWIDTH 11 0
BBX 14 24 1 0
BITMAP
0380
07C0
07C0
0EC0
1EC0
1CE0
3CE0
38E0
30E0
0000
0000
0F00
3F80
7FC0
79C0
F1C0
E380
E780
FE0C
F83C
F078
7FF0
3FE0
1F80
ENDCHAR
STARTCHAR edieresis
ENCODING 235
SWIDTH 393 0
DWIDTH 11 0
BBX 14 19 1 0
BITMAP
38E0
3CF0
3CF0
38E0
0000
0000
0F00
3F80
7FC0
79C0
F1C0
E380
E780
FE0C
F83C
F078
7FF0
3FE0
1F80
ENDCHAR
STARTCHAR igrave
ENCODING 236
SWIDTH 246 0
DWIDTH 7 0
BBX 11 24 0 0
BITMAP
4000
E000
E000
F000
7000
3800
3800
1C00
0C00
0000
0000
1C00
3C00
3C00
3C00
3800
3800
7800
7860
78C0
79C0
3F80
3F00
1E00
ENDCHAR
STARTCHAR iacute
ENCODING 237
SWIDTH 246 0
DWIDTH 7 0
BBX 10 24 1 0
BITMAP
0100
0380
0780
0700
0F00
0E00
1C00
1800
1800
0000
0000
3800
7800
7800
7800
7000
7000
F000
F0C0
F180
F380
7F00
7E00
3C00
ENDCHAR
STARTCHAR icircumflex
ENCODING 238
SWIDTH 246 0
DWIDTH 7 0
BBX 11 24 0 0
BITMAP
0E00
0F00
1F00
3B00
3B80
7380
7380
E380
E180
0000
0000
1C00
3C00
3C00
3C00
3800
3800
7800
7860
78C0
79C0
3F80
3F00
1E00
ENDCHAR
STARTCHAR idieresis
ENCODING 239
SWIDTH 246 0
DWIDTH 7 0
BBX 11 19 0 0
BITMAP
7180
F3C0
F3C0
E380
0000
0000
1C00
3C00
3C00
3C00
3800
3800
7800
7860
78C0
79C0
3F80
3F00
1E00
ENDCHAR
STARTCHAR eth
ENCODING 240
SWIDTH 451 0
DWIDTH 13 0
BBX 14 26 1 0
BITMAP
1C00
1E08
0F3C
07F8
03F0
07E0
1FC0
1FE0
19E0
00E0
00E0
00E0
00F0
0FF0
3FF0
7FF0
78F0
F0F0
F0E0
E0E0
E0E0
F1E0
F3C0
7FC0
7F80
1E00
ENDCHAR
STARTCHAR ntilde
ENCODING 241
SWIDTH 496 0
DWIDTH 14 0
BBX 17 21 1 0
BITMAP
040000
0F0C00
1F9C00
3FFC00
38F800
107000
000000
000000
38F000
79F000
7BF000
77F000
76F000
7EE000
FCE000
F8E180
F9E300
F9E700
71FE00
70FC00
70F800
ENDCHAR
STARTCHAR ograve
ENCODING 242
SWIDTH 451 0
DWIDTH 13 0
BBX 15 24 1 0
BITMAP
1000
7800
7800
3800
3C00
1C00
0E00
0600
0600
0000
0000
0F00
3FC0
7FC0
7BE0
F3E2
F3FE
E1FE
E0FC
F0E0
F1C0
7FC0
7F80
1F00
ENDCHAR
STARTCHAR oacute
ENCODING 243
SWIDTH 451 0
DWIDTH 13 0
BBX 15 24 1 0
BITMAP
0040
00E0
00F0
01E0
01C0
03C0
0380
0700
0200
0000
0000
0F00
3FC0
7FC0
7BE0
F3E2
F3FE
E1FE
E0FC
F0E0
F1C0
7FC0
7F80
1F00
ENDCHAR
STARTCHAR ocircumflex
ENCODING 244
SWIDTH 451 0
DWIDTH 13 0
BBX 15 24 1 0
BITMAP
0380
07C0
07C0
0FC0
1CC0
1CE0
38E0
38E0
30E0
0000
0000
0F00
3FC0
7FC0
7BE0
F3E2
F3FE
E1FE
E0FC
F0E0
F1C0
7FC0
7F80
1F00
ENDCHAR
STARTCHAR otilde
ENCODING 245
SWIDTH 451 0
DWIDTH 13 0
BBX 15 21 1 0
BITMAP
0800
3E38
3F38
77F0
63F0
40E0
0000
0000
0F00
3FC0
7FC0
7BE0
F3E2
F3FE
E1FE
E0FC
F0E0
F1C0
7FC0
7F80
1F00
ENDCHAR
STARTCHAR odieresis
ENCODING 246
SWIDTH 451 0
DWIDTH 13 0
BBX 15 19 1 0
BITMAP
38E0
3CF0
3DF0
38E0
0000
0000
0F00
3FC0
7FC0
7BE0
F3E2
F3FE
E1FE
E0FC
F0E0
F1C0
7FC0
7F80
1F00
ENDCHAR
STARTCHAR divide
ENCODING 247
SWIDTH 700 0
DWIDTH 20 0
BBX 16 15 2 0
BITMAP
01C0
03E0
03E0
01C0
0000
0000
7FFE
FFFF
7FFE
0000
0000
0380
0780
0780
0780
ENDCHAR
STARTCHAR oslash
ENCODING 248
SWIDTH 459 0
DWIDTH 13 0
BBX 16 20 1 -3
BITMAP
0100
0300
0300
0300
0F00
3FC0
7FE0
77E0
F6E2
E6FF
E6FF
E6FC
FCE0
FDE0
7FC0
7F80
1F00
1800
1800
1800
ENDCHAR
STARTCHAR ugrave
ENCODING 249
SWIDTH 462 0
DWIDTH 13 0
BBX 16 24 1 0
BITMAP
1000
3800
3C00
1C00
1E00
0E00
0700
0300
0300
0000
0000
3860
38E0
78E0
71E0
71E0
71C0
F3C0
F3C3
F7C7
FFCE
7DFC
7DF8
38F0
ENDCHAR
STARTCHAR uacute
ENCODING 250
SWIDTH 462 0
DWIDTH 13 0
BBX 16 24 1 0
BITMAP
0020
0070
0070
00F0
00E0
01E0
01C0
0380
0300
0000
0000
3860
38E0
78E0
71E0
71E0
71C0
F3C0
F3C3
F7C7
FFCE
7DFC
7DF8
38F0
ENDCHAR
STARTCHAR ucircumflex
ENCODING 251
SWIDTH 462 0
DWIDTH 13 0
BBX 16 24 1 0
BITMAP
01C0
03C0
07E0
07E0
0EE0
0E60
1C70
3C70
1870
0000
0000
3860
38E0
78E0
71E0
71E0
71C0
F3C0
F3C3
F7C7
FFCE
7DFC
7DF8
38F0
ENDCHAR
STARTCHAR udieresis
ENCODING 252
SWIDTH 462 0
DWIDTH 13 0
BBX 16 19 1 0
BITMAP
1C70
1EF8
1EF0
1C70
0000
0000
3860
38E0
78E0
71E0
71E0
71C0
F3C0
F3C3
F7C7
FFCE
7DFC
7DF8
38F0
ENDCHAR
STARTCHAR yacute
ENCODING 253
SWIDTH 479 0
DWIDTH 13 0
BBX 16 37 0 -13
BITMAP
0010
0038
0038
0078
0070
00F0
00E0
01C0
0180
0000
0000
1C30
1C70
3C70
38F0
38F0
38F0
79E0
79E3
7BE7
7FFF
3EFC
3EF8
1DF0
03C0
07C0
0FC0
1DC0
3B80
7380
6380
E700
E700
EF00
FE00
FC00
7800
ENDCHAR
STARTCHAR thorn
ENCODING 254
SWIDTH 508 0
DWIDTH 14 0
BBX 17 31 1 -9
BITMAP
1C0000
1C0000
3C0000
3C0000
3C0000
380000
380000
780000
780000
79E000
73F000
77F000
7EF000
7C7000
F87000
F8F080
F8F180
F1E380
F3E700
FFFE00
FFFC00
FC7800
E00000
E00000
E00000
E00000
E00000
E00000
E00000
E00000
E00000
ENDCHAR
STARTCHAR ydieresis
ENCODING 255
SWIDTH 479 0
DWIDTH 13 0
BBX 16 32 0 -13
BITMAP
0E38
0F7C
0F78
0E38
0000
0000
1C30
1C70
3C70
38F0
38F0
38F0
79E0
79E3
7BE7
7FFF
3EFC
3EF8
1DF0
03C0
07C0
0FC0
1DC0
3B80
7380
6380
E700
E700
EF00
FE00
FC00
7800
ENDCHAR
STARTCHAR Amacron
ENCODING 256
SWIDTH 786 0
DWIDTH 22 0
BBX 24 29 2 0
BITMAP
001FE0
003FE0
001FE0
000000
000000
001FF0
00FFFC
03FFF8
07E030
0F8000
1F01C0
3E03E0
3C03C0
7803C0
7803C0
F803C0
F00780
F00780
F00780
F00780
F00F80
F00F80
F01F80
F01F83
F83F87
7C778E
7FE7FC
3FE3F8
0F81F0
ENDCHAR
STARTCHAR amacron
ENCODING 257
SWIDTH 470 0
DWIDTH 13 0
BBX 16 18 1 0
BITMAP
0FF0
1FF0
1FF0
0000
0000
0700
1FE0
3FE0
3CE0
79E0
F1E0
F1C0
F1C3
F3C7
F3CE
FFFE
7EFC
3C70
ENDCHAR
STARTCHAR Abreve
ENCODING 258
SWIDTH 786 0
DWIDTH 22 0
BBX 24 31 2 0
BITMAP
003038
007878
003FF0
003FF0
000FC0
000000
000000
001FF0
00FFFC
03FFF8
07E030
0F8000
1F01C0
3E03E0
3C03C0
7803C0
7803C0
F803C0
F00780
F00780
F00780
F00780
F00F80
F00F80
F01F80
F01F83
F83F87
7C778E
7FE7FC
3FE3F8
0F81F0
ENDCHAR
STARTCHAR abreve
ENCODING 259
SWIDTH 470 0
DWIDTH 13 0
BBX 16 21 1 0
BITMAP
181C
3C1C
3C3C
1FF8
0FF0
07E0
0000
0000
0700
1FE0
3FE0
3CE0
79E0
F1E0
F1C0
F1C3
F3C7
F3CE
FFFE
7EFC
3C70
ENDCHAR
STARTCHAR Aogonek
ENCODING 260
SWIDTH 786 0
DWIDTH 22 0
BBX 24 31 2 -7
BITMAP
001FF0
00FFFC
03FFF8
07E030
0F8000
1F01C0
3E03E0
3C03C0
7803C0
7803C0
F803C0
F00780
F00780
F00780
F00780
F00F80
F00F80
F01F80
F01F83
F83F87
7C778E
7FE7FC
3FE3F8
0F81F0
0001C0
000380
000380
000380
0003F8
0003F8
0000F0
ENDCHAR
STARTCHAR aogonek
ENCODING 261
SWIDTH 470 0
DWIDTH 13 0
BBX 16 20 1 -7
BITMAP
0700
1FE0
3FE0
3CE0
79E0
F1E0
F1C0
F1C3
F3C7
F3CE
FFFE
7EFC
3CF0
01E0
0380
0380
0380
03F8
01F8
00F8
ENDCHAR
STARTCHAR Cacute
ENCODING 262
SWIDTH 686 0
DWIDTH 19 0
BBX 21 33 2 0
BITMAP
000040
0001E0
0003E0
0007C0
000F80
001E00
001800
000000
000000
00FC00
03FF00
07FF80
0F8780
1E03C0
3C03C0
7C03C0
780380
780380
F00100
F00000
F00000
F00000
F00000
F00000
F00000
F00000
F80000
780000
7C0038
3F01F8
1FFFF0
0FFFE0
01FE00
ENDCHAR
STARTCHAR cacute
ENCODING 263
SWIDTH 368 0
DWIDTH 10 0
BBX 13 24 1 0
BITMAP
0040
00E0
00F0
01E0
01C0
03C0
0380
0700
0200
0000
0000
0F00
3F80
7F80
7980
F380
F380
E000
E018
F038
F0F8
7FF0
7FC0
1F00
ENDCHAR
STARTCHAR Ccircumflex
ENCODING 264
SWIDTH 686 0
DWIDTH 19 0
BBX 21 34 2 0
BITMAP
000800
003E00
007E00
007600
00E700
01E700
01C780
01C300
000000
000000
00FC00
03FF00
07FF80
0F8780
1E03C0
3C03C0
7C03C0
780380
780380
F00100
F00000
F00000
F00000
F00000
F00000
F00000
F00000
F80000
780000
7C0038
3F01F8
1FFFF0
0FFFE0
01FE00
ENDCHAR
STARTCHAR ccircumflex
ENCODING 265
SWIDTH 368 0
DWIDTH 10 0
BBX 13 24 1 0
BITMAP
0380
07C0
07C0
0FC0
1CC0
1CE0
38E0
38E0
30E0
0000
0000
0F00
3F80
7F80
7980
F380
F380
E000
E018
F038
F0F8
7FF0
7FC0
1F00
ENDCHAR
STARTCHAR Cdotaccent
ENCODING 266
SWIDTH 686 0
DWIDTH 19 0
BBX 21 30 2 0
BITMAP
003C00
007C00
007C00
003C00
000000
000000
00FC00
03FF00
07FF80
0F8780
1E03C0
3C03C0
7C03C0
780380
780380
F00100
F00000
F00000
F00000
F00000
F00000
F00000
F00000
F80000
780000
7C0038
3F01F8
1FFFF0
0FFFE0
01FE00
ENDCHAR
STARTCHAR cdotaccent
ENCODING 267
SWIDTH 368 0
DWIDTH 10 0
BBX 13 19 1 0
BITMAP
0700
0F80
0F80
0700
0000
0000
0F00
3F80
7F80
7980
F380
F380
E000
E018
F038
F0F8
7FF0
7FC0
1F00
ENDCHAR
STARTCHAR Ccaron
ENCODING 268
SWIDTH 686 0
DWIDTH 19 0
BBX 21 33 2 0
BITMAP
00C180
00E380
00E700
007700
007E00
003C00
003800
000000
000000
00FC00
03FF00
07FF80
0F8780
1E03C0
3C03C0
7C03C0
780380
780380
F00100
F00000
F00000
F00000
F00000
F00000
F00000
F00000
F80000
780000
7C0038
3F01F8
1FFFF0
0FFFE0
01FE00
ENDCHAR
STARTCHAR ccaron
ENCODING 269
SWIDTH 368 0
DWIDTH 10 0
BBX 13 24 1 0
BITMAP
1C30
1C70
1C70
1CE0
0CE0
0DC0
0F80
0F80
0700
0000
0000
0F00
3F80
7F80
7980
F380
F380
E000
E018
F038
F0F8
7FF0
7FC0
1F00
ENDCHAR
STARTCHAR Dcaron
ENCODING 270
SWIDTH 836 0
DWIDTH 23 0
BBX 22 33 1 0
BITMAP
00C180
00E380
00E700
006700
007E00
003C00
003800
000000
000000
01FE00
1FFF80
7FFFE0
FE03F0
F001F0
4000F8
078078
07807C
0F003C
0F003C
0F003C
0F003C
1E003C
1E007C
1E0078
1E0078
1E00F8
1E00F0
3C01F0
3C03E0
3C0FC0
3FFF80
3FFE00
1FF000
ENDCHAR
STARTCHAR dcaron
ENCODING 271
SWIDTH 470 0
DWIDTH 13 0
BBX 18 25 1 0
BITMAP
0003C0
0003C0
003B80
003B80
007B80
007B00
007800
007800
007000
007000
007000
00F000
07F000
1FE000
3FE000
3CE000
79E000
F1E000
F1C000
F1C300
F3C700
F3CE00
FFFE00
7EFC00
3C7000
ENDCHAR
STARTCHAR Dcroat
ENCODING 272
SWIDTH 821 0
DWIDTH 23 0
BBX 22 24 0 0
BITMAP
00FF00
01FFC0
01FFE0
03C3F0
03C0F8
03C07C
07803C
07803C
07803C
07803C
7FFC3C
FFFC3C
7FFC3C
0F003C
1E003C
1E007C
1E0078
1E00F8
1E01F0
1E03E0
1E0FC0
3FFF80
1FFE00
1FF800
ENDCHAR
STARTCHAR dcroat
ENCODING 273
SWIDTH 470 0
DWIDTH 13 0
BBX 16 23 1 0
BITMAP
0038
0038
0078
0078
0FFC
1FFC
0FFC
0070
0070
00F0
07F0
1FE0
3FE0
3CE0
79E0
F1E0
F1C0
F1C3
F3C7
F3CE
FFFE
7EFC
3C70
ENDCHAR
STARTCHAR Emacron
ENCODING 274
SWIDTH 686 0
DWIDTH 19 0
BBX 22 29 1 0
BITMAP
00FF80
00FF80
00FF00
000000
000000
00FE00
03FF80
07FFC0
0F83E0
1F01E0
1E01E0
1E01E0
1E01E0
1E01C0
1F0000
0FF000
07F000
1FF000
3E0000
780000
F80000
F00000
F00000
F00000
F8001C
7E01FC
7FFFF8
1FFFF0
03FF00
ENDCHAR
STARTCHAR emacron
ENCODING 275
SWIDTH 393 0
DWIDTH 11 0
BBX 14 18 1 0
BITMAP
3FE0
3FE0
3FE0
0000
0000
0F00
3F80
7FC0
79C0
F1C0
E380
E780
FE0C
F83C
F078
7FF0
3FE0
1F80
ENDCHAR
STARTCHAR Ebreve
ENCODING 276
SWIDTH 686 0
DWIDTH 19 0
BBX 22 31 1 0
BITMAP
01C0C0
01E1C0
01FFC0
00FF80
007E00
000000
000000
00FE00
03FF80
07FFC0
0F83E0
1F01E0
1E01E0
1E01E0
1E01E0
1E01C0
1F0000
0FF000
07F000
1FF000
3E0000
780000
F80000
F00000
F00000
F00000
F8001C
7E01FC
7FFFF8
1FFFF0
03FF00
ENDCHAR
STARTCHAR ebreve
ENCODING 277
SWIDTH 393 0
DWIDTH 11 0
BBX 14 21 1 0
BITMAP
7030
7078
78F0
3FF0
3FE0
0F80
0000
0000
0F00
3F80
7FC0
79C0
F1C0
E380
E780
FE0C
F83C
F078
7FF0
3FE0
1F80
ENDCHAR
STARTCHAR Edotaccent
ENCODING 278
SWIDTH 686 0
DWIDTH 19 0
BBX 22 30 1 0
BITMAP
001C00
003E00
003E00
001C00
000000
000000
00FE00
03FF80
07FFC0
0F83E0
1F01E0
1E01E0
1E01E0
1E01E0
1E01C0
1F0000
0FF000
07F000
1FF000
3E0000
780000
F80000
F00000
F00000
F00000
F8001C
7E01FC
7FFFF8
1FFFF0
03FF00
ENDCHAR
STARTCHAR edotaccent
ENCODING 279
SWIDTH 393 0
DWIDTH 11 0
BBX 14 19 1 0
BITMAP
0780
0F80
0F80
0700
0000
0000
0F00
3F80
7FC0
79C0
F1C0
E380
E780
FE0C
F83C
F078
7FF0
3FE0
1F80
ENDCHAR
STARTCHAR Eogonek
ENCODING 280
SWIDTH 686 0
DWIDTH 19 0
BBX 22 31 1 -7
BITMAP
00FE00
03FF80
07FFC0
0F83E0
1F01E0
1E01E0
1E01E0
1E01E0
1E01C0
1F0000
0FF000
07F000
1FF000
3E0000
780000
F80000
F00000
F00000
F00000
F8001C
7E01FC
7FFFF8
1FFFF0
07FE00
007000
006000
00E000
00F000
00FF00
007F00
003E00
ENDCHAR
STARTCHAR eogonek
ENCODING 281
SWIDTH 393 0
DWIDTH 11 0
BBX 14 20 1 -7
BITMAP
0F00
3F80
7FC0
79C0
F1C0
E380
E780
FF08
FC1C
F078
7FF8
7FE0
1FC0
0E00
0C00
1C00
1C00
1FE0
0FE0
07C0
ENDCHAR
STARTCHAR Ecaron
ENCODING 282
SWIDTH 686 0
DWIDTH 19 0
BBX 22 33 1 0
BITMAP
0061C0
00E3C0
007380
007700
003700
003E00
001C00
000000
000000
00FE00
03FF80
07FFC0
0F83E0
1F01E0
1E01E0
1E01E0
1E01E0
1E01C0
1F0000
0FF000
07F000
1FF000
3E0000
780000
F80000
F00000
F00000
F00000
F8001C
7E01FC
7FFFF8
1FFFF0
03FF00
ENDCHAR
STARTCHAR ecaron
ENCODING 283
SWIDTH 393 0
DWIDTH 11 0
BBX 14 24 1 0
BITMAP
1C30
1C70
1C70
1CE0
0CE0
0FC0
0F80
0F80
0700
0000
0000
0F00
3F80
7FC0
79C0
F1C0
E380
E780
FE0C
F83C
F078
7FF0
3FE0
1F80
ENDCHAR
STARTCHAR Gcircumflex
ENCODING 284
SWIDTH 811 0
DWIDTH 23 0
BBX 24 47 2 -13
BITMAP
000400
001E00
003E00
007700
00F700
00E780
01E380
01C380
000000
000000
00FE00
03FF80
07FF80
0F83C0
1E03C0
3C01C0
7C01C0
7803C0
7803C0
F00180
F00000
F00000
F00000
F00000
F01FE0
F01FE0
F01FE0
F801E0
7801E2
7C01E7
3F03DF
1FFFFC
0FFFF8
01FDE0
0003C0
000FC0
001F80
003B80
007380
007780
00E700
00C700
01CE00
01CE00
01FC00
00FC00
007000
ENDCHAR
STARTCHAR gcircumflex
ENCODING 285
SWIDTH 479 0
DWIDTH 13 0
BBX 16 37 0 -13
BITMAP
00E0
01F0
01F0
03B0
03B8
0738
0F38
0E38
0C18
0000
0000
0380
0FF0
1FF0
1E70
3CF0
78F0
78E0
78E3
79E7
79FF
7FFE
3EF8
1DF0
03C0
07C0
0FC0
1DC0
3B80
7380
7380
E700
E700
EF00
FE00
FC00
7800
ENDCHAR
STARTCHAR Gbreve
ENCODING 286
SWIDTH 811 0
DWIDTH 23 0
BBX 24 44 2 -13
BITMAP
01C0C0
01C3C0
01FFC0
00FF80
007E00
000000
000000
00FE00
03FF80
07FF80
0F83C0
1E03C0
3C01C0
7C01C0
7803C0
7803C0
F00180
F00000
F00000
F00000
F00000
F01FE0
F01FE0
F01FE0
F801E0
7801E2
7C01E7
3F03DF
1FFFFC
0FFFF8
01FDE0
0003C0
000FC0
001F80
003B80
007380
007780
00E700
00C700
01CE00
01CE00
01FC00
00FC00
007000
ENDCHAR
STARTCHAR gbreve
ENCODING 287
SWIDTH 479 0
DWIDTH 13 0
BBX 16 34 0 -13
BITMAP
0C0E
1E0E
1E1E
0FFC
07F8
03F0
0000
0000
0380
0FF0
1FF0
1E70
3CF0
78F0
78E0
78E3
79E7
79FF
7FFE
3EF8
1DF0
03C0
07C0
0FC0
1DC0
3B80
7380
7380
E700
E700
EF00
FE00
FC00
7800
ENDCHAR
STARTCHAR Gdotaccent
ENCODING 288
SWIDTH 811 0
DWIDTH 23 0
BBX 24 43 2 -13
BITMAP
001C00
003E00
003E00
003C00
000000
000000
00FE00
03FF80
07FF80
0F83C0
1E03C0
3C01C0
7C01C0
7803C0
7803C0
F00180
F00000
F00000
F00000
F00000
F01FE0
F01FE0
F01FE0
F801E0
7801E2
7C01E7
3F03DF
1FFFFC
0FFFF8
01FDE0
0003C0
000FC0
001F80
003B80
007380
007780
00E700
00C700
01CE00
01CE00
01FC00
00FC00
007000
ENDCHAR
STARTCHAR gdotaccent
ENCODING 289
SWIDTH 479 0
DWIDTH 13 0
BBX 16 32 0 -13
BITMAP
01E0
03E0
03E0
01E0
0000
0000
0380
0FF0
1FF0
1E70
3CF0
78F0
78E0
78E3
79E7
79FF
7FFE
3EF8
1DF0
03C0
07C0
0FC0
1DC0
3B80
7380
7380
E700
E700
EF00
FE00
FC00
7800
ENDCHAR
STARTCHAR uni0122
ENCODING 290
SWIDTH 811 0
DWIDTH 23 0
BBX 24 37 2 -13
BITMAP
00FE00
03FF80
07FF80
0F83C0
1E03C0
3C01C0
7C01C0
7803C0
7803C0
F00180
F00000
F00000
F00000
F00000
F01FE0
F01FE0
F01FE0
F801E0
7801E2
7C01E7
3F03DF
1FFFFC
0FFFF8
01FDE0
0003C0
0E0FC0
0E1F80
0E3B80
0E7380
0C7780
0CE700
00C700
01CE00
01CE00
01FC00
00FC00
007000
ENDCHAR
STARTCHAR uni0123
ENCODING 291
SWIDTH 479 0
DWIDTH 13 0
BBX 16 35 0 -13
BITMAP
00E0
00E0
00E0
00E0
00C0
00C0
00C0
0000
0000
0380
0FF0
1FF0
1E70
3CF0
78F0
78E0
78E3
79E7
79FF
7FFE
3EF8
1DF0
03C0
07C0
0FC0
1DC0
3B80
7380
7380
E700
E700
EF00
FE00
FC00
7800
ENDCHAR
STARTCHAR Hcircumflex
ENCODING 292
SWIDTH 873 0
DWIDTH 24 0
BBX 28 34 0 0
BITMAP
00008000
0003C000
0007C000
000EE000
001EE000
001CF000
003C7000
00386000
00000000
00000380
07800FC0
1FC00FC0
7FE01EE0
71E03CE0
E1E038E0
C1E038C0
81E078C0
01E071C0
01E07180
01E0F780
01C0FF00
03C1FC00
1FFFF800
1FFFF000
1FF0E000
03C0E000
0780F000
0780F000
0780F030
0780F070
0F00F8F0
0F007FE0
0F003FC0
0E001F00
ENDCHAR
STARTCHAR hcircumflex
ENCODING 293
SWIDTH 502 0
DWIDTH 14 0
BBX 17 36 1 0
BITMAP
004000
01E000
03F000
07F000
073800
0F3800
0E3800
0C1800
000000
000000
03C000
07C000
0FE000
0EE000
1CE000
1CE000
1CE000
38C000
39C000
398000
7B8000
7B0000
770000
7EF000
7DF000
7BF000
77F000
76F000
7EF000
7CE000
7CE180
78E380
F8E700
F8FE00
70FC00
607800
ENDCHAR
STARTCHAR Hbar
ENCODING 294
SWIDTH 856 0
DWIDTH 24 0
BBX 23 24 2 0
BITMAP
0E0070
0F00F0
0F00F0
1E00F0
7FFFFC
FFFFFE
7FFFFC
1E00F0
1E00F0
1E01E0
FFFFF8
FFFFFC
FFFFF8
3C01E0
3C01C0
3803C0
7803C0
7803C0
7803C0
7803C0
7803C0
7803C0
780380
700380
ENDCHAR
STARTCHAR hbar
ENCODING 295
SWIDTH 502 0
DWIDTH 14 0
BBX 17 23 1 0
BITMAP
0E0000
0E0000
1E0000
1E0000
7FE000
FFE000
7FE000
3C0000
380000
380000
78F000
79F000
7BF000
77F000
76F000
7EF000
7CE000
7CE180
78E380
78E700
78FE00
70FC00
707800
ENDCHAR
STARTCHAR Itilde
ENCODING 296
SWIDTH 495 0
DWIDTH 14 0
BBX 16 32 0 0
BITMAP
0100
03C3
07E7
0EFF
0E3E
041C
0000
0000
1FFE
1FFF
1FFE
01E0
01E0
01E0
03C0
03C0
03C0
03C0
03C0
03C0
0380
0780
0780
0780
0780
0780
0780
0F00
0F00
FFF0
FFF0
FFF0
ENDCHAR
STARTCHAR itilde
ENCODING 297
SWIDTH 246 0
DWIDTH 7 0
BBX 12 21 -1 0
BITMAP
1000
3C30
7E70
EFF0
E3E0
41C0
0000
0000
0E00
1E00
1E00
1E00
1C00
1C00
3C00
3C30
3C60
3CE0
1FC0
1F80
0F00
ENDCHAR
STARTCHAR Imacron
ENCODING 298
SWIDTH 495 0
DWIDTH 14 0
BBX 16 29 0 0
BITMAP
03FC
07FC
07FC
0000
0000
1FFE
1FFF
1FFE
01E0
01E0
01E0
03C0
03C0
03C0
03C0
03C0
03C0
0380
0780
0780
0780
0780
0780
0780
0F00
0F00
FFF0
FFF0
FFF0
ENDCHAR
STARTCHAR imacron
ENCODING 299
SWIDTH 246 0
DWIDTH 7 0
BBX 11 18 0 0
BITMAP
7F80
FF80
FF80
0000
0000
1C00
3C00
3C00
3C00
3800
3800
7800
7860
78C0
79C0
3F80
3F00
1E00
ENDCHAR
STARTCHAR Ibreve
ENCODING 300
SWIDTH 495 0
DWIDTH 14 0
BBX 16 31 0 0
BITMAP
0607
0F0F
07FE
07FC
01F8
0000
0000
1FFE
1FFF
1FFE
01E0
01E0
01E0
03C0
03C0
03C0
03C0
03C0
03C0
0380
0780
0780
0780
0780
0780
0780
0F00
0F00
FFF0
FFF0
FFF0
ENDCHAR
STARTCHAR ibreve
ENCODING 301
SWIDTH 246 0
DWIDTH 7 0
BBX 12 21 -1 0
BITMAP
6070
F070
F0F0
7FE0
3FC0
1F80
0000
0000
0E00
1E00
1E00
1E00
1C00
1C00
3C00
3C30
3C60
3CE0
1FC0
1F80
0F00
ENDCHAR
STARTCHAR Iogonek
ENCODING 302
SWIDTH 495 0
DWIDTH 14 0
BBX 16 31 0 -7
BITMAP
1FFE
1FFF
1FFE
01E0
01E0
01E0
03C0
03C0
03C0
03C0
03C0
03C0
0380
0780
0780
0780
0780
0780
0780
0F00
0F00
FFF0
FFF0
FFF0
0E00
1C00
1C00
1C00
1FC0
0FC0
0780
ENDCHAR
STARTCHAR iogonek
ENCODING 303
SWIDTH 246 0
DWIDTH 7 0
BBX 10 26 1 -7
BITMAP
3C00
3C00
7C00
3C00
0000
0000
3800
7800
7800
7800
7000
7000
F000
F080
F1C0
F380
7F00
7E00
3C00
7000
E000
E000
E000
FE00
FE00
3C00
ENDCHAR
STARTCHAR Idotaccent
ENCODING 304
SWIDTH 495 0
DWIDTH 14 0
BBX 16 30 0 0
BITMAP
00F0
01F0
01F0
00F0
0000
0000
1FFE
1FFF
1FFE
01E0
01E0
01E0
03C0
03C0
03C0
03C0
03C0
03C0
0380
0780
0780
0780
0780
0780
0780
0F00
0F00
FFF0
FFF0
FFF0
ENDCHAR
STARTCHAR dotlessi
ENCODING 305
SWIDTH 246 0
DWIDTH 7 0
BBX 10 13 1 0
BITMAP
3800
7800
7800
7800
7000
7000
F000
F0C0
F180
F380
7F00
7E00
3C00
ENDCHAR
STARTCHAR Jcircumflex
ENCODING 308
SWIDTH 743 0
DWIDTH 21 0
BBX 19 36 2 -2
BITMAP
001000
007800
00FC00
00FC00
01CE00
03CE00
038E00
030600
000000
000000
03FF80
1FFFE0
3FFFE0
7C03C0
F003C0
E003C0
E003C0
F00380
F00780
700780
000780
001F80
007F80
00FF00
03EF00
078F00
0F0F00
1E0E00
1C1E00
3C1C00
3C3C00
3C3C00
3C7800
1FF000
1FE000
078000
ENDCHAR
STARTCHAR jcircumflex
ENCODING 309
SWIDTH 254 0
DWIDTH 7 0
BBX 16 37 -6 -13
BITMAP
0038
007C
007C
00EC
00EE
01CE
01CE
038E
0306
0000
0000
0070
00F0
00F0
00F0
00E0
00E0
00E0
00E3
00E7
01FF
01FC
01F8
01E0
03C0
07C0
0FC0
1F80
3B80
7380
6780
E700
C700
CE00
FE00
FC00
7800
ENDCHAR
STARTCHAR uni0136
ENCODING 310
SWIDTH 937 0
DWIDTH 26 0
BBX 29 32 1 -8
BITMAP
03FC01C0
0FFE03C0
3FFF03C0
3C3E0780
783C0780
703C0780
703C0F00
703C1F00
783C1E00
783C3C00
30787800
0079F000
01FFE000
01FF8000
01FFC000
007BE000
0071F000
00F0F000
C0F0F818
E0F07838
F1E07C78
FFE03FF0
7FC01FE0
1F000F80
00000000
00000000
000C0000
001E0000
001E0000
001C0000
001C0000
001C0000
ENDCHAR
STARTCHAR uni0137
ENCODING 311
SWIDTH 525 0
DWIDTH 15 0
BBX 16 35 2 -9
BITMAP
0780
0FC0
1FC0
1DC0
39C0
39C0
39C0
7180
7380
7300
F700
F600
EC00
FDE0
FBF0
F7F0
EE70
EC70
F8F0
F9E1
FBC3
F787
F7CF
F3FE
E3FC
E0F8
0000
0000
1C00
1C00
1C00
1C00
1800
1800
1800
ENDCHAR
STARTCHAR kgreenlandic
ENCODING 312
SWIDTH 465 0
DWIDTH 13 0
BBX 16 13 1 0
BITMAP
38F0
7BF8
7BF8
77B8
7738
7E30
FE00
FE03
FF07
FF0E
77FC
73F8
70F0
ENDCHAR
STARTCHAR Lacute
ENCODING 313
SWIDTH 673 0
DWIDTH 19 0
BBX 23 33 -1 0
BITMAP
000008
00001C
00003E
00007C
0001F8
0003E0
000380
000000
000000
000FC0
003FF0
007FF8
00F878
01E038
03E03C
03C03C
03C038
03C038
03C000
078000
078000
078000
078000
078000
078000
078000
078002
3F8006
7FFC0E
FFFFFE
FEFFFC
FE1FF8
7C07E0
ENDCHAR
STARTCHAR lacute
ENCODING 314
SWIDTH 326 0
DWIDTH 9 0
BBX 15 35 2 0
BITMAP
0008
001C
003E
007C
01F8
03E0
0380
0000
0000
0780
0F80
1FC0
1DC0
39C0
39C0
79C0
71C0
7180
7180
F380
F300
E700
E700
E600
EE00
FC00
F800
F800
F000
E060
E0E0
F1C0
7F80
7F00
3E00
ENDCHAR
STARTCHAR uni013B
ENCODING 315
SWIDTH 673 0
DWIDTH 19 0
BBX 23 32 -1 -8
BITMAP
000FC0
003FF0
007FF8
00F878
01E038
03E03C
03C03C
03C038
03C038
03C000
078000
078000
078000
078000
078000
078000
078000
078002
3F8006
7FFC0E
FFFFFE
FEFFFC
FE1FF8
7C07E0
000000
000000
006000
00F000
00E000
00E000
00E000
00C000
ENDCHAR
STARTCHAR uni013C
ENCODING 316
SWIDTH 326 0
DWIDTH 9 0
BBX 11 35 2 -9
BITMAP
0780
0F80
1FC0
1DC0
39C0
39C0
79C0
71C0
7180
7180
F380
F300
E700
E700
E600
EE00
FC00
F800
F800
F000
E060
E0E0
F1C0
7F80
7F00
3E00
0000
0000
3000
7800
7000
7000
7000
7000
6000
ENDCHAR
STARTCHAR Lcaron
ENCODING 317
SWIDTH 673 0
DWIDTH 19 0
BBX 26 24 -1 0
BITMAP
000FC000
003FF1C0
007FF9C0
00F879C0
01E03980
03E03F80
03C03D80
03C03800
03C03800
03C00000
07800000
07800000
07800000
07800000
07800000
07800000
07800000
07800200
3F800600
7FFC0E00
FFFFFE00
FEFFFC00
FE1FF800
7C07E000
ENDCHAR
STARTCHAR lcaron
ENCODING 318
SWIDTH 237 0
DWIDTH 7 0
BBX 11 25 1 0
BITMAP
00E0
00E0
0EE0
1EE0
1EC0
1EC0
1C00
3C00
3C00
3C00
3800
3800
7800
7800
7000
7000
7000
F000
F080
F180
F380
F780
FF00
7E00
3C00
ENDCHAR
STARTCHAR Ldot
ENCODING 319
SWIDTH 673 0
DWIDTH 19 0
BBX 23 24 -1 0
BITMAP
000FC0
003FF0
007FF8
00F878
01E038
03E03C
03C03C
03C038
03C038
03C000
078000
078700
078F80
078F80
078700
078000
078000
078002
3F8006
7FFC0E
FFFFFE
FEFFFC
FE1FF8
7C07E0
ENDCHAR
STARTCHAR ldot
ENCODING 320
SWIDTH 363 0
DWIDTH 10 0
BBX 13 26 1 0
BITMAP
0700
0F00
0F00
1E00
1E00
1E00
1E00
1C00
3C00
3C00
3C00
39C0
7BC0
7BC0
7BC0
7000
7000
7000
F000
F000
F018
F038
78F0
7FE0
3FC0
1F00
ENDCHAR
STARTCHAR Lslash
ENCODING 321
SWIDTH 673 0
DWIDTH 19 0
BBX 23 28 -1 0
BITMAP
0007F8
007FFC
00FFFC
00F800
008000
000FC0
003FF0
00FFF8
00F878
01E038
03E03C
03C03C
03C038
03C038
07C000
078000
078000
078000
078000
078000
078000
078002
3F8006
7FFC0E
FFFFFE
FEFFFC
FE1FF8
7C07E0
ENDCHAR
STARTCHAR lslash
ENCODING 322
SWIDTH 326 0
DWIDTH 9 0
BBX 15 28 2 0
BITMAP
03F8
1FFE
3FFE
3C00
0780
0F80
1FC0
3DC0
39C0
79C0
71C0
71C0
F180
F380
E380
E700
E700
EE00
EC00
FC00
F800
F000
E060
E0E0
F1C0
7F80
7F00
3E00
ENDCHAR
STARTCHAR Nacute
ENCODING 323
SWIDTH 884 0
DWIDTH 25 0
BBX 28 33 0 0
BITMAP
00000400
00001E00
00003E00
00007C00
0000F800
0001E000
00018000
00000000
00000000
0780F800
1FC3FC00
3FC7FE00
79CF1E00
E1CC1E00
C1D81E00
C1D81E00
03F01E00
03F01E00
03E03E00
03E03C00
03E03C00
03C03C00
03C03C00
07C07800
07C07800
07807800
07807800
07807810
07807830
07807CF0
07807FE0
07003FC0
07001F00
ENDCHAR
STARTCHAR nacute
ENCODING 324
SWIDTH 496 0
DWIDTH 14 0
BBX 17 24 1 0
BITMAP
001000
003800
007800
007800
00F000
00E000
01C000
01C000
018000
000000
000000
38F000
79F000
7BF000
77F000
76F000
7EE000
FCE000
F8E180
F9E300
F9E700
71FE00
70FC00
70F800
ENDCHAR
STARTCHAR uni0145
ENCODING 325
SWIDTH 884 0
DWIDTH 25 0
BBX 28 32 0 -8
BITMAP
0780F800
1FC3FC00
3FC7FE00
79CF1E00
E1CC1E00
C1D81E00
C1D81E00
03F01E00
03F01E00
03E03E00
03E03C00
03E03C00
03C03C00
03C03C00
07C07800
07C07800
07807800
07807800
07807810
07807830
07807CF0
07807FE0
07003FC0
07001F00
00000000
00000000
00180000
003C0000
00380000
00380000
00380000
00300000
ENDCHAR
STARTCHAR uni0146
ENCODING 326
SWIDTH 496 0
DWIDTH 14 0
BBX 17 22 1 -9
BITMAP
38F000
79F000
7BF000
77F000
76F000
7EE000
FCE000
F8E180
F9E300
F9E700
71FE00
70FC00
70F800
000000
000000
0E0000
0E0000
0E0000
0E0000
0C0000
0C0000
0C0000
ENDCHAR
STARTCHAR Ncaron
ENCODING 327
SWIDTH 884 0
DWIDTH 25 0
BBX 28 33 0 0
BITMAP
000C1800
000E3800
000E7000
00077000
0007E000
0003C000
00038000
00000000
00000000
0780F800
1FC3FC00
3FC7FE00
79CF1E00
E1CC1E00
C1D81E00
C1D81E00
03F01E00
03F01E00
03E03E00
03E03C00
03E03C00
03C03C00
03C03C00
07C07800
07C07800
07807800
07807800
07807810
07807830
07807CF0
07807FE0
07003FC0
07001F00
ENDCHAR
STARTCHAR ncaron
ENCODING 328
SWIDTH 496 0
DWIDTH 14 0
BBX 17 24 1 0
BITMAP
061C00
0E3C00
073800
077800
077000
07E000
03E000
03C000
038000
000000
000000
38F000
79F000
7BF000
77F000
76F000
7EE000
FCE000
F8E180
F9E300
F9E700
71FE00
70FC00
70F800
ENDCHAR
STARTCHAR napostrophe
ENCODING 329
SWIDTH 496 0
DWIDTH 14 0
BBX 18 22 0 0
BITMAP
600000
E00000
E00000
E00000
E00000
C00000
C00000
000000
000000
1C7800
3CF800
3DF800
3BF800
3B7800
3F7000
7E7000
7C70C0
7CF180
7CF380
38FF00
387E00
387C00
ENDCHAR
STARTCHAR Eng
ENCODING 330
SWIDTH 884 0
DWIDTH 25 0
BBX 28 34 0 -10
BITMAP
0780F800
1FC3FC00
3FC7FE00
79CF3E00
E1CC1E00
C1D81E00
C1D81E00
03F01E00
03F01E00
03E03C00
03E03C00
03E03C00
03C03C00
03C03C00
07C07800
07C07800
07807800
07807800
07807010
0780F030
0780F870
0780FFE0
0700FFC0
0701EF80
0001E000
0001E000
0001C000
0003C000
06038000
07078000
07870000
07FF0000
03FE0000
00F80000
ENDCHAR
STARTCHAR eng
ENCODING 331
SWIDTH 495 0
DWIDTH 14 0
BBX 16 22 1 -9
BITMAP
38F0
79F0
7BF0
77F0
76E0
7EE0
FCE0
F8E1
F9E3
F9CF
71FE
71FC
71F8
0380
0380
0380
0300
C700
E700
EE00
FC00
7800
ENDCHAR
STARTCHAR Omacron
ENCODING 332
SWIDTH 816 0
DWIDTH 23 0
BBX 20 29 2 0
BITMAP
00FF00
01FF00
01FF00
000000
000000
00FE00
03FF80
07FFC0
0F87E0
1E01E0
3C01F0
7C00F0
7800F0
7800F0
F000F0
F000F0
F000F0
F000F0
F000F0
F000F0
F001E0
F001E0
F003E0
F803C0
7C0780
3E1F80
3FFF00
0FFC00
07F000
ENDCHAR
STARTCHAR omacron
ENCODING 333
SWIDTH 451 0
DWIDTH 13 0
BBX 15 18 1 0
BITMAP
3FE0
3FE0
3FE0
0000
0000
0F00
3FC0
7FC0
7BE0
F3E2
F3FE
E1FE
E0FC
F0E0
F1C0
7FC0
7F80
1F00
ENDCHAR
STARTCHAR Obreve
ENCODING 334
SWIDTH 816 0
DWIDTH 23 0
BBX 20 31 2 0
BITMAP
0181C0
03C3C0
01FF80
01FF80
007E00
000000
000000
00FE00
03FF80
07FFC0
0F87E0
1E01E0
3C01F0
7C00F0
7800F0
7800F0
F000F0
F000F0
F000F0
F000F0
F000F0
F000F0
F001E0
F001E0
F003E0
F803C0
7C0780
3E1F80
3FFF00
0FFC00
07F000
ENDCHAR
STARTCHAR obreve
ENCODING 335
SWIDTH 451 0
DWIDTH 13 0
BBX 15 21 1 0
BITMAP
7030
7070
78F0
3FF0
3FE0
0F80
0000
0000
0F00
3FC0
7FC0
7BE0
F3E2
F3FE
E1FE
E0FC
F0E0
F1C0
7FC0
7F80
1F00
ENDCHAR
STARTCHAR Ohungarumlaut
ENCODING 336
SWIDTH 816 0
DWIDTH 23 0
BBX 20 33 2 0
BITMAP
002100
0073C0
007BC0
007380
007380
00E700
00C600
000000
000000
00FE00
03FF80
07FFC0
0F87E0
1E01E0
3C01F0
7C00F0
7800F0
7800F0
F000F0
F000F0
F000F0
F000F0
F000F0
F000F0
F001E0
F001E0
F003E0
F803C0
7C0780
3E1F80
3FFF00
0FFC00
07F000
ENDCHAR
STARTCHAR ohungarumlaut
ENCODING 337
SWIDTH 451 0
DWIDTH 13 0
BBX 15 24 1 0
BITMAP
0210
0738
0F38
0F78
0E70
0E70
1CE0
18C0
18C0
0000
0000
0F00
3FC0
7FC0
7BE0
F3E2
F3FE
E1FE
E0FC
F0E0
F1C0
7FC0
7F80
1F00
ENDCHAR
STARTCHAR OE
ENCODING 338
SWIDTH 1124 0
DWIDTH 31 0
BBX 33 24 2 0
BITMAP
00FC07FE00
03FF0FFE00
07FF9FFE00
0F87DFFE00
1E01FC0000
3C01FC0000
7C00FC0000
7800FC0000
7800F80000
F000F80000
F000F80000
F000FFF800
F000FFF800
F000FFF800
F000F00000
F001F00000
F001F00000
F003F00000
F803F00000
7C07F80180
3E1F7C0F80
3FFE3FFF00
0FFC1FFE00
07F007F000
ENDCHAR
STARTCHAR oe
ENCODING 339
SWIDTH 668 0
DWIDTH 19 0
BBX 21 13 1 0
BITMAP
0F0F00
3FBF80
7FFF80
79F3C0
F1F380
F0E380
E0EF00
E0FE18
F1F838
F3F0F8
7FFFF0
7F3FE0
1E1F80
ENDCHAR
STARTCHAR Racute
ENCODING 340
SWIDTH 880 0
DWIDTH 25 0
BBX 26 33 2 0
BITMAP
00002000
0000F000
0001F000
0003E000
0007C000
000F0000
001C0000
00000000
00000000
007F0000
03FFC000
07FFE000
0F83F000
1E00F000
3C60F800
78F0F800
70F0F800
70F0F000
E1E0F000
E1E1E000
E1E7C000
E7FF8000
E7FE0000
E7FF0000
E3CF8000
E3C78000
E3C7C000
E3C3C0C0
E3C3E0C0
77C1F3C0
7F81FF80
3F80FF00
0F007C00
ENDCHAR
STARTCHAR racute
ENCODING 341
SWIDTH 455 0
DWIDTH 13 0
BBX 16 24 1 0
BITMAP
0020
0070
0070
00F0
00E0
01C0
01C0
0380
0300
0000
0000
38E0
79F0
7BF0
77F0
76E2
7EF7
FCFF
F8FE
F878
F800
7000
7000
7000
ENDCHAR
STARTCHAR uni0156
ENCODING 342
SWIDTH 880 0
DWIDTH 25 0
BBX 26 32 2 -8
BITMAP
007F0000
03FFC000
07FFE000
0F83F000
1E00F000
3C60F800
78F0F800
70F0F800
70F0F000
E1E0F000
E1E1E000
E1E7C000
E7FF8000
E7FE0000
E7FF0000
E3CF8000
E3C78000
E3C7C000
E3C3C0C0
E3C3E0C0
77C1F3C0
7F81FF80
3F80FF00
0F007C00
00000000
00000000
00380000
00380000
00380000
00380000
00380000
00300000
ENDCHAR
STARTCHAR uni0157
ENCODING 343
SWIDTH 455 0
DWIDTH 13 0
BBX 16 22 1 -9
BITMAP
38E0
79F0
7BF0
77F0
76E2
7EF7
FCFF
F8FE
F878
F800
7000
7000
7000
0000
0000
6000
F000
F000
E000
E000
E000
C000
ENDCHAR
STARTCHAR Rcaron
ENCODING 344
SWIDTH 880 0
DWIDTH 25 0
BBX 26 33 2 0
BITMAP
0061C000
0071C000
00738000
00778000
003F0000
003E0000
001C0000
00000000
00000000
007F0000
03FFC000
07FFE000
0F83F000
1E00F000
3C60F800
78F0F800
70F0F800
70F0F000
E1E0F000
E1E1E000
E1E7C000
E7FF8000
E7FE0000
E7FF0000
E3CF8000
E3C78000
E3C7C000
E3C3C0C0
E3C3E0C0
77C1F3C0
7F81FF80
3F80FF00
0F007C00
ENDCHAR
STARTCHAR rcaron
ENCODING 345
SWIDTH 455 0
DWIDTH 13 0
BBX 16 24 1 0
BITMAP
0C18
0E38
0E78
0E70
0EE0
06E0
07C0
07C0
0380
0000
0000
38E0
79F0
7BF0
77F0
76E2
7EF7
FCFF
F8FE
F878
F800
7000
7000
7000
ENDCHAR
STARTCHAR Sacute
ENCODING 346
SWIDTH 693 0
DWIDTH 19 0
BBX 18 33 1 0
BITMAP
000080
0001C0
0003C0
000FC0
001F00
003C00
003000
000000
000000
01FC00
07FF00
0FFF80
1F07C0
3C01C0
3C01C0
3C01C0
3C01C0
3E01C0
3F0000
1FC000
0FF800
03FE00
00FF00
003F80
600F80
F00780
F00780
F00780
F00780
F81F00
7FFF00
3FFC00
0FF000
ENDCHAR
STARTCHAR sacute
ENCODING 347
SWIDTH 427 0
DWIDTH 12 0
BBX 16 25 0 -1
BITMAP
0020
0070
0078
00F0
00E0
01E0
01C0
0380
0100
0000
0000
0380
0780
0700
0F00
0F00
1F80
1FC0
3BC2
71E7
E1EE
EFFE
CFFC
0FF0
0780
ENDCHAR
STARTCHAR Scircumflex
ENCODING 348
SWIDTH 693 0
DWIDTH 19 0
BBX 18 34 1 0
BITMAP
000800
003C00
007E00
00EE00
00EE00
01C700
03C700
018700
000000
000000
01FC00
07FF00
0FFF80
1F07C0
3C01C0
3C01C0
3C01C0
3C01C0
3E01C0
3F0000
1FC000
0FF800
03FE00
00FF00
003F80
600F80
F00780
F00780
F00780
F00780
F81F00
7FFF00
3FFC00
0FF000
ENDCHAR
STARTCHAR scircumflex
ENCODING 349
SWIDTH 427 0
DWIDTH 12 0
BBX 16 25 0 -1
BITMAP
01C0
03E0
03E0
07E0
0E60
0E70
1C70
1C70
1870
0000
0000
0380
0780
0700
0F00
0F00
1F80
1FC0
3BC2
71E7
E1EE
EFFE
CFFC
0FF0
0780
ENDCHAR
STARTCHAR Scedilla
ENCODING 350
SWIDTH 693 0
DWIDTH 19 0
BBX 18 31 1 -7
BITMAP
01FC00
07FF00
0FFF80
1F07C0
3C01C0
3C01C0
3C01C0
3C01C0
3E01C0
3F0000
1FC000
0FF800
03FE00
00FF00
003F80
600F80
F00780
F00780
F00780
F00780
F81F80
7FFF00
3FFE00
0FF000
07E000
00E000
00E000
00E000
1FE000
1FC000
0F8000
ENDCHAR
STARTCHAR scedilla
ENCODING 351
SWIDTH 427 0
DWIDTH 12 0
BBX 16 20 0 -7
BITMAP
0380
0780
0700
0F00
0F00
1F80
1FC0
3BC2
71E7
E1EE
EFFE
CFFC
0FF0
1F80
03C0
01C0
01C0
3F80
3F80
3E00
ENDCHAR
STARTCHAR Scaron
ENCODING 352
SWIDTH 693 0
DWIDTH 19 0
BBX 18 33 1 0
BITMAP
01C300
01C780
00E700
00EE00
007C00
007C00
003800
000000
000000
01FC00
07FF00
0FFF80
1F07C0
3C01C0
3C01C0
3C01C0
3C01C0
3E01C0
3F0000
1FC000
0FF800
03FE00
00FF00
003F80
600F80
F00780
F00780
F00780
F00780
F81F00
7FFF00
3FFC00
0FF000
ENDCHAR
STARTCHAR scaron
ENCODING 353
SWIDTH 427 0
DWIDTH 12 0
BBX 16 25 0 -1
BITMAP
0E18
0E38
0E38
0E70
0670
07E0
07C0
07C0
0380
0000
0000
0380
0780
0700
0F00
0F00
1F80
1FC0
3BC2
71E7
E1EE
EFFE
CFFC
0FF0
0780
ENDCHAR
STARTCHAR uni0162
ENCODING 354
SWIDTH 697 0
DWIDTH 20 0
BBX 24 30 1 -6
BITMAP
01FFFE
1FFFFF
3FFFFF
7C3C00
F03C00
E03C00
E03C00
F03C00
F07800
607800
007800
007800
007800
007800
00F000
00F000
00F000
00F000
00F000
00F000
01F000
01F000
03E000
03F000
007000
003800
007000
0FF000
0FE000
07C000
ENDCHAR
STARTCHAR uni0163
ENCODING 355
SWIDTH 393 0
DWIDTH 11 0
BBX 15 32 0 -8
BITMAP
00E0
01F0
03F0
0770
0730
0E70
0E70
0E60
1EE0
1DC0
1F80
FFF8
FFF0
FFF0
3C00
3C00
3C00
3C00
1C04
1C0E
1E1C
1F7C
0FF8
07F0
1FC0
0FC0
01C0
01C0
01C0
3F80
3F80
3E00
ENDCHAR
STARTCHAR Tcaron
ENCODING 356
SWIDTH 697 0
DWIDTH 20 0
BBX 24 33 1 0
BITMAP
0030E0
0071E0
0039C0
003B80
001F80
001F00
000E00
000000
000000
01FFFE
0FFFFF
3FFFFF
7C3C00
F03C00
E03C00
E03C00
F03C00
F07800
607800
007800
007800
007800
007800
00F000
00F000
00F000
00F000
00F000
00F000
00F000
01F000
01E000
00E000
ENDCHAR
STARTCHAR tcaron
ENCODING 357
SWIDTH 343 0
DWIDTH 10 0
BBX 13 25 0 0
BITMAP
0038
0038
0038
0230
0730
0F70
0F00
0F00
0E00
1E00
1E00
7FE0
FFE0
7FC0
3C00
3C00
3C00
3C00
3800
3818
3C38
3C78
3FF0
1FE0
0F80
ENDCHAR
STARTCHAR Tbar
ENCODING 358
SWIDTH 697 0
DWIDTH 20 0
BBX 24 24 1 0
BITMAP
01FFFE
0FFFFF
3FFFFF
7C3C00
F03C00
E03C00
E03C00
E03C00
F07800
707800
007800
07FF80
0FFFC0
0FFF80
00F800
00F000
00F000
00F000
00F000
00F000
00F000
01F000
01E000
00E000
ENDCHAR
STARTCHAR tbar
ENCODING 359
SWIDTH 343 0
DWIDTH 10 0
BBX 13 22 0 0
BITMAP
0200
0700
0F00
0F00
0F00
0E00
1E00
1E00
7FE0
FFE0
7FC0
3C00
3C00
FFC0
FFC0
FF80
3818
3C38
3C78
3FF0
1FE0
0F80
ENDCHAR
STARTCHAR Utilde
ENCODING 360
SWIDTH 890 0
DWIDTH 25 0
BBX 29 32 0 0
BITMAP
00040000
001E1C00
003FBC00
003FF800
0071F800
0020F000
00000000
00000000
07800E00
1FC00E00
3FE01E00
79E01E00
E1E01E00
E1E01E00
C1E01E00
01E01E00
03E03E00
03C03C00
03C03C00
03C03C00
03C07C00
07C07C00
07807C00
0780FC00
0780F800
0781B800
0783F810
07837838
078E7C70
07FE3FE0
03FC3FC0
01F01F80
ENDCHAR
STARTCHAR utilde
ENCODING 361
SWIDTH 462 0
DWIDTH 13 0
BBX 16 21 1 0
BITMAP
0400
1E1C
3F9C
3BF8
31F8
2070
0000
0000
3860
38E0
78E0
71E0
71E0
71C0
F3C0
F3C3
F7C7
FFCE
7DFC
7DF8
38F0
ENDCHAR
STARTCHAR Umacron
ENCODING 362
SWIDTH 890 0
DWIDTH 25 0
BBX 29 29 0 0
BITMAP
001FE000
001FF000
001FE000
00000000
00000000
07800E00
1FC00E00
3FE01E00
79E01E00
E1E01E00
E1E01E00
C1E01E00
01E01E00
03E03E00
03C03C00
03C03C00
03C03C00
03C07C00
07C07C00
07807C00
0780FC00
0780F800
0781B800
0783F810
07837838
078E7C70
07FE3FE0
03FC3FC0
01F01F80
ENDCHAR
STARTCHAR umacron
ENCODING 363
SWIDTH 462 0
DWIDTH 13 0
BBX 16 18 1 0
BITMAP
1FF0
1FF0
1FE0
0000
0000
3860
38E0
78E0
71E0
71E0
71C0
F3C0
F3C3
F7C7
FFCE
7DFC
7DF8
38F0
ENDCHAR
STARTCHAR Ubreve
ENCODING 364
SWIDTH 890 0
DWIDTH 25 0
BBX 29 31 0 0
BITMAP
00381800
00383800
003FF800
001FF000
000FC000
00000000
00000000
07800E00
1FC00E00
3FE01E00
79E01E00
E1E01E00
E1E01E00
C1E01E00
01E01E00
03E03E00
03C03C00
03C03C00
03C03C00
03C07C00
07C07C00
07807C00
0780FC00
0780F800
0781B800
0783F810
07837838
078E7C70
07FE3FE0
03FC3FC0
01F01F80
ENDCHAR
STARTCHAR ubreve
ENCODING 365
SWIDTH 462 0
DWIDTH 13 0
BBX 16 21 1 0
BITMAP
3818
3838
3C78
3FF8
1FF0
07C0
0000
0000
3860
38E0
78E0
71E0
71E0
71C0
F3C0
F3C3
F7C7
FFCE
7DFC
7DF8
38F0
ENDCHAR
STARTCHAR Uring
ENCODING 366
SWIDTH 890 0
DWIDTH 25 0
BBX 29 34 0 0
BITMAP
0003C000
0007E000
000FE000
000E6000
000C6000
000FE000
000FE000
00038000
00000000
00000000
07800E00
1FC00E00
3FE01E00
79E01E00
E1E01E00
E1E01E00
C1E01E00
01E01E00
03E03E00
03C03C00
03C03C00
03C03C00
03C07C00
07C07C00
07807C00
0780FC00
0780F800
0781B800
0783F810
07837838
078E7C70
07FE3FE0
03FC3FC0
01F01F80
ENDCHAR
STARTCHAR uring
ENCODING 367
SWIDTH 462 0
DWIDTH 13 0
BBX 16 23 1 0
BITMAP
03C0
07E0
0FE0
0E70
0E60
0FE0
07E0
0380
0000
0000
3860
38E0
78E0
71E0
71E0
71C0
F3C0
F3C3
F7C7
FFCE
7DFC
7DF8
38F0
ENDCHAR
STARTCHAR Uhungarumlaut
ENCODING 368
SWIDTH 890 0
DWIDTH 25 0
BBX 29 33 0 0
BITMAP
00021000
00073800
00073800
000F7800
000E7000
000C6000
000C6000
00000000
00000000
07800E00
1FC00E00
3FE01E00
79E01E00
E1E01E00
E1E01E00
C1E01E00
01E01E00
03E03E00
03C03C00
03C03C00
03C03C00
03C07C00
07C07C00
07807C00
0780FC00
0780F800
0781B800
0783F810
07837838
078E7C70
07FE3FE0
03FC3FC0
01F01F80
ENDCHAR
STARTCHAR uhungarumlaut
ENCODING 369
SWIDTH 462 0
DWIDTH 13 0
BBX 16 24 1 0
BITMAP
0108
039C
07BC
07BC
0738
0F38
0E70
0C60
0C60
0000
0000
3860
38E0
78E0
71E0
71E0
71C0
F3C0
F3C3
F7C7
FFCE
7DFC
7DF8
38F0
ENDCHAR
STARTCHAR Uogonek
ENCODING 370
SWIDTH 890 0
DWIDTH 25 0
BBX 29 31 0 -7
BITMAP
07800E00
1FC00E00
3FE01E00
79E01E00
E1E01E00
E1E01E00
C1E01E00
01E01E00
03E03E00
03C03C00
03C03C00
03C03C00
03C07C00
07C07C00
07807C00
0780FC00
0780F800
0781B800
0783F810
07837838
078E7C70
07FE3FE0
03FC3FC0
01F00F80
00000E00
00000E00
00001C00
00001E00
00000FE0
00000FE0
000007C0
ENDCHAR
STARTCHAR uogonek
ENCODING 371
SWIDTH 462 0
DWIDTH 13 0
BBX 16 20 1 -7
BITMAP
3860
38E0
78E0
71E0
71E0
71C0
F3C0
F3C3
F7C7
FFCE
7DFC
7DF8
38F0
01C0
0380
0380
0380
03F8
03F8
00F0
ENDCHAR
STARTCHAR Wcircumflex
ENCODING 372
SWIDTH 1217 0
DWIDTH 34 0
BBX 35 34 3 0
BITMAP
0000400000
0001F00000
0001F00000
0003B80000
0007B80000
0007380000
000E3C0000
000E180000
0000000000
0000000000
3801C03C00
7803C0FE00
7803C0FF00
7803C1CF00
7803C1CF00
7803C1CF00
7807C1CF00
7807C1CF00
F007C1CE00
F007C1CE00
F00F80FE00
F00F80FE00
F00F807FE0
F01F803FE0
F01FC03FE0
703FC07800
783BC0F000
787BC0F000
7871C1E000
7CF1E3C000
3FE1FF8000
3FE0FF0000
1F80FE0000
0F007C0000
ENDCHAR
STARTCHAR wcircumflex
ENCODING 373
SWIDTH 700 0
DWIDTH 20 0
BBX 22 24 1 0
BITMAP
007000
00F800
00F800
01D800
01DC00
039C00
079C00
071C00
060C00
000000
000000
70E1C0
F0E3C0
F1E7C0
F1E7C0
F3E7C4
F3E3FC
73E7FC
77E7F8
76EE00
7EFE00
7EFC00
7CF800
387000
ENDCHAR
STARTCHAR Ycircumflex
ENCODING 374
SWIDTH 851 0
DWIDTH 24 0
BBX 27 42 0 -8
BITMAP
00008000
0003C000
0007E000
0007E000
000E7000
001E7000
001C7000
00183000
00000000
00000000
07800E00
1FC00E00
3FE01E00
79E01E00
E1E01E00
C1E01E00
C1E01E00
01E03E00
03E03E00
03C03C00
03C03C00
03C07C00
03C07C00
0780FC00
0781FC00
0781B800
03C7B800
03FF39E0
01FE7FE0
00F8FFC0
0003FC00
000FF800
003C7000
00787000
00E0F000
01E0F000
01C0E000
01C1E000
01E3C000
01FF8000
00FF0000
007C0000
ENDCHAR
STARTCHAR ycircumflex
ENCODING 375
SWIDTH 479 0
DWIDTH 13 0
BBX 16 37 0 -13
BITMAP
00E0
01E0
03F0
03F0
0770
0730
0E38
1E38
0C38
0000
0000
1C30
1C70
3C70
38F0
38F0
38F0
79E0
79E3
7BE7
7FFF
3EFC
3EF8
1DF0
03C0
07C0
0FC0
1DC0
3B80
7380
6380
E700
E700
EF00
FE00
FC00
7800
ENDCHAR
STARTCHAR Ydieresis
ENCODING 376
SWIDTH 851 0
DWIDTH 24 0
BBX 27 38 0 -8
BITMAP
001E7000
001E7800
001E7800
001C7000
00000000
00000000
07800E00
1FC00E00
3FE01E00
79E01E00
E1E01E00
C1E01E00
C1E01E00
01E03E00
03E03E00
03C03C00
03C03C00
03C07C00
03C07C00
0780FC00
0781FC00
0781B800
03C7B800
03FF39E0
01FE7FE0
00F8FFC0
0003FC00
000FF800
003C7000
00787000
00E0F000
01E0F000
01C0E000
01C1E000
01E3C000
01FF8000
00FF0000
007C0000
ENDCHAR
STARTCHAR Zacute
ENCODING 377
SWIDTH 721 0
DWIDTH 20 0
BBX 24 33 0 0
BITMAP
000020
0000F0
0001F0
0003F0
0007C0
000F00
000C00
000000
000000
01FFC0
0FFFF8
1FFFFC
3E00FC
3C01F0
3801E0
3803E0
3803C0
3C0780
180F80
000F00
001E00
003E00
003C00
007800
00F800
01F000
01E002
3FE007
7FFC0F
7FFFFE
FF7FFC
7E1FF8
3C03F0
ENDCHAR
STARTCHAR zacute
ENCODING 378
SWIDTH 445 0
DWIDTH 12 0
BBX 14 24 2 0
BITMAP
0040
00E0
01E0
01E0
01C0
0380
0380
0700
0600
0000
0000
FFE0
FFE0
FFE0
0FC0
1F00
7C00
F800
F00C
F01C
F07C
FFF8
7FE0
1F80
ENDCHAR
STARTCHAR Zdotaccent
ENCODING 379
SWIDTH 721 0
DWIDTH 20 0
BBX 24 30 0 0
BITMAP
001E00
001F00
003E00
001E00
000000
000000
01FFC0
0FFFF8
1FFFFC
3E00FC
3C01F0
3801E0
3803E0
3803C0
3C0780
180F80
000F00
001E00
003E00
003C00
007800
00F800
01F000
01E002
3FE007
7FFC0F
7FFFFE
FF7FFC
7E1FF8
3C03F0
ENDCHAR
STARTCHAR zdotaccent
ENCODING 380
SWIDTH 445 0
DWIDTH 12 0
BBX 14 19 2 0
BITMAP
0700
0F80
0F80
0F00
0000
0000
FFE0
FFE0
FFE0
0FC0
1F00
7C00
F800
F00C
F01C
F07C
FFF8
7FE0
1F80
ENDCHAR
STARTCHAR Zcaron
ENCODING 381
SWIDTH 721 0
DWIDTH 20 0
BBX 24 33 0 0
BITMAP
0060C0
0071C0
0073C0
003B80
003F00
001E00
000C00
000000
000000
01FFC0
0FFFF8
1FFFFC
3E00FC
3C01F0
3801E0
3803E0
3803C0
3C0780
180F80
000F00
001E00
003E00
003C00
007800
00F800
01F000
01E002
3FE007
7FFC0F
7FFFFE
FF7FFC
7E1FF8
3C03F0
ENDCHAR
STARTCHAR zcaron
ENCODING 382
SWIDTH 445 0
DWIDTH 12 0
BBX 14 24 2 0
BITMAP
1870
1C70
1CE0
1CE0
1DC0
1DC0
0F80
0F00
0600
0000
0000
FFE0
FFE0
FFE0
0FC0
1F00
7C00
F800
F00C
F01C
F07C
FFF8
7FE0
1F80
ENDCHAR
STARTCHAR uni018F
ENCODING 399
SWIDTH 792 0
DWIDTH 22 0
BBX 20 24 2 0
BITMAP
01FC00
0FFF00
1FFF80
3E0FC0
3803C0
3003E0
2001E0
0001E0
0001F0
0001F0
0000F0
0001F0
7FFFE0
FFFFE0
FFFFE0
F001E0
F001E0
F003C0
F00780
780F80
7C1F00
3FFE00
1FFC00
07F000
ENDCHAR
STARTCHAR florin
ENCODING 402
SWIDTH 478 0
DWIDTH 13 0
BBX 17 29 -2 -8
BITMAP
001F80
007F80
007F80
00F000
00F000
00E000
00E000
00E000
1FFF00
1FFF00
1FFE00
01E000
01E000
01C000
01C000
01C000
03C000
03C000
03C000
03C000
03C000
038000
038000
038000
078000
0F8000
FF0000
FE0000
7C0000
ENDCHAR
STARTCHAR Ohorn
ENCODING 416
SWIDTH 816 0
DWIDTH 23 0
BBX 22 28 2 0
BITMAP
00001C
00001C
00003C
00003C
00FFF8
03FFF8
07FFE0
0F87E0
1E01E0
3C01F0
7C00F0
7800F0
7800F0
F000F0
F000F0
F000F0
F000F0
F000F0
F000F0
F001E0
F001E0
F003E0
F803C0
7C0780
3E1F80
3FFE00
0FFC00
07F000
ENDCHAR
STARTCHAR ohorn
ENCODING 417
SWIDTH 451 0
DWIDTH 13 0
BBX 15 17 1 0
BITMAP
0010
0038
0038
0038
0FF0
3FF0
7FC0
7BE0
F3E2
F3FE
E1FE
E0FC
F0E0
F1C0
7FC0
7F80
1F00
ENDCHAR
STARTCHAR Uhorn
ENCODING 431
SWIDTH 890 0
DWIDTH 25 0
BBX 29 28 0 0
BITMAP
00000060
00000070
000000F0
000001F0
07800FE0
1FC00FC0
3FE01F80
79E01E00
E1E01E00
E1E01E00
C1E01E00
01E01E00
03E03E00
03C03C00
03C03C00
03C03C00
03C07C00
07C07C00
07807C00
0780FC00
0780F800
0781B800
0783F810
07837838
078E7C70
07FE3FE0
03FC3FC0
01F01F80
ENDCHAR
STARTCHAR uhorn
ENCODING 432
SWIDTH 512 0
DWIDTH 14 0
BBX 17 17 1 0
BITMAP
000400
000E00
000E00
001E00
387C00
38F800
78F000
71E000
71E000
71C000
F3C000
F3C180
F7C380
FFC780
7DFF00
7DFC00
38F800
ENDCHAR
STARTCHAR uni01C4
ENCODING 452
SWIDTH 1531 0
DWIDTH 43 0
BBX 44 33 2 0
BITMAP
000000030E00
000000038E00
000000039C00
00000003BC00
00000001F800
00000001F000
00000000E000
000000000000
000000000000
03F8000FFE00
1FFF007FFFC0
3FFF80FFFFC0
3C0FC1F007C0
0003E1C00F80
0001E3C00F00
1E01F3C01E00
1E00F3C03E00
1E00F1C03C00
3C00F0C07800
3C00F000F800
3C00F000F000
3C00F001E000
7800F003E000
7801F003C000
7801E0078000
7801E00F8000
7803C01F0010
7807C1FE0030
780F83FFE070
F03F07FFFFF0
FFFE07FFFFE0
FFF807F0FFC0
7FC003C03F00
ENDCHAR
STARTCHAR uni01C5
ENCODING 453
SWIDTH 1191 0
DWIDTH 33 0
BBX 33 24 2 0
BITMAP
03F800E180
1FFF00E380
3FFF80E380
3C0FC0E700
0003E06700
0001E07E00
1E01F07C00
1E00F07C00
1E00F03800
3C00F00000
3C00F00000
3C00F7FF00
3C00F7FF00
7800F7FF00
7801F03E00
7801E0F800
7801E1F000
7803C3E000
7807C7C000
780F878000
F03F0F0000
FFFE0FFF00
FFF80FFF00
7FC00FFF00
ENDCHAR
STARTCHAR uni01C6
ENCODING 454
SWIDTH 895 0
DWIDTH 25 0
BBX 28 24 1 0
BITMAP
0000E180
0038E3C0
0038E380
00787700
00787700
00787E00
00787E00
00703C00
00703800
00700000
00F00000
07F3FF80
1FE7FF80
3FE7FF80
3CE03F00
79E0F800
F1E1F000
F1C3C000
F1C38030
F3C78070
F3CFC1E0
FFFFFFC0
7EF9FF80
3C70FE00
ENDCHAR
STARTCHAR uni01C7
ENCODING 455
SWIDTH 1276 0
DWIDTH 36 0
BBX 37 27 -1 -3
BITMAP
000F801FE0
003FE07FF8
00FFF1FFF8
00F0F1E0F8
01E073C0F0
03E07380F0
03C07380F0
03C0F381E0
03C073C1E0
03C001C1E0
07800001E0
07800003E0
0780000FE0
0780003FC0
078000FFC0
078001F3C0
078003E3C0
078007C380
3F80078780
7FFC0F0780
FFFFFF0700
FEFFFF0F00
FE1FFF0E00
7C07EF1E00
00000FFC00
000007F800
000003E000
ENDCHAR
STARTCHAR uni01C8
ENCODING 456
SWIDTH 927 0
DWIDTH 26 0
BBX 30 37 -1 -13
BITMAP
000FC000
003FF000
007FF800
00F87800
01E03800
03E03DC0
03C03FE0
03C03BE0
03C03BC0
03C01000
07800000
078001C0
078003C0
078003C0
07800380
07800380
07800380
07800384
3F80079C
7FFC0FBC
FFFFFFF8
FEFFFFF0
FE1FFFC0
7C07E780
00000F00
00003F00
00007E00
0000FE00
0000EE00
0001CE00
00039C00
00039C00
00031C00
00073800
0003F800
0003F000
0001E000
ENDCHAR
STARTCHAR uni01C9
ENCODING 457
SWIDTH 610 0
DWIDTH 17 0
BBX 18 39 2 -13
BITMAP
078000
0F8000
1FC000
1DC000
39C000
39C000
79C000
71DC00
71BE00
71BE00
F39C00
F30000
E70000
E71C00
EE3C00
EE3C00
FC3C00
F83800
F83800
F03800
E078C0
E0FBC0
F1FFC0
7FFF00
7F7E00
3E7800
00F000
01F000
03F000
07E000
0EE000
1CE000
39E000
39C000
31C000
3B8000
3F8000
3F0000
1E0000
ENDCHAR
STARTCHAR uni01CA
ENCODING 458
SWIDTH 1497 0
DWIDTH 42 0
BBX 43 27 0 -3
BITMAP
0780F801FF80
1FC3FC0FFFC0
3FC7FE1FFFE0
79CF1E3E0780
E1CC1E780780
C1D81E780780
C1D81E700780
03F01E780780
03F01E780700
03E03E380F00
03E03C000F00
03E03C001F00
03C03C007F00
03C03C00FF00
07C07803FE00
07C07807DE00
0780780F1E00
0780781E1E00
0780783C1C00
078078383C00
07807CF83800
07807FF87800
07003FF87800
07001FF8F000
0000003FE000
0000003FC000
0000000F0000
ENDCHAR
STARTCHAR uni01CB
ENCODING 459
SWIDTH 1138 0
DWIDTH 32 0
BBX 35 37 0 -13
BITMAP
0780F80000
1FC3FC0000
3FC7FE0000
79CF1E0000
F1CC1E0000
E1D81E0E00
C1D81E1F00
03F01E1F00
03F01E1E00
03E03E0000
03E03C0000
03E03C0C00
03C03C1E00
03C03C1C00
07C0781C00
07C0781C00
0780781C00
0780781C00
0780783C60
0780783CE0
07807C7FE0
07807FFF80
07003FFF00
07001FBC00
0000007800
000000F800
000001F000
000003F000
0000077000
00000E7000
00001CE000
000018E000
000019E000
000039C000
00003FC000
00001F8000
00000F0000
ENDCHAR
STARTCHAR uni01CC
ENCODING 460
SWIDTH 750 0
DWIDTH 21 0
BBX 23 32 1 -13
BITMAP
0000E0
0001F0
0001F0
0001E0
000000
000000
38F0E0
79F1E0
7BF1E0
77F1C0
76F1C0
7EE1C0
FCE1C0
F8E1C6
F9E3DE
F9E7FC
71FFF8
70FFF0
70F3C0
000780
000F80
001F80
003F00
007700
00E700
01CE00
01CE00
018E00
019C00
01FC00
01F800
00F000
ENDCHAR
STARTCHAR Gcaron
ENCODING 486
SWIDTH 811 0
DWIDTH 23 0
BBX 24 46 2 -13
BITMAP
00E180
00E3C0
00F380
007700
007E00
003E00
001C00
000000
000000
00FE00
03FF80
07FF80
0F83C0
1E03C0
3C01C0
7C01C0
7803C0
7803C0
F00180
F00000
F00000
F00000
F00000
F01FE0
F01FE0
F01FE0
F801E0
7801E2
7C01E7
3F03DF
1FFFFC
0FFFF8
01FDE0
0003C0
000FC0
001F80
003B80
007380
007780
00E700
00C700
01CE00
01CE00
01FC00
00FC00
007000
ENDCHAR
STARTCHAR gcaron
ENCODING 487
SWIDTH 479 0
DWIDTH 13 0
BBX 16 37 0 -13
BITMAP
070C
071E
071C
03B8
03B8
03F0
03F0
01E0
01C0
0000
0000
0380
0FF0
1FF0
1E70
3CF0
78F0
78E0
78E3
79E7
79FF
7FFE
3EF8
1DF0
03C0
07C0
0FC0
1DC0
3B80
7380
7380
E700
E700
EF00
FE00
FC00
7800
ENDCHAR
STARTCHAR uni01EA
ENCODING 490
SWIDTH 816 0
DWIDTH 23 0
BBX 20 31 2 -7
BITMAP
00FE00
03FF80
07FFC0
1F87E0
1E01E0
3C01F0
7C00F0
7800F0
7800F0
F000F0
F000F0
F000F0
F000F0
F000F0
F000F0
F001E0
F001E0
F803E0
7807C0
7C0F80
3FFF00
1FFE00
0FFC00
01E000
01C000
01C000
01C000
01C000
01FC00
00FC00
003000
ENDCHAR
STARTCHAR uni01EB
ENCODING 491
SWIDTH 451 0
DWIDTH 13 0
BBX 15 20 1 -7
BITMAP
0F00
3FC0
7FC0
7BE0
F3E2
F3FE
E1FE
E0FC
F0E0
F1C0
7FC0
7F80
1F00
1E00
1C00
1800
3800
1FC0
1FC0
0F80
ENDCHAR
STARTCHAR Aringacute
ENCODING 506
SWIDTH 786 0
DWIDTH 22 0
BBX 25 36 2 0
BITMAP
00000180
00000780
00038F80
000FDC00
000FE000
000CE000
001C6000
000CE000
000FE000
000FC000
00078000
00000000
001FF000
00FFFC00
03FFF800
07E03000
0F800000
1F01C000
3E03E000
3C03C000
7803C000
7803C000
F803C000
F0078000
F0078000
F0078000
F0078000
F00F8000
F00F8000
F01F8000
F01F8300
F83F8700
7C778E00
7FE7FC00
3FE3F800
0F81F000
ENDCHAR
STARTCHAR aringacute
ENCODING 507
SWIDTH 470 0
DWIDTH 13 0
BBX 17 26 1 0
BITMAP
000100
000380
000780
03C780
07EE00
07F000
0E7000
0E7000
07F000
07E000
03C000
000000
000000
070000
1FE000
3FE000
3CE000
79E000
F1E000
F1C000
F1C300
F3C700
F3CE00
FFFE00
7EFC00
3C7000
ENDCHAR
STARTCHAR AEacute
ENCODING 508
SWIDTH 1015 0
DWIDTH 28 0
BBX 30 33 2 0
BITMAP
00000100
00000380
00000F80
00001F80
00003E00
00007800
00006000
00000000
00000000
003C7FF0
00FEFFF0
03FEFFF0
07F0E000
0FC1E000
1F01E000
3E01E000
3C01E000
7C03C000
7803C000
F803C000
F007FFC0
F007FFC0
F007FFC0
F0078000
F00F8000
F00F8000
F01F8000
F01F8000
F83FC00C
7C7BE07C
7FF1FFF8
3FE0FFF0
0F803F80
ENDCHAR
STARTCHAR aeacute
ENCODING 509
SWIDTH 653 0
DWIDTH 18 0
BBX 21 24 1 0
BITMAP
000200
000700
000700
000F00
000E00
001C00
001C00
003800
003000
000000
000000
079F00
1FFF80
3FFF80
7CF380
78E380
F1E780
F1EF00
F1FE18
F1F038
F3F0F0
FFFFF0
7E7FC0
3C1F00
ENDCHAR
STARTCHAR Oslashacute
ENCODING 510
SWIDTH 816 0
DWIDTH 23 0
BBX 20 36 2 -3
BITMAP
000200
000700
000F00
003F00
007C00
00F000
00C000
000E00
000E00
00FE00
03FF80
07FFC0
0F9FE0
1E3DE0
3C39F0
7C38F0
7838F0
7870F0
F070F0
F070F0
F070F0
F0E0F0
F0E0F0
F0E0F0
F0E1E0
F1C1E0
F1C1E0
F9C3C0
7DC780
7F9F80
3FFF00
1FFC00
07F000
070000
070000
070000
ENDCHAR
STARTCHAR oslashacute
ENCODING 511
SWIDTH 459 0
DWIDTH 13 0
BBX 16 27 1 -3
BITMAP
0100
0380
0780
0780
0F00
0E00
1C00
1D00
1B00
0300
0300
0F00
3FC0
7FE0
77E0
F6E2
E6FF
E6FF
E6FC
FCE0
FDE0
7FC0
7F80
1F00
1800
1800
1800
ENDCHAR
STARTCHAR uni0200
ENCODING 512
SWIDTH 786 0
DWIDTH 22 0
BBX 24 33 2 0
BITMAP
002100
007380
0073C0
007BC0
0039C0
0018E0
0018C0
000000
000000
001FF0
00FFFC
03FFF8
07E030
0F8000
1F01C0
3E03E0
3C03C0
7803C0
7803C0
F803C0
F00780
F00780
F00780
F00780
F00F80
F00F80
F01F80
F01F83
F83F87
7C778E
7FE7FC
3FE3F8
0F81F0
ENDCHAR
STARTCHAR uni0201
ENCODING 513
SWIDTH 470 0
DWIDTH 13 0
BBX 16 24 1 0
BITMAP
2100
7380
7BC0
7BC0
39C0
38E0
1CE0
0C60
0C60
0000
0000
0700
1FE0
3FE0
3CE0
79E0
F1E0
F1C0
F1C3
F3C7
F3CE
FFFE
7EFC
3C70
ENDCHAR
STARTCHAR uni0202
ENCODING 514
SWIDTH 786 0
DWIDTH 22 0
BBX 24 31 2 0
BITMAP
0007C0
001FF0
003FF8
003878
007038
000000
000000
001FF0
00FFFC
03FFF8
07E030
0F8000
1F01C0
3E03E0
3C03C0
7803C0
7803C0
F803C0
F00780
F00780
F00780
F00780
F00F80
F00F80
F01F80
F01F83
F83F87
7C778E
7FE7FC
3FE3F8
0F81F0
ENDCHAR
STARTCHAR uni0203
ENCODING 515
SWIDTH 470 0
DWIDTH 13 0
BBX 16 21 1 0
BITMAP
03E0
0FF0
1FF8
1C3C
3C3C
381C
0000
0000
0700
1FE0
3FE0
3CE0
79E0
F1E0
F1C0
F1C3
F3C7
F3CE
FFFE
7EFC
3C70
ENDCHAR
STARTCHAR uni0204
ENCODING 516
SWIDTH 686 0
DWIDTH 19 0
BBX 22 33 1 0
BITMAP
008400
01CE00
03CE00
01CE00
00E700
00E700
006300
000000
000000
00FE00
03FF80
07FFC0
0F83E0
1F01E0
1E01E0
1E01E0
1E01E0
1E01C0
1F0000
0FF000
07F000
1FF000
3E0000
780000
F80000
F00000
F00000
F00000
F8001C
7E01FC
7FFFF8
1FFFF0
03FF00
ENDCHAR
STARTCHAR uni0205
ENCODING 517
SWIDTH 393 0
DWIDTH 11 0
BBX 14 24 1 0
BITMAP
4200
E700
E700
F780
7380
7380
39C0
38C0
18C0
0000
0000
0F00
3F80
7FC0
79C0
F1C0
E380
E780
FE0C
F83C
F078
7FF0
3FE0
1F80
ENDCHAR
STARTCHAR uni0206
ENCODING 518
SWIDTH 686 0
DWIDTH 19 0
BBX 22 31 1 0
BITMAP
003F00
00FF80
00FFC0
01E1C0
01C1E0
000000
000000
00FE00
03FF80
07FFC0
0F83E0
1F01E0
1E01E0
1E01E0
1E01E0
1E01C0
1F0000
0FF000
07F000
1FF000
3E0000
780000
F80000
F00000
F00000
F00000
F8001C
7E01FC
7FFFF8
1FFFF0
03FF00
ENDCHAR
STARTCHAR uni0207
ENCODING 519
SWIDTH 393 0
DWIDTH 11 0
BBX 14 21 1 0
BITMAP
0FC0
1FE0
3FF0
78F0
7078
7030
0000
0000
0F00
3F80
7FC0
79C0
F1C0
E380
E780
FE0C
F83C
F078
7FF0
3FE0
1F80
ENDCHAR
STARTCHAR uni0208
ENCODING 520
SWIDTH 495 0
DWIDTH 14 0
BBX 16 33 0 0
BITMAP
0420
0E70
0E70
0F78
0738
0318
0318
0000
0000
1FFE
1FFF
1FFE
01E0
01E0
01E0
03C0
03C0
03C0
03C0
03C0
03C0
0380
0780
0780
0780
0780
0780
0780
0F00
0F00
FFF0
FFF0
FFF0
ENDCHAR
STARTCHAR uni0209
ENCODING 521
SWIDTH 246 0
DWIDTH 7 0
BBX 13 24 -2 0
BITMAP
4200
E700
F780
F780
7380
39C0
39C0
18C0
18C0
0000
0000
0700
0F00
0F00
0F00
0E00
0E00
1E00
1E18
1E30
1E70
0FE0
0FC0
0780
ENDCHAR
STARTCHAR uni020A
ENCODING 522
SWIDTH 495 0
DWIDTH 14 0
BBX 16 31 0 0
BITMAP
00F8
03FE
07FE
0F0F
0E07
0000
0000
1FFE
1FFF
1FFE
01E0
01E0
01E0
03C0
03C0
03C0
03C0
03C0
03C0
0380
0780
0780
0780
0780
0780
0780
0F00
0F00
FFF0
FFF0
FFF0
ENDCHAR
STARTCHAR uni020B
ENCODING 523
SWIDTH 246 0
DWIDTH 7 0
BBX 12 21 -1 0
BITMAP
0F80
3FC0
7FE0
78F0
F0F0
E070
0000
0000
0E00
1E00
1E00
1E00
1C00
1C00
3C00
3C30
3C60
3CE0
1FC0
1F80
0F00
ENDCHAR
STARTCHAR uni020C
ENCODING 524
SWIDTH 816 0
DWIDTH 23 0
BBX 20 33 2 0
BITMAP
010800
039C00
039C00
03DE00
01CE00
00C600
00C600
000000
000000
00FE00
03FF80
07FFC0
0F87E0
1E01E0
3C01F0
7C00F0
7800F0
7800F0
F000F0
F000F0
F000F0
F000F0
F000F0
F000F0
F001E0
F001E0
F003E0
F803C0
7C0780
3E1F80
3FFF00
0FFC00
07F000
ENDCHAR
STARTCHAR uni020D
ENCODING 525
SWIDTH 451 0
DWIDTH 13 0
BBX 15 24 1 0
BITMAP
4200
E700
E700
F780
7380
7380
39C0
39C0
18C0
0000
0000
0F00
3FC0
7FC0
7BE0
F3E2
F3FE
E1FE
E0FC
F0E0
F1C0
7FC0
7F80
1F00
ENDCHAR
STARTCHAR uni020E
ENCODING 526
SWIDTH 816 0
DWIDTH 23 0
BBX 20 31 2 0
BITMAP
003E00
00FF80
01FF80
03C3C0
0381C0
000000
000000
00FE00
03FF80
07FFC0
0F87E0
1E01E0
3C01F0
7C00F0
7800F0
7800F0
F000F0
F000F0
F000F0
F000F0
F000F0
F000F0
F001E0
F001E0
F003E0
F803C0
7C0780
3E1F80
3FFF00
0FFC00
07F000
ENDCHAR
STARTCHAR uni020F
ENCODING 527
SWIDTH 451 0
DWIDTH 13 0
BBX 15 21 1 0
BITMAP
0FC0
1FE0
3FF0
78F0
7070
7030
0000
0000
0F00
3FC0
7FC0
7BE0
F3E2
F3FE
E1FE
E0FC
F0E0
F1C0
7FC0
7F80
1F00
ENDCHAR
STARTCHAR uni0210
ENCODING 528
SWIDTH 880 0
DWIDTH 25 0
BBX 26 33 2 0
BITMAP
00840000
01CE0000
01CE0000
01EF0000
00E70000
00E30000
00630000
00000000
00000000
007F0000
03FFC000
07FFE000
0F83F000
1E00F000
3C60F800
78F0F800
70F0F800
70F0F000
E1E0F000
E1E1E000
E1E7C000
E7FF8000
E7FE0000
E7FF0000
E3CF8000
E3C78000
E3C7C000
E3C3C0C0
E3C3E0C0
77C1F3C0
7F81FF80
3F80FF00
0F007C00
ENDCHAR
STARTCHAR uni0211
ENCODING 529
SWIDTH 455 0
DWIDTH 13 0
BBX 16 24 1 0
BITMAP
2100
7380
F380
7380
7BC0
39C0
18C0
1CE0
0C60
0000
0000
38E0
79F0
7BF0
77F0
76E2
7EF7
FCFF
F8FE
F878
F800
7000
7000
7000
ENDCHAR
STARTCHAR uni0212
ENCODING 530
SWIDTH 880 0
DWIDTH 25 0
BBX 26 31 2 0
BITMAP
003F0000
007FC000
00FFC000
01E1E000
01C0E000
00000000
00000000
007F0000
03FFC000
07FFE000
0F83F000
1E00F000
3C60F800
78F0F800
70F0F800
70F0F000
E1E0F000
E1E1E000
E1E7C000
E7FF8000
E7FE0000
E7FF0000
E3CF8000
E3C78000
E3C7C000
E3C3C0C0
E3C3E0C0
77C1F3C0
7F81FF80
3F80FF00
0F007C00
ENDCHAR
STARTCHAR uni0213
ENCODING 531
SWIDTH 455 0
DWIDTH 13 0
BBX 16 21 1 0
BITMAP
07C0
0FF0
1FF8
3C78
3838
3838
0000
0000
38E0
79F0
7BF0
77F0
76E2
7EF7
FCFF
F8FE
F878
F800
7000
7000
7000
ENDCHAR
STARTCHAR uni0214
ENCODING 532
SWIDTH 890 0
DWIDTH 25 0
BBX 29 33 0 0
BITMAP
00108000
0079C000
007BC000
0039C000
0039C000
001CE000
000C6000
00000000
00000000
07800E00
1FC00E00
3FE01E00
79E01E00
E1E01E00
E1E01E00
C1E01E00
01E01E00
03E03E00
03C03C00
03C03C00
03C03C00
03C07C00
07C07C00
07807C00
0780FC00
0780F800
0781B800
0783F810
07837838
078E7C70
07FE3FE0
03FC3FC0
01F01F80
ENDCHAR
STARTCHAR uni0215
ENCODING 533
SWIDTH 462 0
DWIDTH 13 0
BBX 16 24 1 0
BITMAP
2100
7380
7380
73C0
79C0
39C0
18C0
1CE0
0C60
0000
0000
3860
38E0
78E0
71E0
71E0
71C0
F3C0
F3C3
F7C7
FFCE
7DFC
7DF8
38F0
ENDCHAR
STARTCHAR uni0216
ENCODING 534
SWIDTH 890 0
DWIDTH 25 0
BBX 29 31 0 0
BITMAP
0007E000
001FF000
003FF800
003C7800
00383800
00000000
00000000
07800E00
1FC00E00
3FE01E00
79E01E00
E1E01E00
E1E01E00
C1E01E00
01E01E00
03E03E00
03C03C00
03C03C00
03C03C00
03C07C00
07C07C00
07807C00
0780FC00
0780F800
0781B800
0783F810
07837838
078E7C70
07FE3FE0
03FC3FC0
01F01F80
ENDCHAR
STARTCHAR uni0217
ENCODING 535
SWIDTH 462 0
DWIDTH 13 0
BBX 16 21 1 0
BITMAP
07C0
0FF0
1FF8
3C78
3838
3838
0000
0000
3860
38E0
78E0
71E0
71E0
71C0
F3C0
F3C3
F7C7
FFCE
7DFC
7DF8
38F0
ENDCHAR
STARTCHAR uni0218
ENCODING 536
SWIDTH 693 0
DWIDTH 19 0
BBX 18 32 1 -8
BITMAP
01FC00
07FF00
0FFF80
1F07C0
3C01C0
3C01C0
3C01C0
3C01C0
3E01C0
3F0000
1FC000
0FF800
03FE00
00FF00
003F80
600F80
F00780
F00780
F00780
F00780
F81F00
7FFF00
3FFC00
0FF000
000000
000000
018000
03C000
038000
038000
038000
030000
ENDCHAR
STARTCHAR uni0219
ENCODING 537
SWIDTH 427 0
DWIDTH 12 0
BBX 16 22 0 -9
BITMAP
0380
0780
0700
0F00
0F00
1F80
1FC0
3BC2
71E7
E1EE
EFFE
CFFC
0FF0
0780
0000
0700
0700
0700
0F00
0E00
0E00
0400
ENDCHAR
STARTCHAR uni021A
ENCODING 538
SWIDTH 697 0
DWIDTH 20 0
BBX 24 32 1 -8
BITMAP
01FFFE
0FFFFF
3FFFFF
7C3C00
F03C00
E03C00
E03C00
F03C00
F07800
607800
007800
007800
007800
007800
00F000
00F000
00F000
00F000
00F000
00F000
00F000
01F000
01E000
00E000
000000
000000
00C000
01E000
01E000
01C000
01C000
018000
ENDCHAR
STARTCHAR uni021B
ENCODING 539
SWIDTH 393 0
DWIDTH 11 0
BBX 15 34 0 -9
BITMAP
00E0
01F0
03F0
0770
0730
0E70
0E70
0E70
0E60
1EE0
1DC0
1F80
FFF8
FFF0
FFF0
3C00
3C00
3C00
3C00
1C06
1C0E
1E1C
1FF8
0FF0
03E0
0000
0000
0700
0700
0700
0700
0600
0600
0600
ENDCHAR
STARTCHAR uni022A
ENCODING 554
SWIDTH 816 0
DWIDTH 23 0
BBX 20 35 2 0
BITMAP
00FF80
00FF80
00FF80
000000
000000
00E380
01E780
01E780
01E700
000000
000000
00FE00
03FF80
07FFC0
0F87E0
1E01E0
3C01F0
7C00F0
7800F0
7800F0
F000F0
F000F0
F000F0
F000F0
F000F0
F000F0
F001E0
F001E0
F003E0
F803C0
7C0780
3E1F80
3FFF00
0FFC00
07F000
ENDCHAR
STARTCHAR uni022B
ENCODING 555
SWIDTH 451 0
DWIDTH 13 0
BBX 15 24 1 0
BITMAP
1FE0
1FF0
1FE0
0000
0000
38E0
3CF0
3DF0
38E0
0000
0000
0F00
3FC0
7FC0
7BE0
F3E2
F3FE
E1FE
E0FC
F0E0
F1C0
7FC0
7F80
1F00
ENDCHAR
STARTCHAR uni022C
ENCODING 556
SWIDTH 816 0
DWIDTH 23 0
BBX 20 36 2 0
BITMAP
007F80
00FF80
00FF80
000000
004000
00F0C0
01F9C0
03FFC0
038F80
010700
000000
000000
00FE00
03FF80
07FFC0
0F87E0
1E01E0
3C01F0
7C00F0
7800F0
7800F0
F000F0
F000F0
F000F0
F000F0
F000F0
F000F0
F001E0
F001E0
F003E0
F803C0
7C0780
3E1F80
3FFF00
0FFC00
07F000
ENDCHAR
STARTCHAR uni022D
ENCODING 557
SWIDTH 451 0
DWIDTH 13 0
BBX 15 25 1 0
BITMAP
1FF0
1FF0
1FE0
0000
0800
3E38
3F38
77F0
63F0
40E0
0000
0000
0F00
3FC0
7FC0
7BE0
F3E2
F3FE
E1FE
E0FC
F0E0
F1C0
7FC0
7F80
1F00
ENDCHAR
STARTCHAR uni0230
ENCODING 560
SWIDTH 816 0
DWIDTH 23 0
BBX 20 35 2 0
BITMAP
00FF80
00FF80
00FF80
000000
000000
003C00
007E00
007C00
003C00
000000
000000
00FE00
03FF80
07FFC0
0F87E0
1E01E0
3C01F0
7C00F0
7800F0
7800F0
F000F0
F000F0
F000F0
F000F0
F000F0
F000F0
F001E0
F001E0
F003E0
F803C0
7C0780
3E1F80
3FFF00
0FFC00
07F000
ENDCHAR
STARTCHAR uni0231
ENCODING 561
SWIDTH 451 0
DWIDTH 13 0
BBX 15 24 1 0
BITMAP
1FE0
1FF0
1FE0
0000
0000
0700
0F80
0F80
0700
0000
0000
0F00
3FC0
7FC0
7BE0
F3E2
F3FE
E1FE
E0FC
F0E0
F1C0
7FC0
7F80
1F00
ENDCHAR
STARTCHAR uni0232
ENCODING 562
SWIDTH 851 0
DWIDTH 24 0
BBX 27 37 0 -8
BITMAP
001FF000
001FF000
001FF000
00000000
00000000
07800E00
1FC00E00
3FE01E00
79E01E00
E1E01E00
C1E01E00
C1E01E00
01E03E00
03E03E00
03C03C00
03C03C00
03C07C00
03C07C00
0780FC00
0781FC00
0781B800
03C7B800
03FF39E0
01FE7FE0
00F8FFC0
0003FC00
000FF800
003C7000
00787000
00E0F000
01E0F000
01C0E000
01C1E000
01E3C000
01FF8000
00FF0000
007C0000
ENDCHAR
STARTCHAR uni0233
ENCODING 563
SWIDTH 479 0
DWIDTH 13 0
BBX 16 31 0 -13
BITMAP
0FF8
0FF8
0FF0
0000
0000
1C30
1C70
3C70
38F0
38F0
38F0
79E0
79E3
7BE7
7FFF
3EFC
3EF8
1DF0
03C0
07C0
0FC0
1DC0
3B80
7380
6380
E700
E700
EF00
FE00
FC00
7800
ENDCHAR
STARTCHAR uni0237
ENCODING 567
SWIDTH 254 0
DWIDTH 7 0
BBX 16 26 -6 -13
BITMAP
0070
00F0
00F0
00F0
00E0
00E0
00E0
00E3
00E7
01FF
01FC
01F8
01E0
03C0
07C0
0FC0
1F80
3B80
7380
6780
E700
C700
CE00
FE00
FC00
7800
ENDCHAR
STARTCHAR uni0259
ENCODING 601
SWIDTH 458 0
DWIDTH 13 0
BBX 11 13 1 0
BITMAP
3F00
7FC0
7FC0
41E0
01E0
00E0
7FE0
FFE0
E1E0
F1E0
7FC0
7F80
1F00
ENDCHAR
STARTCHAR uni02BC
ENCODING 700
SWIDTH 600 0
DWIDTH 17 0
BBX 4 7 7 15
BITMAP
70
70
70
70
E0
E0
60
ENDCHAR
STARTCHAR circumflex
ENCODING 710
SWIDTH 600 0
DWIDTH 17 0
BBX 9 9 4 15
BITMAP
0E00
1F00
1F00
3B00
7B00
7380
F380
E380
C380
ENDCHAR
STARTCHAR caron
ENCODING 711
SWIDTH 600 0
DWIDTH 17 0
BBX 9 9 5 15
BITMAP
E180
E380
E380
E700
6700
7E00
7C00
7C00
3800
ENDCHAR
STARTCHAR uni02C9
ENCODING 713
SWIDTH 600 0
DWIDTH 17 0
BBX 9 3 4 15
BITMAP
FF80
FF80
FF80
ENDCHAR
STARTCHAR breve
ENCODING 728
SWIDTH 600 0
DWIDTH 17 0
BBX 12 6 3 15
BITMAP
E060
E0F0
F1E0
7FE0
7FC0
1F00
ENDCHAR
STARTCHAR dotaccent
ENCODING 729
SWIDTH 600 0
DWIDTH 17 0
BBX 5 4 6 15
BITMAP
78
F8
F8
70
ENDCHAR
STARTCHAR ring
ENCODING 730
SWIDTH 600 0
DWIDTH 17 0
BBX 8 8 5 15
BITMAP
3C
7E
FF
E7
E7
FE
7E
3C
ENDCHAR
STARTCHAR ogonek
ENCODING 731
SWIDTH 600 0
DWIDTH 17 0
BBX 7 9 4 -7
BITMAP
10
78
60
E0
E0
E0
FE
FE
3C
ENDCHAR
STARTCHAR tilde
ENCODING 732
SWIDTH 600 0
DWIDTH 17 0
BBX 12 6 3 15
BITMAP
1000
7C30
7E70
EFE0
E7E0
81C0
ENDCHAR
STARTCHAR hungarumlaut
ENCODING 733
SWIDTH 600 0
DWIDTH 17 0
BBX 10 9 5 15
BITMAP
1080
39C0
39C0
7BC0
7380
7380
E700
C700
C600
ENDCHAR
STARTCHAR gravecomb
ENCODING 768
SWIDTH 0 0
DWIDTH 0 0
BBX 6 9 -13 15
BITMAP
40
E0
E0
F0
70
78
38
1C
0C
ENDCHAR
STARTCHAR acutecomb
ENCODING 769
SWIDTH 0 0
DWIDTH 0 0
BBX 6 9 -9 15
BITMAP
08
3C
3C
38
78
70
E0
C0
C0
ENDCHAR
STARTCHAR uni0302
ENCODING 770
SWIDTH 0 0
DWIDTH 0 0
BBX 9 9 -13 15
BITMAP
0E00
1F00
1F00
3B00
3B80
7380
7380
E380
C180
ENDCHAR
STARTCHAR tildecomb
ENCODING 771
SWIDTH 0 0
DWIDTH 0 0
BBX 12 6 -14 15
BITMAP
1000
3C30
7E70
EFF0
E3E0
41C0
ENDCHAR
STARTCHAR uni0304
ENCODING 772
SWIDTH 0 0
DWIDTH 0 0
BBX 9 3 -13 15
BITMAP
7F80
FF80
FF80
ENDCHAR
STARTCHAR uni0306
ENCODING 774
SWIDTH 0 0
DWIDTH 0 0
BBX 12 6 -14 15
BITMAP
6070
F070
F0F0
7FE0
3FC0
1F80
ENDCHAR
STARTCHAR uni0307
ENCODING 775
SWIDTH 0 0
DWIDTH 0 0
BBX 5 4 -11 15
BITMAP
78
F8
F8
78
ENDCHAR
STARTCHAR uni0308
ENCODING 776
SWIDTH 0 0
DWIDTH 0 0
BBX 10 4 -13 15
BITMAP
7180
F3C0
F3C0
E380
ENDCHAR
STARTCHAR hookabovecomb
ENCODING 777
SWIDTH 0 0
DWIDTH 0 0
BBX 7 8 -11 15
BITMAP
78
FC
0E
0E
0E
0C
7C
78
ENDCHAR
STARTCHAR uni030A
ENCODING 778
SWIDTH 0 0
DWIDTH 0 0
BBX 8 8 -12 15
BITMAP
3C
7E
7F
E7
E7
7F
7E
3C
ENDCHAR
STARTCHAR uni030B
ENCODING 779
SWIDTH 0 0
DWIDTH 0 0
BBX 11 9 -12 15
BITMAP
1080
39C0
39E0
79C0
73C0
7380
6300
E700
C600
ENDCHAR
STARTCHAR uni030C
ENCODING 780
SWIDTH 0 0
DWIDTH 0 0
BBX 10 9 -12 15
BITMAP
E180
E3C0
E380
7700
7700
7E00
7E00
3C00
3800
ENDCHAR
STARTCHAR uni030F
ENCODING 783
SWIDTH 0 0
DWIDTH 0 0
BBX 10 9 -15 15
BITMAP
4200
E700
F780
F780
7380
71C0
39C0
18C0
18C0
ENDCHAR
STARTCHAR uni0311
ENCODING 785
SWIDTH 0 0
DWIDTH 0 0
BBX 12 6 -14 15
BITMAP
0F80
3FC0
7FE0
70F0
F0F0
E070
ENDCHAR
STARTCHAR uni0312
ENCODING 786
SWIDTH 0 0
DWIDTH 0 0
BBX 3 7 -9 15
BITMAP
E0
E0
E0
E0
C0
C0
C0
ENDCHAR
STARTCHAR uni031B
ENCODING 795
SWIDTH 0 0
DWIDTH 0 0
BBX 5 7 -9 10
BITMAP
10
18
38
38
F8
F0
C0
ENDCHAR
STARTCHAR dotbelowcomb
ENCODING 803
SWIDTH 0 0
DWIDTH 0 0
BBX 5 4 -13 -6
BITMAP
70
F8
F8
F0
ENDCHAR
STARTCHAR uni0324
ENCODING 804
SWIDTH 0 0
DWIDTH 0 0
BBX 10 4 -16 -6
BITMAP
71C0
F3C0
F3C0
71C0
ENDCHAR
STARTCHAR uni0326
ENCODING 806
SWIDTH 0 0
DWIDTH 0 0
BBX 3 7 -12 -9
BITMAP
E0
E0
E0
E0
C0
C0
C0
ENDCHAR
STARTCHAR uni0327
ENCODING 807
SWIDTH 0 0
DWIDTH 0 0
BBX 8 8 -15 -7
BITMAP
3C
7E
07
07
07
FE
FE
F8
ENDCHAR
STARTCHAR uni0328
ENCODING 808
SWIDTH 0 0
DWIDTH 0 0
BBX 7 9 -13 -7
BITMAP
10
38
70
E0
E0
E0
FE
7E
3C
ENDCHAR
STARTCHAR uni032E
ENCODING 814
SWIDTH 0 0
DWIDTH 0 0
BBX 12 6 -17 -8
BITMAP
6070
F070
78F0
7FE0
3FC0
1F80
ENDCHAR
STARTCHAR uni0331
ENCODING 817
SWIDTH 0 0
DWIDTH 0 0
BBX 9 3 -15 -5
BITMAP
FF80
FF80
FF80
ENDCHAR
STARTCHAR uni0394
ENCODING 916
SWIDTH 700 0
DWIDTH 20 0
BBX 17 24 1 0
BITMAP
003000
007000
007800
00F800
00F800
01F800
01D800
03DC00
039C00
079C00
071C00
071C00
0F1E00
0E0E00
1E0E00
1C0E00
3C0E00
380F00
380F00
780700
700700
FFFF00
FFFF80
FFFF00
ENDCHAR
STARTCHAR uni03A9
ENCODING 937
SWIDTH 816 0
DWIDTH 23 0
BBX 23 24 -1 0
BITMAP
001FC0
007FF0
00FFF8
01F0FC
03C03C
07803E
07801E
0F001E
0F001E
1E001E
1E001E
1E001E
1E001E
1E001E
1E001E
1E003E
1E003C
1E007C
1F0078
0F00F8
0F81F0
7FC3FE
FFC7FE
7FC3FE
ENDCHAR
STARTCHAR uni03BC
ENCODING 956
SWIDTH 462 0
DWIDTH 13 0
BBX 16 21 1 -8
BITMAP
1020
38E0
78E0
70E0
71E0
71C0
73C0
F3C2
F7C7
FFCE
FDFC
FDF8
F8F0
E000
E000
E000
E000
E000
E000
E000
E000
ENDCHAR
STARTCHAR pi
ENCODING 960
SWIDTH 496 0
DWIDTH 14 0
BBX 17 14 1 0
BITMAP
FFFC00
FFFC00
FFF800
78F000
78E000
70E000
70E000
F1E000
F1E180
F1E300
F1E700
F0FE00
F0FC00
E07800
ENDCHAR
STARTCHAR uni0400
ENCODING 1024
SWIDTH 686 0
DWIDTH 19 0
BBX 22 33 1 0
BITMAP
020000
070000
078000
07E000
01F000
007800
001800
000000
000000
00FE00
03FF80
07FFC0
0F83E0
1F01E0
1E01E0
1E01E0
1E01E0
1E01C0
1F0000
0FF000
07F000
1FF000
3E0000
780000
F80000
F00000
F00000
F00000
F8001C
7E01FC
7FFFF8
1FFFF0
03FF00
ENDCHAR
STARTCHAR uni0401
ENCODING 1025
SWIDTH 686 0
DWIDTH 19 0
BBX 22 30 1 0
BITMAP
00E380
00F7C0
00F780
00E380
000000
000000
00FE00
03FF80
07FFC0
0F83E0
1F01E0
1E01E0
1E01E0
1E01E0
1E01C0
1F0000
0FF000
07F000
1FF000
3E0000
780000
F80000
F00000
F00000
F00000
F8001C
7E01FC
7FFFF8
1FFFF0
03FF00
ENDCHAR
STARTCHAR uni0402
ENCODING 1026
SWIDTH 974 0
DWIDTH 27 0
BBX 29 37 1 -13
BITMAP
01FFFE00
0FFFFF00
3FFFFF00
7C3C0000
F03C0000
E03C0000
E03C0000
E03C0000
F07C0000
70780000
60780000
00787C00
0079FE00
007BFF00
00FF0F00
00FC0780
00F80780
00F00F18
00F00F38
00F00F78
00F00FF8
01F00FE0
01E00FC0
00E01F00
00003E00
00007E00
0000FE00
0001FE00
0003DC00
0007BC00
00073C00
000E3800
000E7800
000E7000
000FF000
000FE000
00078000
ENDCHAR
STARTCHAR uni0403
ENCODING 1027
SWIDTH 635 0
DWIDTH 18 0
BBX 23 33 1 0
BITMAP
000080
0003C0
0007C0
000FC0
001F00
003C00
003000
000000
000000
03FFFE
1FFFFE
3FFFFC
7EF000
F0F000
E0E000
E1E000
F1E000
F1E000
71E000
01E000
03C000
03C000
03C000
03C000
03C000
03C000
078000
078000
078000
078000
078000
078000
070000
ENDCHAR
STARTCHAR uni0404
ENCODING 1028
SWIDTH 687 0
DWIDTH 19 0
BBX 21 24 2 0
BITMAP
00FC00
03FF00
07FF80
0F8780
1E03C0
3E03C0
7C03C0
780380
780380
F80000
F00000
FFF800
FFF800
FFF800
F00000
F00000
F00000
F80000
780000
7C0038
3F01F8
1FFFF0
0FFFE0
01FF00
ENDCHAR
STARTCHAR uni0405
ENCODING 1029
SWIDTH 693 0
DWIDTH 19 0
BBX 18 24 1 0
BITMAP
01FC00
07FF00
0FFF80
1F07C0
3C01C0
3C01C0
3C01C0
3C01C0
3E01C0
3F0000
1FC000
0FF800
03FE00
00FF00
003F80
600F80
F00780
F00780
F00780
F00780
F81F00
7FFF00
3FFC00
0FF000
ENDCHAR
STARTCHAR uni0406
ENCODING 1030
SWIDTH 495 0
DWIDTH 14 0
BBX 16 24 0 0
BITMAP
1FFE
1FFF
1FFE
01E0
01E0
01E0
03C0
03C0
03C0
03C0
03C0
03C0
0380
0780
0780
0780
0780
0780
0780
0F00
0F00
FFF0
FFF0
FFF0
ENDCHAR
STARTCHAR uni0407
ENCODING 1031
SWIDTH 495 0
DWIDTH 14 0
BBX 16 30 0 0
BITMAP
039E
079E
079E
071C
0000
0000
1FFE
1FFF
1FFE
01E0
01E0
01E0
03C0
03C0
03C0
03C0
03C0
03C0
0380
0780
0780
0780
0780
0780
0780
0F00
0F00
FFF0
FFF0
FFF0
ENDCHAR
STARTCHAR uni0408
ENCODING 1032
SWIDTH 743 0
DWIDTH 21 0
BBX 19 26 2 -2
BITMAP
03FF80
1FFFE0
3FFFE0
7C03C0
F003C0
E003C0
E003C0
F00380
F00780
700780
000780
001F80
007F80
00FF00
03EF00
078F00
0F0F00
1E0E00
1C1E00
3C1C00
3C3C00
3C3C00
3C7800
1FF000
1FE000
078000
ENDCHAR
STARTCHAR uni0409
ENCODING 1033
SWIDTH 1158 0
DWIDTH 32 0
BBX 32 24 0 0
BITMAP
0000F000
0001F000
0001F000
0001F000
0003F000
0003F000
0003F000
0007F000
0007F000
0007F3F0
000FFFFC
000EFFFE
000EF83F
001EF01F
001CF00F
003CF00F
003CF00F
4078F00F
E078F01E
F0F0F81E
F1E07C3C
7FE03FFC
3FC01FF0
1F000FC0
ENDCHAR
STARTCHAR uni040A
ENCODING 1034
SWIDTH 1182 0
DWIDTH 33 0
BBX 33 24 0 0
BITMAP
07801C0000
1FC03C0000
3FE03C0000
71E03C0000
E1E03C0000
C1E0380000
81E0780000
01E0780000
01E0780000
01E073F800
01E07FFE00
03C0FFFF00
1FFFFC1F00
1FFFF00F80
1FFEF00780
03C0F00780
0780F00780
0780F00F00
0780F00F00
0780F01F00
0F00783E00
0F007FFC00
0F003FF800
0E000FC000
ENDCHAR
STARTCHAR uni040B
ENCODING 1035
SWIDTH 979 0
DWIDTH 27 0
BBX 30 24 1 0
BITMAP
01FFFE00
0FFFFF00
3FFFFF00
7C3C0000
F03C0000
E03C0000
E03C0000
E03C0000
F07C0000
70780000
60780000
00787C00
0079FE00
007BFF00
00FF0F00
00FC0780
00F80780
00F00F00
00F00F0C
00F00F1C
00F00F3C
01F00FF8
01F00FF0
00E007C0
ENDCHAR
STARTCHAR uni040C
ENCODING 1036
SWIDTH 937 0
DWIDTH 26 0
BBX 29 33 1 0
BITMAP
00000200
00000700
00000F80
00001F00
00007C00
0000F800
0000E000
00000000
00000000
03FC01C0
0FFE03C0
3FFF03C0
3C3E0780
783C0780
703C0780
703C0F00
703C1F00
783C1E00
783C3C00
30787800
0079F000
01FFE000
01FF8000
01FFC000
007BE000
0071F000
00F0F000
C0F0F818
E0F07838
F1E07C78
FFE03FF0
7FC01FE0
1F000F80
ENDCHAR
STARTCHAR uni040D
ENCODING 1037
SWIDTH 890 0
DWIDTH 25 0
BBX 29 33 0 0
BITMAP
00400000
01E00000
01F00000
00F80000
007E0000
001F0000
00070000
00000000
00000000
07800E00
1FC00E00
3FE01E00
79E01E00
E1E01E00
E1E01E00
C1E01E00
01E01E00
03E03E00
03C03C00
03C03C00
03C03C00
03C07C00
07C07C00
07807C00
0780FC00
0780F800
0781B800
0783F810
07837838
078E7C70
07FE3FE0
03FC3FC0
01F01F80
ENDCHAR
STARTCHAR uni040E
ENCODING 1038
SWIDTH 824 0
DWIDTH 23 0
BBX 26 38 1 -6
BITMAP
00007000
00707000
0078E000
007FE000
003FC000
001F8000
00000000
00000000
0F001C00
3F803C00
7FC03C00
E3C03C00
C3C03C00
03C07C00
03C07C00
07807800
0780F800
0780F800
0781F800
0783F800
078F7800
07FE7000
03FC7000
01F0FFC0
0000FFC0
0003FF80
000FF800
003FE000
007CE000
01F1E000
01C1E000
03C1C000
0383C000
0383C000
03C78000
03FF0000
01FE0000
00F80000
ENDCHAR
STARTCHAR uni040F
ENCODING 1039
SWIDTH 890 0
DWIDTH 25 0
BBX 29 29 0 -5
BITMAP
07800E00
1FC00E00
3FE01E00
79E01E00
E1E01E00
E1E01E00
C1E01E00
01E01E00
03E03E00
03C03C00
03C03C00
03C03C00
03C07C00
07C07C00
07807C00
0780FC00
0780F800
0781B800
0783F810
07837838
078F7C70
07FE3FE0
03FC3FC0
01F01F80
00E00000
01E00000
01E00000
01E00000
01E00000
ENDCHAR
STARTCHAR uni0410
ENCODING 1040
SWIDTH 786 0
DWIDTH 22 0
BBX 24 24 2 0
BITMAP
001FF0
00FFFC
03FFF8
07E030
0F8000
1F01C0
3E03E0
3C03C0
7803C0
7803C0
F803C0
F00780
F00780
F00780
F00780
F00F80
F00F80
F01F80
F01F83
F83F87
7C778E
7FE7FC
3FE3F8
0F81F0
ENDCHAR
STARTCHAR uni0411
ENCODING 1041
SWIDTH 917 0
DWIDTH 26 0
BBX 24 24 1 0
BITMAP
03FFFE
1FFFFE
3FFFFC
7C7800
F07800
E0F000
E0F000
F0F000
F0F000
70F000
00FFF0
01FFFC
07FFFE
07E03F
07E00F
01E00F
01E00F
03C00F
03C00F
03C01E
03C03E
03C1FC
03CFF8
03CFE0
ENDCHAR
STARTCHAR uni0412
ENCODING 1042
SWIDTH 827 0
DWIDTH 23 0
BBX 23 25 1 -1
BITMAP
00FFC0
0FFFF0
3FFFFC
FF00FE
F8003E
E0001E
07801E
07801E
07801E
0F003C
0F01F8
0F1FF0
0F1FC0
1E1FC0
1E03E0
1E00F0
1E00F0
1E00F0
1E00F0
1C01F0
3C07E0
3FFFC0
3FFF00
3FF800
3C0000
ENDCHAR
STARTCHAR uni0413
ENCODING 1043
SWIDTH 635 0
DWIDTH 18 0
BBX 23 24 1 0
BITMAP
03FFFE
1FFFFE
3FFFFC
7EF000
F0F000
E0E000
E1E000
F1E000
F1E000
71E000
01E000
03C000
03C000
03C000
03C000
03C000
03C000
078000
078000
078000
078000
078000
078000
070000
ENDCHAR
STARTCHAR uni0414
ENCODING 1044
SWIDTH 964 0
DWIDTH 27 0
BBX 26 24 0 0
BITMAP
001FE000
00FFFC00
03FFFE00
07E03F00
07000F80
06000780
003C07C0
003C03C0
007803C0
007803C0
00F003C0
00F003C0
00F003C0
00F003C0
00E003C0
01E003C0
01E007C0
3FE00780
7FE00F80
7FE00F00
E1F83E00
7FBFFE00
7F8FF800
3E03F000
ENDCHAR
STARTCHAR uni0415
ENCODING 1045
SWIDTH 686 0
DWIDTH 19 0
BBX 22 24 1 0
BITMAP
00FE00
03FF80
07FFC0
0F83E0
1F01E0
1E01E0
1E01E0
1E01E0
1E01C0
1F0000
0FF000
07F000
1FF000
3E0000
780000
F80000
F00000
F00000
F00000
F8001C
7E01FC
7FFFF8
1FFFF0
03FF00
ENDCHAR
STARTCHAR uni0416
ENCODING 1046
SWIDTH 1234 0
DWIDTH 35 0
BBX 36 24 1 0
BITMAP
03C03807C0
0FF03C0FE0
1FF03C1FF0
18783C3CF0
0878783860
003C787800
003C787800
003C78F000
001C79F000
001E7FE000
000FFFC000
0007FE0000
001FFF0000
003EF78000
007CF3C000
00F8F3C000
00F0E1E000
01E1E1E000
01E1E0F030
E3C1E0F030
E3C1E0F8F0
FF81E07FE0
7F01E03FC0
3E01C01F00
ENDCHAR
STARTCHAR uni0417
ENCODING 1047
SWIDTH 725 0
DWIDTH 20 0
BBX 17 24 2 0
BITMAP
01F800
0FFE00
1FFF00
3E0F00
3C0F00
380F00
380F00
380F00
380F00
001E00
003C00
03FC00
07FF00
07CF80
000780
400780
E00780
E00780
F00F80
F00F00
F83F00
7FFE00
3FF800
0FE000
ENDCHAR
STARTCHAR uni0418
ENCODING 1048
SWIDTH 890 0
DWIDTH 25 0
BBX 29 24 0 0
BITMAP
07800E00
1FC00E00
3FE01E00
79E01E00
E1E01E00
E1E01E00
C1E01E00
01E01E00
03E03E00
03C03C00
03C03C00
03C03C00
03C07C00
07C07C00
07807C00
0780FC00
0780F800
0781B800
0783F810
07837838
078E7C70
07FE3FE0
03FC3FC0
01F01F80
ENDCHAR
STARTCHAR uni0419
ENCODING 1049
SWIDTH 890 0
DWIDTH 25 0
BBX 29 32 0 0
BITMAP
00001800
00183800
003C7800
001FF000
001FE000
000FC000
00000000
00000000
07800E00
1FC00E00
3FE01E00
79E01E00
E1E01E00
E1E01E00
C1E01E00
01E01E00
03E03E00
03C03C00
03C03C00
03C03C00
03C07C00
07C07C00
07807C00
0780FC00
0780F800
0781B800
0783F810
07837838
078E7C70
07FE3FE0
03FC3FC0
01F01F80
ENDCHAR
STARTCHAR uni041A
ENCODING 1050
SWIDTH 937 0
DWIDTH 26 0
BBX 29 24 1 0
BITMAP
03FC01C0
0FFE03C0
3FFF03C0
3C3E0780
783C0780
703C0780
703C0F00
703C1F00
783C1E00
783C3C00
30787800
0079F000
01FFE000
01FF8000
01FFC000
007BE000
0071F000
00F0F000
C0F0F818
E0F07838
F1E07C78
FFE03FF0
7FC01FE0
1F000F80
ENDCHAR
STARTCHAR uni041B
ENCODING 1051
SWIDTH 861 0
DWIDTH 24 0
BBX 28 24 0 0
BITMAP
0000F000
0001F000
0001F000
0001F000
0003F000
0003F000
0003F000
0007F000
0007F000
0007F000
000FF000
000EF000
000EF000
001EF000
001CF000
003CF000
003CF000
0078F000
6078F030
F0F07870
F1E078E0
7FE07FE0
3FC03F80
1F001F00
ENDCHAR
STARTCHAR uni041C
ENCODING 1052
SWIDTH 1133 0
DWIDTH 32 0
BBX 35 24 0 0
BITMAP
000780F000
000F80F000
000F81F000
000F81F000
000F83F000
001F83F000
001F87F000
001F87F000
001F87F000
001F8FF000
003F8EF000
003B8EF000
003B9CF000
003B9CF000
007B9CF000
0073B8F000
0073F8F000
00F3F8F000
60E1F0F020
E1E1F0F060
F1E1F078E0
7FC1E07FC0
7F81E03F80
1F00E01E00
ENDCHAR
STARTCHAR uni041D
ENCODING 1053
SWIDTH 873 0
DWIDTH 24 0
BBX 28 25 0 0
BITMAP
00000380
07800FC0
1FC00FC0
7FE01EE0
71E03CE0
E1E038E0
C1E038C0
81E078C0
01E071C0
01E07180
01E0F780
01C0FF00
03C1FC00
1FFFF800
1FFFF000
1FF0E000
03C0E000
0780F000
0780F000
0780F030
0780F070
0F00F8F0
0F007FE0
0F003FC0
0E001F00
ENDCHAR
STARTCHAR uni041E
ENCODING 1054
SWIDTH 816 0
DWIDTH 23 0
BBX 20 24 2 0
BITMAP
00FE00
03FF80
07FFC0
0F87E0
1E01E0
3C01F0
7C00F0
7800F0
7800F0
F000F0
F000F0
F000F0
F000F0
F000F0
F000F0
F001E0
F001E0
F003E0
F803C0
7C0780
3E1F80
3FFF00
0FFC00
07F000
ENDCHAR
STARTCHAR uni041F
ENCODING 1055
SWIDTH 892 0
DWIDTH 25 0
BBX 28 24 1 0
BITMAP
00FFFF00
0FFFFFE0
3FFFFFF0
7EF01EE0
F0F01E00
E0F03C00
E0F03C00
F1E03C00
F1E03C00
71E03C00
01E07C00
01E07800
03E07800
03C07800
03C07800
03C0F000
03C0F000
03C0F000
03C0F030
07C0F070
0780F8E0
07807FC0
07807F80
03801F00
ENDCHAR
STARTCHAR uni0420
ENCODING 1056
SWIDTH 805 0
DWIDTH 23 0
BBX 22 26 1 -2
BITMAP
003F80
00FFE0
03FFF0
07C0F8
0F007C
1E003C
1C383C
3C783C
38783C
78783C
707878
70F0F8
70F1F0
F3FFE0
F7FFC0
E3FE00
E0F000
E1E000
E1E000
F1E000
71E000
71E000
7BC000
3FC000
1FC000
0F8000
ENDCHAR
STARTCHAR uni0421
ENCODING 1057
SWIDTH 686 0
DWIDTH 19 0
BBX 21 24 2 0
BITMAP
00FC00
03FF00
07FF80
0F8780
1E03C0
3C03C0
7C03C0
780380
780380
F00100
F00000
F00000
F00000
F00000
F00000
F00000
F00000
F80000
780000
7C0038
3F01F8
1FFFF0
0FFFE0
01FE00
ENDCHAR
STARTCHAR uni0422
ENCODING 1058
SWIDTH 697 0
DWIDTH 20 0
BBX 24 24 1 0
BITMAP
01FFFE
0FFFFF
3FFFFF
7C3C00
F03C00
E03C00
E03C00
F03C00
F07800
607800
007800
007800
007800
007800
00F000
00F000
00F000
00F000
00F000
00F000
00F000
01F000
01E000
00E000
ENDCHAR
STARTCHAR uni0423
ENCODING 1059
SWIDTH 824 0
DWIDTH 23 0
BBX 26 30 1 -6
BITMAP
0F001C00
3F803C00
7FC03C00
E3C03C00
C3C03C00
03C07C00
03C07C00
07807800
0780F800
0780F800
0781F800
0783F800
078F7800
07FE7000
03FC7000
01F0FFC0
0000FFC0
0003FF80
000FF800
003FE000
007CE000
01F1E000
01C1E000
03C1C000
0383C000
0383C000
03C78000
03FF0000
01FE0000
00F80000
ENDCHAR
STARTCHAR uni0424
ENCODING 1060
SWIDTH 977 0
DWIDTH 27 0
BBX 25 34 2 -7
BITMAP
10000000
1E000000
1FFF8000
1FFFC000
07FF8000
000F0000
000E0000
07CE3C00
0FFE7F00
1FFEFF00
3C3FC780
781F8780
781F0780
F01E0780
F01E0780
F03C0780
F03C0780
F03C0F00
F07C0F00
F0F80F00
F1FC1E00
F3FE3E00
FFFFFC00
7F7FF800
3C7BE000
00780000
00700000
20700000
70F00000
78E00000
79E00000
3FC00000
1F800000
0F000000
ENDCHAR
STARTCHAR uni0425
ENCODING 1061
SWIDTH 712 0
DWIDTH 20 0
BBX 24 24 0 0
BITMAP
0F8038
3FC07C
7FE0F8
F1E1F0
E1F1E0
40F3C0
00F780
007F80
007F00
007E00
007C00
007C00
00FC00
01FC00
03FC00
07DE00
079E00
0F1E00
1F0F02
3E0F07
7C0F8E
F807FC
F007F8
E001F0
ENDCHAR
STARTCHAR uni0426
ENCODING 1062
SWIDTH 890 0
DWIDTH 25 0
BBX 28 33 0 -9
BITMAP
07800E00
1FC00E00
3FE01E00
79E01E00
E1E01E00
E1E01E00
C1E01E00
01E01E00
03E03E00
03C03C00
03C03C00
03C03C00
03C07C00
07C07C00
07807C00
0780FC00
0780F800
0781B800
0783F800
07837810
078E3F30
07FE3FF0
03FC07E0
01F01F80
00007F00
0000FF00
0001EE00
0003CE00
00038E00
00039C00
0003FC00
0003F800
0001F000
ENDCHAR
STARTCHAR uni0427
ENCODING 1063
SWIDTH 773 0
DWIDTH 22 0
BBX 18 24 3 0
BITMAP
380180
7803C0
7803C0
7803C0
780380
780780
780780
780780
780780
F00F80
F00F80
F01F80
F03F00
F87F00
7FF700
3FE700
1F8F00
000F00
000F00
000F00
000F00
000E00
000E00
000E00
ENDCHAR
STARTCHAR uni0428
ENCODING 1064
SWIDTH 1272 0
DWIDTH 36 0
BBX 39 24 0 0
BITMAP
07801C0180
1FC01E03C0
3FE01E03C0
79E01E03C0
E1E01E03C0
E1E03C03C0
C1E03C07C0
01E03C0780
03E03C0780
03C0380780
03C0780780
03C0780F80
03C0780F80
07C0F80F80
0780F01F00
0780F01F00
0781F03F00
0781F03F00
0783706F02
078770EF06
078E71CF1E
07FC7F8FFC
07F87F87F8
01F03E03E0
ENDCHAR
STARTCHAR uni0429
ENCODING 1065
SWIDTH 1272 0
DWIDTH 36 0
BBX 39 33 0 -9
BITMAP
07801C0180
1FC01E03C0
3FE01E03C0
79E01E03C0
E1E01E03C0
E1E03C03C0
C1E03C07C0
01E03C0780
03E03C0780
03C0380780
03C0780780
03C0780F80
03C0780F80
07C0F80F00
0780F01F00
0780F01F00
0781F03F00
0781F03F00
0783706F00
078770EF02
078E71CFEE
07FC7F87FE
07F87F81FC
01F03E03F0
0000000FC0
0000001FC0
0000007DC0
00000079C0
000000F3C0
000000F380
000000FF80
0000007F00
0000003E00
ENDCHAR
STARTCHAR uni042A
ENCODING 1066
SWIDTH 863 0
DWIDTH 24 0
BBX 21 23 3 0
BITMAP
00F000
FFF000
FFF000
7FE000
01C000
03C000
03C000
078000
07BF80
07FFE0
1FFFF0
3F81F8
3F00F8
1F0078
0F0078
0F0078
0F00F8
0F00F0
0F01F0
0783E0
07FFC0
03FF80
00FC00
ENDCHAR
STARTCHAR uni042B
ENCODING 1067
SWIDTH 1078 0
DWIDTH 30 0
BBX 28 24 1 0
BITMAP
07000070
0F0000F0
0F0000F0
0F0000F0
0F0000F0
0F0000F0
1E0000F0
1E0000F0
1E0001E0
1EFE01E0
1FFF81E0
7FFFC1E0
FE07E1E0
FC03E1E0
7C01E3C0
3C01E3C0
3C01E3C0
3C03E3C0
3C03C3C0
3C07C3C0
1E0F87C0
1FFF0780
0FFE0780
03F80380
ENDCHAR
STARTCHAR uni042C
ENCODING 1068
SWIDTH 721 0
DWIDTH 20 0
BBX 19 24 1 0
BITMAP
070000
0F0000
0F0000
0F0000
0F0000
0F0000
1E0000
1E0000
1E0000
1EFE00
1FFF80
7FFFC0
FE07E0
FC03E0
7C01E0
3C01E0
3C01E0
3C03E0
3C03C0
3C07C0
1E0F80
1FFF00
0FFE00
03F800
ENDCHAR
STARTCHAR uni042D
ENCODING 1069
SWIDTH 755 0
DWIDTH 21 0
BBX 20 24 1 0
BITMAP
01FC00
07FF00
1FFF80
3E0FC0
3803C0
3003E0
2001E0
0001E0
0001F0
0001F0
0001F0
07FFF0
07FFE0
07FFE0
0001E0
0001E0
7003E0
F003C0
F007C0
F00F80
F81F00
7FFE00
3FFC00
0FE000
ENDCHAR
STARTCHAR uni042E
ENCODING 1070
SWIDTH 1246 0
DWIDTH 35 0
BBX 34 24 0 0
BITMAP
0F80007800
1FC00E7E00
3FE03E7F00
71E07E1F80
E1E0760780
C1E0EE07C0
C1E0EE03C0
01E1FE03C0
01E1FC03C0
01E3F803C0
01C3F003C0
03DFE003C0
1FFFC003C0
1FFFC003C0
1FE3C003C0
03C3C007C0
0783C00780
0783C00780
0783E00F00
0781E01E00
0F01F87E00
0F00FFF800
0F007FF000
0E001FC000
ENDCHAR
STARTCHAR uni042F
ENCODING 1071
SWIDTH 850 0
DWIDTH 24 0
BBX 27 24 0 0
BITMAP
003F9C00
00FFFC00
01FFFC00
03E07C00
03C03C00
07803C00
07803C00
07807C00
07807800
0780F800
07C0F800
03E0F800
01FFF800
00FFF800
007FF000
0007F000
000F7000
001E7000
E03C7020
E07C7060
F0F878E0
7FF07FC0
7FC07F80
1F001E00
ENDCHAR
STARTCHAR uni0430
ENCODING 1072
SWIDTH 470 0
DWIDTH 13 0
BBX 16 13 1 0
BITMAP
0700
1FE0
3FE0
3CE0
79E0
F1E0
F1C0
F1C3
F3C7
F3CE
FFFE
7EFC
3C70
ENDCHAR
STARTCHAR uni0431
ENCODING 1073
SWIDTH 473 0
DWIDTH 13 0
BBX 16 26 1 0
BITMAP
0010
00F0
07F0
1FF0
3F80
3C00
3C00
1C00
1E00
0F00
0780
03C0
01C0
0FE0
3FE0
7FE0
79E0
F1E2
F1FF
F0FF
F1FC
F1E0
F3C0
7FC0
7F80
1E00
ENDCHAR
STARTCHAR uni0432
ENCODING 1074
SWIDTH 473 0
DWIDTH 13 0
BBX 15 26 2 0
BITMAP
0780
0F80
1FC0
1DC0
39C0
39C0
79C0
7180
7380
7380
F300
F700
E600
EE00
FF80
FFC0
F3C0
E3E2
E3FE
E1FE
E1FC
E1C0
F3C0
7F80
7F80
1E00
ENDCHAR
STARTCHAR uni0433
ENCODING 1075
SWIDTH 380 0
DWIDTH 11 0
BBX 13 13 1 0
BITMAP
3F00
7F80
7F80
6380
0780
0F00
3E00
7818
F038
F0F8
FFF0
7FE0
3F00
ENDCHAR
STARTCHAR uni0434
ENCODING 1076
SWIDTH 479 0
DWIDTH 13 0
BBX 16 26 0 -13
BITMAP
0380
0FF0
1FF0
1E70
3CF0
78F0
78E0
78E3
79E7
79FF
7FFE
3EF8
1DF0
03C0
07C0
0FC0
1DC0
3B80
7380
7380
E700
E700
EF00
FE00
FC00
7800
ENDCHAR
STARTCHAR uni0435
ENCODING 1077
SWIDTH 393 0
DWIDTH 11 0
BBX 14 13 1 0
BITMAP
0F00
3F80
7FC0
79C0
F1C0
E380
E780
FE0C
F83C
F078
7FF0
3FE0
1F80
ENDCHAR
STARTCHAR uni0436
ENCODING 1078
SWIDTH 717 0
DWIDTH 20 0
BBX 24 13 0 0
BITMAP
0E38F0
1F39F8
3FBBF8
3BF7B8
11F738
01FF30
01FE00
73BE03
73FF07
F77F0E
7F73FC
7E73F8
3C30F0
ENDCHAR
STARTCHAR uni0437
ENCODING 1079
SWIDTH 435 0
DWIDTH 12 0
BBX 16 26 -1 -13
BITMAP
07E0
0FF0
1FF0
1C70
0070
0070
00E0
03C1
1F87
1E0F
1E3E
1FF8
07F0
03C0
07C0
0FC0
1DC0
39C0
73C0
6380
E380
E780
EF00
FE00
FC00
7800
ENDCHAR
STARTCHAR uni0438
ENCODING 1080
SWIDTH 462 0
DWIDTH 13 0
BBX 16 13 1 0
BITMAP
3860
38E0
78E0
71E0
71E0
71C0
F3C0
F3C3
F7C7
FFCE
7DFC
7DF8
38F0
ENDCHAR
STARTCHAR uni0439
ENCODING 1081
SWIDTH 462 0
DWIDTH 13 0
BBX 16 22 1 0
BITMAP
0010
1038
3830
3870
3FE0
1FC0
0F80
0000
0000
3860
38E0
78E0
71E0
71E0
71C0
F3C0
F3C3
F7C7
FFCE
7DFC
7DF8
38F0
ENDCHAR
STARTCHAR uni043A
ENCODING 1082
SWIDTH 465 0
DWIDTH 13 0
BBX 16 13 1 0
BITMAP
38F0
7BF8
7BF8
77B8
7738
7E30
FE00
FE03
FF07
FF0E
77FC
73F8
70F0
ENDCHAR
STARTCHAR uni043B
ENCODING 1083
SWIDTH 549 0
DWIDTH 15 0
BBX 19 13 0 0
BITMAP
007000
00F800
00F800
01F800
01F800
01F800
23B800
F3B860
E738E0
EF39C0
FE3F80
7C3F00
781E00
ENDCHAR
STARTCHAR uni043C
ENCODING 1084
SWIDTH 734 0
DWIDTH 21 0
BBX 24 13 0 0
BITMAP
00E0E0
00F1E0
01F3E0
01F7E0
01F7E0
03F6E0
63FEE0
F77CE3
E77CE3
E77CE7
FE78FE
FC38FC
783070
ENDCHAR
STARTCHAR uni043D
ENCODING 1085
SWIDTH 475 0
DWIDTH 13 0
BBX 16 13 1 0
BITMAP
3870
78F0
78E0
70E0
70E0
7FE0
FFE0
FFC3
F1C7
F1CF
71FE
71FC
60F0
ENDCHAR
STARTCHAR uni043E
ENCODING 1086
SWIDTH 451 0
DWIDTH 13 0
BBX 15 13 1 0
BITMAP
0F00
3FC0
7FC0
7BE0
F3E2
F3FE
E1FE
E0FC
F0E0
F1C0
7FC0
7F80
1F00
ENDCHAR
STARTCHAR uni043F
ENCODING 1087
SWIDTH 496 0
DWIDTH 14 0
BBX 17 13 1 0
BITMAP
38F000
79F000
7BF000
77F000
76F000
7EE000
FCE000
F8E180
F9E300
F9E700
71FE00
70FC00
70F800
ENDCHAR
STARTCHAR uni0440
ENCODING 1088
SWIDTH 481 0
DWIDTH 13 0
BBX 20 26 -3 -13
BITMAP
073C00
077E00
07FE00
07CE00
078E00
070E00
070E00
071E30
0F1C70
0F3CF0
1FFFE0
1FFFC0
37CF00
370000
770000
670000
6F0000
EF0000
CE0000
CE0000
CE0000
CE0000
DC0000
FC0000
F80000
700000
ENDCHAR
STARTCHAR uni0441
ENCODING 1089
SWIDTH 368 0
DWIDTH 10 0
BBX 13 13 1 0
BITMAP
0F00
3F80
7F80
7980
F380
F380
E000
E018
F038
F0F8
7FF0
7FC0
1F00
ENDCHAR
STARTCHAR uni0442
ENCODING 1090
SWIDTH 744 0
DWIDTH 21 0
BBX 23 13 1 0
BITMAP
38E1C0
79F3E0
7BF7E0
77EFE0
76EDC0
7CF9C0
FCF9C0
F8F1C2
F9F3C6
F9F3CE
71E3FC
70E1F8
70E1F0
ENDCHAR
STARTCHAR uni0443
ENCODING 1091
SWIDTH 479 0
DWIDTH 13 0
BBX 16 26 0 -13
BITMAP
1C30
1C70
3C70
38F0
38F0
38F0
79E0
79E3
7BE7
7FFF
3EFC
3EF8
1DF0
03C0
07C0
0FC0
1DC0
3B80
7380
6380
E700
E700
EF00
FE00
FC00
7800
ENDCHAR
STARTCHAR uni0444
ENCODING 1092
SWIDTH 721 0
DWIDTH 20 0
BBX 23 31 1 -9
BITMAP
003800
003800
007800
007800
007000
007000
007000
00F000
00E000
07E700
1FEF80
3FFFC0
3CF3C0
79F1C0
F1E3C0
F1E3C0
F1E3C6
E1E78E
F3CF9C
FFFFFC
7FFFF0
39F9E0
01C000
01C000
01C000
01C000
01C000
01C000
01C000
01C000
01C000
ENDCHAR
STARTCHAR uni0445
ENCODING 1093
SWIDTH 529 0
DWIDTH 15 0
BBX 18 13 0 0
BITMAP
0E1E00
1FBE00
3FFE00
3BEE00
19E600
01C000
01C000
73C040
73C0C0
F7E3C0
7FFF80
7EFF00
3C7C00
ENDCHAR
STARTCHAR uni0446
ENCODING 1094
SWIDTH 501 0
DWIDTH 14 0
BBX 16 22 1 -9
BITMAP
3860
38E0
78E0
71E0
71E0
71C0
F3C0
F3C0
F7C3
FFE7
7DFF
7DFC
38F8
03E0
07E0
0EE0
1CC0
19C0
39C0
3F80
1F00
0E00
ENDCHAR
STARTCHAR uni0447
ENCODING 1095
SWIDTH 555 0
DWIDTH 16 0
BBX 19 15 0 0
BITMAP
038000
07C000
07FF00
06FF00
0E7E00
0E3C00
1C7800
1CF000
39E020
79C060
71C0E0
E3C3E0
C1FFC0
01FF00
00FC00
ENDCHAR
STARTCHAR uni0448
ENCODING 1096
SWIDTH 693 0
DWIDTH 19 0
BBX 22 13 1 0
BITMAP
38E1C0
38E1C0
78E3C0
71E380
71E380
71C780
F3C780
F3CF0C
F7CF1C
FFFF3C
7DFFF8
7DF7F0
38E3C0
ENDCHAR
STARTCHAR uni0449
ENCODING 1097
SWIDTH 732 0
DWIDTH 21 0
BBX 22 22 1 -9
BITMAP
38E1C0
38E1C0
78E380
71E380
71E380
71C780
F3C780
F3CF00
F7CF04
FFFF9C
7DFFFC
7DF3F8
38E3E0
0007C0
000F80
001F80
003B80
007380
007700
007F00
007E00
003800
ENDCHAR
STARTCHAR uni044A
ENCODING 1098
SWIDTH 542 0
DWIDTH 15 0
BBX 18 14 1 0
BITMAP
400000
FF0000
7F0000
1C0000
3DE000
3FF000
7FF000
7C7880
7878C0
7871C0
78F380
3FFF00
3FFE00
0FBC00
ENDCHAR
STARTCHAR uni044B
ENCODING 1099
SWIDTH 702 0
DWIDTH 20 0
BBX 22 13 1 0
BITMAP
3801C0
7803C0
780380
7BC780
77EF80
7FEF80
F8FF84
F0FF8C
F0FF9C
78F7BC
7FE7F8
3FC3F0
1F01C0
ENDCHAR
STARTCHAR uni044C
ENCODING 1100
SWIDTH 517 0
DWIDTH 14 0
BBX 17 13 1 0
BITMAP
380000
780000
780000
7BC000
77E000
7FF000
F8F080
F0F180
F0F380
78E780
7FFF00
3FFE00
1F7800
ENDCHAR
STARTCHAR uni044D
ENCODING 1101
SWIDTH 466 0
DWIDTH 13 0
BBX 16 13 1 0
BITMAP
1F80
7FC0
7FE0
01E0
00F2
0FFF
0FFF
EFFE
E0F0
E1E0
FFE0
7FC0
3F00
ENDCHAR
STARTCHAR uni044E
ENCODING 1102
SWIDTH 676 0
DWIDTH 19 0
BBX 22 13 1 0
BITMAP
383E00
787F00
78FF80
71EF80
71CF80
7FC7FC
FFC7FC
FFC3F0
F3C380
F1E780
71FF00
70FE00
607C00
ENDCHAR
STARTCHAR uni044F
ENCODING 1103
SWIDTH 543 0
DWIDTH 15 0
BBX 19 13 0 0
BITMAP
03FC00
07FC00
071C00
0E1C00
0E1C00
0F3C00
67F800
F3F860
E0D8E0
F1F9C0
FFBF80
7F1F00
3C1E00
ENDCHAR
STARTCHAR uni0450
ENCODING 1104
SWIDTH 393 0
DWIDTH 11 0
BBX 14 24 1 0
BITMAP
1000
3800
7800
3C00
3C00
1C00
0E00
0600
0200
0000
0000
0F00
3F80
7FC0
79C0
F1C0
E380
E780
FE0C
F83C
F078
7FF0
3FE0
1F80
ENDCHAR
STARTCHAR uni0451
ENCODING 1105
SWIDTH 393 0
DWIDTH 11 0
BBX 14 19 1 0
BITMAP
38E0
3CF0
3CF0
38E0
0000
0000
0F00
3F80
7FC0
79C0
F1C0
E380
E780
FE0C
F83C
F078
7FF0
3FE0
1F80
ENDCHAR
STARTCHAR uni0452
ENCODING 1106
SWIDTH 514 0
DWIDTH 14 0
BBX 16 36 1 -13
BITMAP
0E00
0E00
1E00
1E00
7FE0
FFE0
3FE0
3C00
3800
3800
78F0
79F0
7BF0
77F0
76F0
7EF0
7CE0
7CE3
78E7
78FF
78FC
71F8
71F0
03C0
07C0
0FC0
1DC0
3B80
7380
7380
E700
E700
EF00
FE00
FC00
7800
ENDCHAR
STARTCHAR uni0453
ENCODING 1107
SWIDTH 380 0
DWIDTH 11 0
BBX 13 24 1 0
BITMAP
0080
01C0
03C0
03C0
0380
0700
0700
0E00
0C00
0000
0000
3F00
7F80
7F80
6380
0780
0F00
3E00
7818
F038
F0F8
FFF0
7FE0
3F00
ENDCHAR
STARTCHAR uni0454
ENCODING 1108
SWIDTH 379 0
DWIDTH 11 0
BBX 13 13 1 0
BITMAP
0F80
3FC0
7FC0
79C0
F000
FE00
FF00
FE18
F038
F078
7FF0
3FE0
1F80
ENDCHAR
STARTCHAR uni0455
ENCODING 1109
SWIDTH 427 0
DWIDTH 12 0
BBX 16 14 0 -1
BITMAP
0380
0780
0700
0F00
0F00
1F80
1FC0
3BC2
71E7
E1EE
EFFE
CFFC
0FF0
0780
ENDCHAR
STARTCHAR uni0456
ENCODING 1110
SWIDTH 246 0
DWIDTH 7 0
BBX 10 19 1 0
BITMAP
1C00
3E00
3E00
3C00
0000
0000
3800
7800
7800
7800
7000
7000
F000
F0C0
F180
F380
7F00
7E00
3C00
ENDCHAR
STARTCHAR uni0457
ENCODING 1111
SWIDTH 246 0
DWIDTH 7 0
BBX 11 19 0 0
BITMAP
7180
F3C0
F3C0
E380
0000
0000
1C00
3C00
3C00
3C00
3800
3800
7800
7860
78C0
79C0
3F80
3F00
1E00
ENDCHAR
STARTCHAR uni0458
ENCODING 1112
SWIDTH 254 0
DWIDTH 7 0
BBX 16 32 -6 -13
BITMAP
0070
00F8
00F8
0070
0000
0000
0070
00F0
00F0
00F0
00E0
00E0
00E0
00E3
00E7
01FF
01FC
01F8
01E0
03C0
07C0
0FC0
1F80
3B80
7380
6780
E700
C700
CE00
FE00
FC00
7800
ENDCHAR
STARTCHAR uni0459
ENCODING 1113
SWIDTH 794 0
DWIDTH 22 0
BBX 26 13 0 0
BITMAP
00780000
00F80000
00F80000
01F9E000
01FFF000
01BFF000
73BC7840
E3B878C0
E73879C0
EF38F380
FE3FFF00
7C1FFE00
780FBC00
ENDCHAR
STARTCHAR uni045A
ENCODING 1114
SWIDTH 751 0
DWIDTH 21 0
BBX 24 13 1 0
BITMAP
387000
78F000
78E000
70E780
70FFC0
7FFFC0
FFF1C0
FFE1C3
F1E1C7
F1E3CE
70FFFC
70FFF8
603EF0
ENDCHAR
STARTCHAR uni045B
ENCODING 1115
SWIDTH 502 0
DWIDTH 14 0
BBX 17 23 1 0
BITMAP
0E0000
0E0000
1E0000
1E0000
7FE000
FFE000
7FE000
3C0000
380000
380000
78F000
79F000
7BF000
77F000
76F000
7EF000
7CE000
7CE180
78E380
78E700
78FE00
70FC00
707800
ENDCHAR
STARTCHAR uni045C
ENCODING 1116
SWIDTH 465 0
DWIDTH 13 0
BBX 16 24 1 0
BITMAP
0020
0070
0070
00F0
00E0
01C0
01C0
0380
0300
0000
0000
38F0
7BF8
7BF8
77B8
7738
7E30
FE00
FE03
FF07
FF0E
77FC
73F8
70F0
ENDCHAR
STARTCHAR uni045D
ENCODING 1117
SWIDTH 462 0
DWIDTH 13 0
BBX 16 24 1 0
BITMAP
1000
3800
3C00
1C00
1E00
0E00
0700
0300
0300
0000
0000
3860
38E0
78E0
71E0
71E0
71C0
F3C0
F3C3
F7C7
FFCE
7DFC
7DF8
38F0
ENDCHAR
STARTCHAR uni045E
ENCODING 1118
SWIDTH 479 0
DWIDTH 13 0
BBX 16 35 0 -13
BITMAP
0008
081C
1C18
1C38
1FF0
0FE0
07C0
0000
0000
1C30
1C70
3C70
38F0
38F0
38F0
79E0
79E3
7BE7
7FFF
3EFC
3EF8
1DF0
03C0
07C0
0FC0
1DC0
3B80
7380
6380
E700
E700
EF00
FE00
FC00
7800
ENDCHAR
STARTCHAR uni045F
ENCODING 1119
SWIDTH 600 0
DWIDTH 17 0
BBX 16 16 1 -3
BITMAP
3860
38E0
78E0
71E0
71E0
71C0
F3C0
F3C2
F7C7
FFCE
7DFC
7DF8
38F0
3800
3000
3000
ENDCHAR
STARTCHAR uni0462
ENCODING 1122
SWIDTH 721 0
DWIDTH 20 0
BBX 19 24 1 0
BITMAP
070000
0F0000
0F0000
7FE000
7FF000
7FE000
1E0000
1E0000
1E0000
1EFE00
1FFF80
7FFFC0
FE07E0
FC03E0
7C01E0
3C01E0
3C01E0
3C03E0
3C03C0
3C07C0
1E0F80
1FFF00
0FFE00
03F800
ENDCHAR
STARTCHAR uni0463
ENCODING 1123
SWIDTH 517 0
DWIDTH 14 0
BBX 18 18 0 0
BITMAP
0E0000
1E0000
1E0000
1E0000
7FC000
FFC000
3FC000
3C0000
39E000
3BF000
7FF800
7C7840
7878C0
7879C0
3C73C0
3FFF80
1FFF00
0FBC00
ENDCHAR
STARTCHAR uni046A
ENCODING 1130
SWIDTH 1234 0
DWIDTH 35 0
BBX 36 24 1 0
BITMAP
07FFFFFFC0
0FFFFFFFC0
07FFFFFFC0
0078003C00
0038003C00
003C007800
003C007800
001C00F000
001E01F000
001E07E000
000FFF8000
0007FE0000
001FFF0000
003EF78000
007CF3C000
00F8F3C000
00F0E1E000
01E1E1E000
01E1E0F030
E3C1E0F030
E3C1E0F8F0
FF81E07FE0
7F01E03FC0
3E01C01F00
ENDCHAR
STARTCHAR uni046B
ENCODING 1131
SWIDTH 788 0
DWIDTH 22 0
BBX 26 24 0 0
BITMAP
0001C000
0003C000
0007C000
0007C000
0006C000
000FC000
000FC000
000FC000
000DC000
001DC000
001D8000
01DD9C00
03F9FC00
03F9FC00
0079E000
0071C000
00738000
00F3C000
71F7C0C0
71F7C1C0
F3FFE380
7FBEFF00
7F3C7E00
3C383C00
ENDCHAR
STARTCHAR uni0472
ENCODING 1138
SWIDTH 816 0
DWIDTH 23 0
BBX 20 24 2 0
BITMAP
00FE00
03FF80
07FFC0
0F87E0
1E01E0
3C01F0
7C00F0
7800F0
7800F0
F800F0
FFC0F0
FFFFF0
FFFFF0
F03FF0
F000F0
F001E0
F001E0
F003E0
F803C0
7C0780
3E1F80
3FFF00
0FFC00
07F000
ENDCHAR
STARTCHAR uni0473
ENCODING 1139
SWIDTH 451 0
DWIDTH 13 0
BBX 15 13 1 0
BITMAP
0F00
3FC0
7FC0
79E0
F0EE
F8FE
FFFE
FFFC
F1E0
F1C0
7FC0
7F80
1F00
ENDCHAR
STARTCHAR uni0474
ENCODING 1140
SWIDTH 797 0
DWIDTH 22 0
BBX 25 24 3 0
BITMAP
3800FE00
7800FF80
7801FF80
7801E300
7801E000
7801E000
7801E000
7803C000
F803C000
F803C000
F0078000
F0078000
F0078000
780F0000
780F0000
781F0000
781E0000
783C0000
7C3C0000
3C780000
3FF00000
3FF00000
1FC00000
0F800000
ENDCHAR
STARTCHAR uni0475
ENCODING 1141
SWIDTH 420 0
DWIDTH 12 0
BBX 14 13 1 0
BITMAP
707C
F0FC
F0EC
F1E0
F1C0
F3C0
7380
7780
7700
7F00
7E00
7C00
3800
ENDCHAR
STARTCHAR uni048A
ENCODING 1162
SWIDTH 890 0
DWIDTH 25 0
BBX 29 38 0 -6
BITMAP
00001000
00181800
003C3800
003C7800
001FF000
001FE000
0007C000
00000000
07800E00
1FC00E00
3FE01E00
79E01E00
E1E01E00
E1E01E00
C1E01E00
01E01E00
03E03E00
03C03C00
03C03C00
03C03C00
03C07C00
07C07C00
07807C00
0780FC00
0780F800
0781B800
0783F810
07837838
078E7C70
07FE3FF0
03FC3FC0
01F01F80
00000780
00000F00
00001E00
00001C00
00003C00
00001800
ENDCHAR
STARTCHAR uni048B
ENCODING 1163
SWIDTH 462 0
DWIDTH 13 0
BBX 16 26 1 -5
BITMAP
1038
3830
3870
3FE0
1FC0
0F80
0000
0000
3860
38E0
78E0
71E0
71E0
71C0
F3C0
F3C2
F7C7
FFCE
7DFC
7DF8
38F0
00E0
01E0
01C0
0380
0380
ENDCHAR
STARTCHAR uni048C
ENCODING 1164
SWIDTH 721 0
DWIDTH 20 0
BBX 19 24 1 0
BITMAP
070000
0F0000
0F0000
7FE000
7FF000
7FE000
1E0000
1E0000
1E0000
1EFE00
1FFF80
7FFFC0
FE07E0
FC03E0
7C01E0
3C01E0
3C01E0
3C03E0
3C03C0
3C07C0
1E0F80
1FFF00
0FFE00
03F800
ENDCHAR
STARTCHAR uni048D
ENCODING 1165
SWIDTH 517 0
DWIDTH 14 0
BBX 18 18 0 0
BITMAP
0E0000
1E0000
1E0000
1E0000
7FC000
FFC000
3FC000
3C0000
39E000
3BF000
7FF800
7C7840
7878C0
7879C0
3C73C0
3FFF80
1FFF00
0FBC00
ENDCHAR
STARTCHAR uni048E
ENCODING 1166
SWIDTH 805 0
DWIDTH 23 0
BBX 24 26 1 -2
BITMAP
003F80
00FFE0
03FFF0
07C0F8
0F007C
1E007C
1C383C
3C783C
3879BC
7879FC
7078FC
70F0FF
70F1F7
F3FFE0
F7FFC0
E3FE00
E0F000
E1E000
E1E000
F1E000
71E000
71E000
7BC000
3FC000
1FC000
0F8000
ENDCHAR
STARTCHAR uni048F
ENCODING 1167
SWIDTH 481 0
DWIDTH 13 0
BBX 20 26 -3 -13
BITMAP
073C00
077E00
07FE00
07CE00
078E00
070E00
070E00
077E30
0F7C70
0F7CF0
1FFFE0
1FFFC0
37CF00
370000
770000
670000
6F0000
EF0000
CE0000
CE0000
CE0000
CE0000
DC0000
FC0000
F80000
700000
ENDCHAR
STARTCHAR uni0490
ENCODING 1168
SWIDTH 645 0
DWIDTH 18 0
BBX 24 30 1 0
BITMAP
000006
000007
000007
00000F
00000F
00000E
03FFFE
1FFFFE
3FFFFC
7CF000
F0F000
E1E000
E1E000
F1E000
F1E000
71E000
01E000
03C000
03C000
03C000
03C000
03C000
03C000
078000
078000
078000
078000
078000
078000
070000
ENDCHAR
STARTCHAR uni0491
ENCODING 1169
SWIDTH 394 0
DWIDTH 11 0
BBX 11 17 1 0
BITMAP
00E0
00E0
00E0
00E0
3FE0
7FC0
7F80
7000
7000
7000
F000
F000
F000
F000
7000
7000
6000
ENDCHAR
STARTCHAR uni0492
ENCODING 1170
SWIDTH 635 0
DWIDTH 18 0
BBX 23 24 1 0
BITMAP
03FFFE
1FFFFE
3FFFFC
7EF000
F0F000
E0F000
E1E000
E1E000
F1E000
71E000
01E000
0FFC00
1FFC00
1FFC00
03C000
03C000
03C000
03C000
078000
078000
078000
078000
078000
070000
ENDCHAR
STARTCHAR uni0493
ENCODING 1171
SWIDTH 380 0
DWIDTH 11 0
BBX 14 13 0 0
BITMAP
1F80
3FC0
3FC0
31C0
03C0
4780
FF00
3F8C
7B1C
787C
7FF8
3FF0
1F80
ENDCHAR
STARTCHAR uni0494
ENCODING 1172
SWIDTH 884 0
DWIDTH 25 0
BBX 27 37 1 -13
BITMAP
03FFFE00
1FFFFE00
3FFFFC00
7EF00000
F0F00000
F1F00000
E1E00000
E1E00000
F1E00000
F1E00000
21E00000
03E3F000
03CFF800
03DFFC00
03F87C00
03F03C00
03E03C00
07C03C60
07803DE0
07803FE0
07803FC0
07807F80
07807E00
07007C00
0001F800
0003F800
0007F000
000FF000
001EF000
001CE000
003CE000
0039E000
0079C000
007BC000
007F8000
003F0000
001E0000
ENDCHAR
STARTCHAR uni0495
ENCODING 1173
SWIDTH 441 0
DWIDTH 12 0
BBX 14 21 1 -8
BITMAP
3F00
7F80
7F80
6380
0780
0F00
3E00
7800
F00C
F09C
FFFC
FFF0
7FE0
0F80
1F80
3B80
7380
7700
7F00
7E00
3800
ENDCHAR
STARTCHAR uni0496
ENCODING 1174
SWIDTH 1234 0
DWIDTH 35 0
BBX 37 33 1 -9
BITMAP
03C03807C0
0FF03C0FE0
1FF03C1FF0
18783C3CF0
0878783860
003C787800
003C787800
003C78F000
001C79F000
001E7FE000
000FFF8000
0007FE0000
001FFF0000
003EF78000
007CF3C000
00F8F3C000
00F0E1E000
01E1E1E000
41E1E0F000
E3C1E0F818
E3C1E07F78
FF81E07FF8
7F01E03FE0
3E01C00F80
0000001F00
0000007F00
000000F700
000001E700
000003CE00
000003CE00
000003FE00
000001FC00
000000F000
ENDCHAR
STARTCHAR uni0497
ENCODING 1175
SWIDTH 803 0
DWIDTH 22 0
BBX 25 22 0 -9
BITMAP
0E38F000
1F39F800
3FBBF800
3BF7B800
11F73800
01FF3000
01FE0000
73BE0000
73FF0180
F77F0B80
7F77FF80
7E73FF00
3C31FC00
0000F800
0001F000
0003F000
00077000
000E7000
000EE000
000FE000
000FC000
00070000
ENDCHAR
STARTCHAR uni0498
ENCODING 1176
SWIDTH 725 0
DWIDTH 20 0
BBX 17 33 2 -9
BITMAP
01F800
0FFE00
1FFF00
3E0F00
3C0F00
380F00
380F00
380F00
380F00
001E00
003C00
03FC00
07FF00
07CF80
000780
400780
E00780
E00780
F00F80
F00F00
F83F00
7FFE00
3FF800
0FF800
03F800
07F000
0F7000
1E7000
1CF000
3CE000
3FE000
1FC000
0F8000
ENDCHAR
STARTCHAR uni0499
ENCODING 1177
SWIDTH 445 0
DWIDTH 12 0
BBX 14 21 1 -8
BITMAP
1F80
3FC0
7FC0
71E0
61C0
0380
0F00
0FC0
C1CC
E1FC
FFFC
FFF0
3FC0
0780
1F80
3B80
7300
7700
7F00
7E00
3C00
ENDCHAR
STARTCHAR uni049A
ENCODING 1178
SWIDTH 937 0
DWIDTH 26 0
BBX 29 33 1 -9
BITMAP
03FC01C0
0FFE03C0
3FFF03C0
3C3E0780
783C0780
703C0F00
703C0F00
703C1E00
783C3E00
30787C00
0079F000
01FFE000
01FF8000
01FFC000
007BE000
0079E000
00F1F000
C0F0F000
C0F0F800
E0F07838
F1E07F78
FFE03FF0
7FC01FC0
1F000F80
00003F00
0000FF00
0001F700
0003CE00
0003CE00
00039E00
0003FC00
0003F800
0001F000
ENDCHAR
STARTCHAR uni049B
ENCODING 1179
SWIDTH 531 0
DWIDTH 15 0
BBX 17 22 1 -9
BITMAP
38F000
7BF800
7BF800
773800
773800
7E3000
FE0000
FE0000
FF0180
FF1380
77FF00
73FE00
70FC00
01F000
03F000
076000
0E6000
0CE000
1CE000
1FC000
0F8000
0F0000
ENDCHAR
STARTCHAR uni049C
ENCODING 1180
SWIDTH 937 0
DWIDTH 26 0
BBX 29 24 1 0
BITMAP
03FC01C0
0FFE03C0
3FFF03C0
3C3E0780
783C0780
703C0780
703C0F00
703D8F00
783D9E00
783FBC00
307BF800
007BF000
01FFE000
01FF8000
01FFC000
007BE000
0073F000
00F7F000
C0F7F818
E0F77838
F1E27C78
FFE03FF0
7FC03FE0
1F000F80
ENDCHAR
STARTCHAR uni049D
ENCODING 1181
SWIDTH 485 0
DWIDTH 14 0
BBX 16 13 1 0
BITMAP
38F0
79F8
79FC
739C
7B18
7B18
FB00
FF03
FF07
FF8F
7BFE
7BFC
60F8
ENDCHAR
STARTCHAR uni049E
ENCODING 1182
SWIDTH 937 0
DWIDTH 26 0
BBX 29 24 1 0
BITMAP
03FC01C0
0FFE03C0
3FFF03C0
3C3E0780
783C0780
703C0780
71FF0F00
73FF9F00
7BFF1E00
783C3C00
30787800
0079F000
01FFE000
01FF8000
01FFC000
007BE000
0071F000
00F0F000
C0F0F818
E0F07838
F1E07C78
FFE03FF0
7FC01FE0
1F000F80
ENDCHAR
STARTCHAR uni049F
ENCODING 1183
SWIDTH 473 0
DWIDTH 13 0
BBX 16 23 1 0
BITMAP
0E00
0E00
1E00
1E00
7FE0
FFE0
7FE0
3C00
3800
3800
78F0
79F8
7BF8
77B8
7738
7F38
7F00
7F03
7F07
7F8E
7FFE
73FC
70F0
ENDCHAR
STARTCHAR uni04A0
ENCODING 1184
SWIDTH 937 0
DWIDTH 26 0
BBX 29 24 1 0
BITMAP
00000180
000E03C0
3FFE03C0
3FFE07C0
3FFC0780
003C0780
003C0F00
003C1F00
003C1E00
003C3C00
00787800
0079F000
01FFE000
01FF8000
01FFC000
007BE000
0071F000
00F0F000
C0F0F818
E0F07838
F1E07C78
FFE03FF0
7FC01FE0
1F000F80
ENDCHAR
STARTCHAR uni04A1
ENCODING 1185
SWIDTH 555 0
DWIDTH 16 0
BBX 18 14 1 0
BITMAP
400000
FE3C00
FE7E00
3EFF00
1EE700
1FC600
1DC600
1FC000
1FC0C0
1FC1C0
1FE3C0
1EFF80
1E7F00
0C3C00
ENDCHAR
STARTCHAR uni04A2
ENCODING 1186
SWIDTH 907 0
DWIDTH 25 0
BBX 29 34 0 -9
BITMAP
00000380
07800FC0
1FC00FC0
7FE01EE0
71E03CE0
E1E038E0
C1E038C0
81E078C0
01E071C0
01E07180
01E0F700
01C0FF00
03C1FC00
1FFFF000
1FFFF000
1FF0E000
03C0E000
0780F000
0780F000
0780F000
0780F818
0F00FF78
0F007FF0
0F003FE0
0E000F80
00003F00
00007F00
0001F700
0001CF00
0003CE00
0003DE00
0003FC00
0003FC00
0000F000
ENDCHAR
STARTCHAR uni04A3
ENCODING 1187
SWIDTH 515 0
DWIDTH 14 0
BBX 16 22 1 -9
BITMAP
3870
78F0
78E0
70E0
70E0
7FE0
FFE0
FFC0
F1C1
F1E7
71FF
70FE
60F8
01F0
03E0
0FE0
0EE0
1CC0
1DC0
1FC0
1F80
0E00
ENDCHAR
STARTCHAR uni04A4
ENCODING 1188
SWIDTH 873 0
DWIDTH 24 0
BBX 31 24 0 0
BITMAP
078003FC
1FC00FFE
7FE01FFE
71E01E00
E1E03C00
C1E03C00
81E07800
01E07800
01E07800
01E0F000
01C0F000
03C0F000
1FFFF000
1FFFF000
1FF0F000
03C0E000
0780E000
0780F000
0780F030
0780F070
0F00F8F0
0F007FE0
0F003FC0
0E001F00
ENDCHAR
STARTCHAR uni04A5
ENCODING 1189
SWIDTH 475 0
DWIDTH 13 0
BBX 16 14 1 0
BITMAP
000C
387C
78FC
78E0
70E0
70E0
7FE0
FFE0
FFC3
F1C7
F1CF
71FE
71FC
60F0
ENDCHAR
STARTCHAR uni04A8
ENCODING 1192
SWIDTH 997 0
DWIDTH 28 0
BBX 29 24 2 0
BITMAP
00F00000
03F00000
0FF0F800
1FC3FE00
1F07FF00
3E0F0F80
7C1E0780
783E03C0
783C03C0
F03C03C0
F03C03C0
F07803C0
F07803C0
F07803C0
F07803C0
F03C0780
F03C0780
F03C0F00
781E1E00
7C1F7E18
3E0FF878
1FFFFFF8
0FFFFFE0
03FE7F00
ENDCHAR
STARTCHAR uni04A9
ENCODING 1193
SWIDTH 574 0
DWIDTH 16 0
BBX 19 13 1 0
BITMAP
0E0000
3E3000
7EFC00
71FC00
F1CC00
F38C00
E38C00
E39C60
F3B8E0
F3FBC0
7FFF80
7FFF00
1FFC00
ENDCHAR
STARTCHAR uni04AA
ENCODING 1194
SWIDTH 781 0
DWIDTH 22 0
BBX 23 37 2 -13
BITMAP
00FC00
03FF00
07FF80
0F8780
1E03C0
3C03C0
7C03C0
780380
780380
F00100
F00000
F00000
F00000
F00000
F00000
F00000
F00000
F00000
7801C6
7C03CE
3E0FFE
3FFFF8
0FFFF0
03FBC0
000780
000F80
001F00
003F00
007700
00E700
01CE00
018E00
019E00
039C00
03FC00
01F800
00F000
ENDCHAR
STARTCHAR uni04AB
ENCODING 1195
SWIDTH 431 0
DWIDTH 12 0
BBX 14 22 1 -9
BITMAP
0F00
3F80
7F80
7980
F380
F380
E000
E000
F00C
F09C
7FFC
7FF0
1FE0
0780
1F80
3B80
7300
6700
6700
FE00
7C00
3800
ENDCHAR
STARTCHAR uni04AC
ENCODING 1196
SWIDTH 697 0
DWIDTH 20 0
BBX 24 33 1 -9
BITMAP
01FFFE
1FFFFF
3FFFFF
7C3C00
F03C00
E03C00
E03C00
F03C00
F07800
607800
007800
007800
007800
007800
00F000
00F000
00F000
00F000
00F000
00F000
00F800
01FC00
01FC00
00FC00
01FC00
03FC00
07B800
0F3800
0E3800
0E7000
0FF000
0FE000
07C000
ENDCHAR
STARTCHAR uni04AD
ENCODING 1197
SWIDTH 784 0
DWIDTH 22 0
BBX 24 22 1 -9
BITMAP
38E1C0
79F3E0
7BF7E0
77EFE0
76EDC0
7CF9C0
FCF9C0
F8F1C0
F9F3C3
F9F3E7
71E3FE
70E1FC
70E0F8
0003E0
0007E0
000EE0
001CC0
0019C0
0039C0
003F80
001F00
000E00
ENDCHAR
STARTCHAR uni04AE
ENCODING 1198
SWIDTH 677 0
DWIDTH 19 0
BBX 17 24 4 0
BITMAP
E00780
F00F80
F00F00
F81F00
781E00
7C3C00
3C7C00
3C7800
1EF000
1EF000
1FE000
0FE000
0FC000
078000
078000
078000
078000
078000
078000
070000
070000
070000
070000
070000
ENDCHAR
STARTCHAR uni04AF
ENCODING 1199
SWIDTH 472 0
DWIDTH 13 0
BBX 16 22 1 -9
BITMAP
6060
F0F0
71F0
71F0
71E1
71FF
71FF
7BFE
7B80
7F80
3F00
3E00
3C00
3800
3800
3800
3C00
3C00
3C00
3C00
3C00
3C00
ENDCHAR
STARTCHAR uni04B0
ENCODING 1200
SWIDTH 677 0
DWIDTH 19 0
BBX 17 24 4 0
BITMAP
E00780
F00F80
F00F00
781F00
781E00
7C3C00
3C7C00
3C7800
1EF000
1EF000
1FE000
0FC000
0FC000
078000
3FF000
7FF000
3FF000
078000
078000
078000
070000
070000
070000
070000
ENDCHAR
STARTCHAR uni04B1
ENCODING 1201
SWIDTH 472 0
DWIDTH 13 0
BBX 17 22 0 -9
BITMAP
303000
787800
38F800
38F800
38F080
38FF80
38FF80
3CFF00
3DC000
3FC000
3F8000
1F0000
1F0000
7FC000
FFC000
7FC000
1E0000
1E0000
1E0000
1E0000
1E0000
1E0000
ENDCHAR
STARTCHAR uni04B2
ENCODING 1202
SWIDTH 716 0
DWIDTH 20 0
BBX 24 33 0 -9
BITMAP
0F8038
3FC07C
7FE0F8
F1E1F0
E0F1E0
40F3C0
00F780
007F00
007F00
007E00
007C00
007C00
00FC00
01FC00
03FE00
07DE00
0F9E00
0F1E00
1E0F00
3E0F06
7C0FEF
F807FE
F003F8
E001F0
0007E0
001FE0
003DE0
0079C0
0071C0
0073C0
007F80
007F00
003E00
ENDCHAR
STARTCHAR uni04B3
ENCODING 1203
SWIDTH 601 0
DWIDTH 17 0
BBX 20 22 0 -9
BITMAP
0E1E00
1FBE00
3FFE00
3BEE00
19E600
01C000
01C000
73C000
73C020
F3E070
7FFFF0
7EFFC0
3C7F80
001E00
007E00
00EC00
01CC00
019C00
03BC00
03F800
01F000
01E000
ENDCHAR
STARTCHAR uni04B4
ENCODING 1204
SWIDTH 1040 0
DWIDTH 29 0
BBX 32 33 1 -9
BITMAP
01FFE1C0
1FFFF1C0
3FFFF1E0
7C1E03C0
F01E03C0
E03C03C0
E03C03C0
F03C03C0
F03C03C0
707C07C0
00780780
00780780
00780780
00780F80
00F00F80
00F01F80
00F01F80
00F03780
00F03700
00F06782
00F0E7E7
00FFC3FE
007F80FC
003E03F8
00000FE0
00001FE0
00003FE0
000079C0
000071C0
000073C0
00007F80
00007F00
00003E00
ENDCHAR
STARTCHAR uni04B5
ENCODING 1205
SWIDTH 501 0
DWIDTH 14 0
BBX 16 27 1 -9
BITMAP
0FF0
1FF0
1FF0
0000
0000
3860
38E0
78E0
71E0
71E0
71C0
F3C0
F3C0
F7C3
FFE7
7DFF
7DFC
38F8
03E0
07E0
0EE0
1CC0
19C0
39C0
3F80
1F00
0E00
ENDCHAR
STARTCHAR uni04B6
ENCODING 1206
SWIDTH 804 0
DWIDTH 23 0
BBX 23 33 3 -9
BITMAP
380180
7803C0
7803C0
7803C0
780380
780780
780780
780780
780780
F00F80
F00F80
F01F80
F03F00
F87F00
7FF700
3FE700
1F8F00
000F00
000F00
000FEE
000FFE
0007FC
0001F8
0007E0
000FC0
003FC0
007DC0
0073C0
00F380
00F780
00FF00
007F00
003C00
ENDCHAR
STARTCHAR uni04B7
ENCODING 1207
SWIDTH 631 0
DWIDTH 18 0
BBX 21 23 0 -8
BITMAP
038000
07C000
07FF00
06FF00
0E7F00
0E3C00
1C7800
1CF000
39E000
79C000
71C010
E3C178
C1FFF0
01FFC0
00FF80
001F00
007E00
00EE00
00CE00
01DC00
01FC00
01F800
00F000
ENDCHAR
STARTCHAR uni04B8
ENCODING 1208
SWIDTH 773 0
DWIDTH 22 0
BBX 18 24 3 0
BITMAP
380180
7803C0
7803C0
7803C0
780380
780780
780780
798780
798780
F18F80
F18F80
F19F80
F3BF00
FFF700
7FF700
7FEF00
1F8F00
030F00
030F00
030F00
000F00
000E00
000E00
000E00
ENDCHAR
STARTCHAR uni04B9
ENCODING 1209
SWIDTH 575 0
DWIDTH 16 0
BBX 20 16 0 0
BITMAP
001000
03B000
07B000
07F700
06FF00
0EFF00
0EDE00
1C3C00
1C7000
38F020
79E030
71E0F0
E1E1E0
C1FFC0
00FF80
007E00
ENDCHAR
STARTCHAR uni04BA
ENCODING 1210
SWIDTH 755 0
DWIDTH 21 0
BBX 23 24 2 0
BITMAP
0E0000
1E0000
1E0000
1E0000
1E0000
1E0000
1C0000
3C0000
3C0000
3C0000
3C0000
3C7E00
39FF00
7BFF80
7F8780
7E0780
7C0780
780780
780786
F8078E
F0079C
F007F8
F007F0
7003E0
ENDCHAR
STARTCHAR uni04BB
ENCODING 1211
SWIDTH 502 0
DWIDTH 14 0
BBX 17 26 1 0
BITMAP
03C000
07C000
0FE000
0EE000
1CE000
1CE000
1CE000
38C000
39C000
398000
7B8000
7B0000
770000
7EF000
7DF000
7BF000
77F000
76F000
7EF000
7CE000
7CE180
78E380
F8E700
F8FE00
70FC00
607800
ENDCHAR
STARTCHAR uni04BC
ENCODING 1212
SWIDTH 808 0
DWIDTH 23 0
BBX 24 24 2 0
BITMAP
000FC0
007FE0
00FFF0
01F0F0
03E078
07C078
078078
0F8078
0F0078
CF0078
EF0078
FFFFF0
FFFFF0
7FFFE0
1E0000
1E0000
1F0000
0F0000
0F8000
0FC003
07E01F
03FFFF
00FFFC
003FE0
ENDCHAR
STARTCHAR uni04BD
ENCODING 1213
SWIDTH 483 0
DWIDTH 14 0
BBX 17 13 0 0
BITMAP
01F000
03F800
07F800
0F3800
0E3800
4E3800
FEF000
FFE180
7F0380
0F0F80
0FFF00
07FC00
01F800
ENDCHAR
STARTCHAR uni04BE
ENCODING 1214
SWIDTH 808 0
DWIDTH 23 0
BBX 24 31 2 -7
BITMAP
000FC0
007FE0
00FFF0
01F0F0
03E078
07C078
078078
0F8078
0F0078
CF0078
EF0078
FFFFF0
FFFFF0
7FFFE0
1E0000
1E0000
1F0000
0F0000
0F8000
0FC003
07E01F
03FFFF
01FFFC
007FE0
00E000
01C000
01C000
01C000
01FC00
00FC00
007C00
ENDCHAR
STARTCHAR uni04BF
ENCODING 1215
SWIDTH 483 0
DWIDTH 14 0
BBX 17 20 0 -7
BITMAP
01F000
03F800
07F800
0F3800
0E3800
4E3800
FEF000
FFE180
7FC380
0F0780
0FFF00
07FE00
03F800
00E000
01C000
01C000
01C000
01FC00
01FC00
007800
ENDCHAR
STARTCHAR uni04C0
ENCODING 1216
SWIDTH 495 0
DWIDTH 14 0
BBX 16 24 0 0
BITMAP
1FFE
1FFF
1FFE
01E0
01E0
01E0
03C0
03C0
03C0
03C0
03C0
03C0
0380
0780
0780
0780
0780
0780
0780
0F00
0F00
FFF0
FFF0
FFF0
ENDCHAR
STARTCHAR uni04C1
ENCODING 1217
SWIDTH 1234 0
DWIDTH 35 0
BBX 36 32 1 0
BITMAP
000000C000
0000C1C000
0001E3C000
0000FF8000
0000FF0000
00007E0000
0000000000
0000000000
03C03807C0
0FF03C0FE0
1FF03C1FF0
18783C3CF0
0878783860
003C787800
003C787800
003C78F000
001C79F000
001E7FE000
000FFFC000
0007FE0000
001FFF0000
003EF78000
007CF3C000
00F8F3C000
00F0E1E000
01E1E1E000
01E1E0F030
E3C1E0F030
E3C1E0F8F0
FF81E07FE0
7F01E03FC0
3E01C01F00
ENDCHAR
STARTCHAR uni04C2
ENCODING 1218
SWIDTH 717 0
DWIDTH 20 0
BBX 24 22 0 0
BITMAP
000080
008180
01C180
01C380
01FF00
00FE00
007C00
000000
000000
0E38F0
1F39F8
3FBBF8
3BF7B8
11F738
01FF30
01FE00
73BE03
73FF07
F77F0E
7F73FC
7E73F8
3C30F0
ENDCHAR
STARTCHAR uni04C3
ENCODING 1219
SWIDTH 937 0
DWIDTH 26 0
BBX 29 33 1 -9
BITMAP
03FC01C0
0FFE03C0
3FFF03C0
3C3E0780
783C0780
703C0F00
703C0F00
703C1E00
783C3E00
30787C00
0079F000
01FFE000
01FF8000
01FFC000
007BE000
0079E000
00F1F000
C0F0F000
C0F0F800
E0F07838
F1E07F78
FFE03FF0
7FC01FC0
1F000F80
00003F00
0000FF00
0001F700
0003CE00
0003CE00
00039E00
0003FC00
0003F800
0001F000
ENDCHAR
STARTCHAR uni04C4
ENCODING 1220
SWIDTH 531 0
DWIDTH 15 0
BBX 17 22 1 -9
BITMAP
38F000
7BF800
7BF800
773800
773800
7E3000
FE0000
FE0000
FF0180
FF1380
77FF00
73FE00
70FC00
01F000
03F000
076000
0E6000
0CE000
1CE000
1FC000
0F8000
0F0000
ENDCHAR
STARTCHAR uni04C5
ENCODING 1221
SWIDTH 861 0
DWIDTH 24 0
BBX 28 30 0 -6
BITMAP
0000F000
0001F000
0001F000
0001F000
0003F000
0003F000
0003F000
0007F000
0007F000
0007F000
000FF000
000EF000
000EF000
001EF000
001CF000
003CF000
003CF000
0078F000
E078F030
F0F07870
F1E07DE0
7FE07FC0
3FC03F80
1F001F00
00000F00
00001E00
00003C00
00003C00
00007800
00003000
ENDCHAR
STARTCHAR uni04C6
ENCODING 1222
SWIDTH 549 0
DWIDTH 15 0
BBX 19 18 0 -5
BITMAP
007000
00F800
00F800
01F800
01F800
01F800
23B800
F3B860
E738E0
EF39C0
FE3F80
7C3F00
781F00
001E00
003C00
003800
007800
007000
ENDCHAR
STARTCHAR uni04C7
ENCODING 1223
SWIDTH 907 0
DWIDTH 25 0
BBX 29 34 0 -9
BITMAP
00000380
07800FC0
1FC00FC0
7FE01EE0
71E03CE0
E1E038E0
C1E038C0
81E078C0
01E071C0
01E07180
01E0F700
01C0FF00
03C1FC00
1FFFF000
1FFFF000
1FF0E000
03C0E000
0780F000
0780F000
0780F000
0780F818
0F00FF78
0F007FF0
0F003FE0
0E000F80
00003F00
00007F00
0001F700
0001CF00
0003CE00
0003DE00
0003FC00
0003FC00
0000F000
ENDCHAR
STARTCHAR uni04C8
ENCODING 1224
SWIDTH 515 0
DWIDTH 14 0
BBX 16 22 1 -9
BITMAP
3870
78F0
78E0
70E0
70E0
7FE0
FFE0
FFC0
F1C1
F1E7
71FF
70FE
60F8
01F0
03E0
0FE0
0EE0
1CC0
1DC0
1FC0
1F80
0E00
ENDCHAR
STARTCHAR uni04C9
ENCODING 1225
SWIDTH 873 0
DWIDTH 24 0
BBX 28 31 0 -6
BITMAP
00000380
07800FC0
1FC00FC0
7FE01EE0
71E03CE0
E1E038E0
C1E038C0
81E078C0
01E071C0
01E07180
01E0F700
01C0FF00
03C1FC00
1FFFF000
1FFFF000
1FF0E000
03C0E000
0780F000
0780F000
0780F030
0780F070
0F00FDF0
0F007FE0
0F003FC0
0E001F80
00000F00
00001E00
00001E00
00003C00
00003800
00003800
ENDCHAR
STARTCHAR uni04CA
ENCODING 1226
SWIDTH 475 0
DWIDTH 13 0
BBX 16 18 1 -5
BITMAP
3870
78F0
78E0
70E0
70E0
7FE0
FFE0
FFC3
F1C7
F1CF
71FE
71FC
60F8
00F0
00E0
01C0
03C0
0180
ENDCHAR
STARTCHAR uni04CB
ENCODING 1227
SWIDTH 773 0
DWIDTH 22 0
BBX 18 33 3 -9
BITMAP
380180
7803C0
7803C0
7803C0
780380
780780
780780
780780
780780
F00F80
F00F80
F01F80
F03F00
F87F00
7FF700
3FE700
1F8F00
000F00
000F00
000F00
000F00
007E00
007E00
00FE00
03F000
07F000
1E7000
1C7000
3CE000
3CE000
3FC000
1FC000
0F0000
ENDCHAR
STARTCHAR uni04CC
ENCODING 1228
SWIDTH 555 0
DWIDTH 16 0
BBX 19 18 0 -3
BITMAP
038000
07C000
07FF00
06FF00
0E7E00
0E3C00
1C7800
1CF000
39E020
79C060
71C0E0
E3C3E0
C1FFC0
01FF00
00FF00
000600
000600
000600
ENDCHAR
STARTCHAR uni04CD
ENCODING 1229
SWIDTH 1133 0
DWIDTH 32 0
BBX 35 30 0 -6
BITMAP
000780F000
000F80F000
000F81F000
000F81F000
000F83F000
001F83F000
001F87F000
001F87F000
001F87F000
001F8FF000
003F8EF000
003B8EF000
003B9CF000
003B9CF000
007B9CF000
0073B8F000
0073F8F000
00F3F8F000
60E1F0F020
E1E1F0F060
F1E1F078E0
7FC1E07FC0
7F81E03F80
1F00E01F00
0000001E00
0000001E00
0000003C00
0000007800
0000007800
0000007000
ENDCHAR
STARTCHAR uni04CE
ENCODING 1230
SWIDTH 734 0
DWIDTH 21 0
BBX 24 18 0 -5
BITMAP
00E0E0
00F1E0
01F3E0
01F7E0
01F7E0
03F6E0
63FEE0
F77CE3
E77CE3
E77CE7
FE78FE
FC38FC
783078
000070
0000E0
0001E0
0001C0
000180
ENDCHAR
STARTCHAR uni04CF
ENCODING 1231
SWIDTH 222 0
DWIDTH 6 0
BBX 7 23 1 0
BITMAP
04
1E
1E
1C
1C
3C
3C
3C
3C
38
38
78
78
78
78
70
70
F0
F0
F0
F0
F0
E0
ENDCHAR
STARTCHAR uni04D0
ENCODING 1232
SWIDTH 786 0
DWIDTH 22 0
BBX 24 32 2 0
BITMAP
000018
001838
003C78
003FF0
001FE0
000FC0
000000
000000
001FF0
00FFFC
03FFF8
07E030
0F8000
1F01C0
3E03E0
3C03C0
7803C0
7803C0
F803C0
F00780
F00780
F00780
F00780
F00F80
F00F80
F01F80
F01F83
F83F87
7C778E
7FE7FC
3FE3F8
0F81F0
ENDCHAR
STARTCHAR uni04D1
ENCODING 1233
SWIDTH 470 0
DWIDTH 13 0
BBX 16 22 1 0
BITMAP
0010
1018
3838
3C70
1FF0
1FE0
0F80
0000
0000
0700
1FE0
3FE0
3CE0
79E0
F1E0
F1C0
F1C3
F3C7
F3CE
FFFE
7EFC
3C70
ENDCHAR
STARTCHAR uni04D2
ENCODING 1234
SWIDTH 786 0
DWIDTH 22 0
BBX 24 30 2 0
BITMAP
001C70
003CF0
003CF0
001CE0
000000
000000
001FF0
00FFFC
03FFF8
07E030
0F8000
1F01C0
3E03E0
3C03C0
7803C0
7803C0
F803C0
F00780
F00780
F00780
F00780
F00F80
F00F80
F01F80
F01F83
F83F87
7C778E
7FE7FC
3FE3F8
0F81F0
ENDCHAR
STARTCHAR uni04D3
ENCODING 1235
SWIDTH 470 0
DWIDTH 13 0
BBX 16 19 1 0
BITMAP
0E30
1E78
1E78
1C70
0000
0000
0700
1FE0
3FE0
3CE0
79E0
F1E0
F1C0
F1C3
F3C7
F3CE
FFFE
7EFC
3C70
ENDCHAR
STARTCHAR uni04D4
ENCODING 1236
SWIDTH 1015 0
DWIDTH 28 0
BBX 30 24 2 0
BITMAP
003C7FF0
00FEFFF0
03FEFFF0
07F0E000
0FC1E000
1F01E000
3E01E000
3C01E000
7C03C000
7803C000
F803C000
F007FFC0
F007FFC0
F007FFC0
F0078000
F00F8000
F00F8000
F01F8000
F01F8000
F83FC00C
7C7BE07C
7FF1FFF8
3FE0FFF0
0F803F80
ENDCHAR
STARTCHAR uni04D5
ENCODING 1237
SWIDTH 653 0
DWIDTH 18 0
BBX 21 13 1 0
BITMAP
079F00
1FFF80
3FFF80
7CF380
78E380
F1E780
F1EF00
F1FE18
F1F038
F3F0F0
FFFFF0
7E7FC0
3C1F00
ENDCHAR
STARTCHAR uni04D6
ENCODING 1238
SWIDTH 686 0
DWIDTH 19 0
BBX 22 32 1 0
BITMAP
0000C0
00E0C0
00E1C0
00FF80
00FF80
003E00
000000
000000
00FE00
03FF80
07FFC0
0F83E0
1F01E0
1E01E0
1E01E0
1E01E0
1E01C0
1F0000
0FF000
07F000
1FF000
3E0000
780000
F80000
F00000
F00000
F00000
F8001C
7E01FC
7FFFF8
1FFFF0
03FF00
ENDCHAR
STARTCHAR uni04D7
ENCODING 1239
SWIDTH 393 0
DWIDTH 11 0
BBX 14 22 1 0
BITMAP
0020
2030
7070
78E0
7FE0
3FC0
1F00
0000
0000
0F00
3F80
7FC0
79C0
F1C0
E380
E780
FE0C
F83C
F078
7FF0
3FE0
1F80
ENDCHAR
STARTCHAR uni04D8
ENCODING 1240
SWIDTH 792 0
DWIDTH 22 0
BBX 20 24 2 0
BITMAP
01FC00
0FFF00
1FFF80
3E0FC0
3803C0
3003E0
2001E0
0001E0
0001F0
0001F0
0000F0
0001F0
7FFFE0
FFFFE0
FFFFE0
F001E0
F001E0
F003C0
F00780
780F80
7C1F00
3FFE00
1FFC00
07F000
ENDCHAR
STARTCHAR uni04D9
ENCODING 1241
SWIDTH 455 0
DWIDTH 13 0
BBX 15 13 1 0
BITMAP
3F00
7FC0
7FE0
01E0
00E2
7FFE
FFFE
FFFE
E0E0
E1E0
FFC0
7F80
3F00
ENDCHAR
STARTCHAR uni04DA
ENCODING 1242
SWIDTH 792 0
DWIDTH 22 0
BBX 20 30 2 0
BITMAP
01C700
03CF00
03CF00
03CE00
000000
000000
01FC00
0FFF00
1FFF80
3E0FC0
3803C0
3003E0
2001E0
0001E0
0001F0
0001F0
0000F0
0001F0
7FFFE0
FFFFE0
FFFFE0
F001E0
F001E0
F003C0
F00780
780F80
7C1F00
3FFE00
1FFC00
07F000
ENDCHAR
STARTCHAR uni04DB
ENCODING 1243
SWIDTH 455 0
DWIDTH 13 0
BBX 15 19 1 0
BITMAP
38E0
3CF0
3CF0
38E0
0000
0000
3F00
7FC0
7FE0
01E0
00E2
7FFE
FFFE
FFFE
E0E0
E1E0
FFC0
7F80
3F00
ENDCHAR
STARTCHAR uni04DC
ENCODING 1244
SWIDTH 1234 0
DWIDTH 35 0
BBX 36 30 1 0
BITMAP
0000E38000
0001F78000
0001E78000
0000E38000
0000000000
0000000000
03C03807C0
0FF03C0FE0
1FF03C1FF0
18783C3CF0
0878783860
003C787800
003C787800
003C78F000
001C79F000
001E7FE000
000FFFC000
0007FE0000
001FFF0000
003EF78000
007CF3C000
00F8F3C000
00F0E1E000
01E1E1E000
01E1E0F030
E3C1E0F030
E3C1E0F8F0
FF81E07FE0
7F01E03FC0
3E01C01F00
ENDCHAR
STARTCHAR uni04DD
ENCODING 1245
SWIDTH 717 0
DWIDTH 20 0
BBX 24 19 0 0
BITMAP
00E380
00F780
00F780
00E380
000000
000000
0E38F0
1F39F8
3FBBF8
3BF7B8
11F738
01FF30
01FE00
73BE03
73FF07
F77F0E
7F73FC
7E73F8
3C30F0
ENDCHAR
STARTCHAR uni04DE
ENCODING 1246
SWIDTH 725 0
DWIDTH 20 0
BBX 17 30 2 0
BITMAP
01CF00
03CF00
03CF00
038E00
000000
000000
01F800
0FFE00
1FFF00
3E0F00
3C0F00
380F00
380F00
380F00
380F00
001E00
003C00
03FC00
07FF00
07CF80
000780
400780
E00780
E00780
F00F80
F00F00
F83F00
7FFE00
3FF800
0FE000
ENDCHAR
STARTCHAR uni04DF
ENCODING 1247
SWIDTH 435 0
DWIDTH 12 0
BBX 16 32 -1 -13
BITMAP
0C70
1E78
1E78
1C70
0000
0000
07E0
0FF0
1FF0
1C70
0070
0070
00E0
03C1
1F87
1E0F
1E3E
1FF8
07F0
03C0
07C0
0FC0
1DC0
39C0
73C0
6380
E380
E780
EF00
FE00
FC00
7800
ENDCHAR
STARTCHAR uni04E0
ENCODING 1248
SWIDTH 744 0
DWIDTH 21 0
BBX 20 24 2 0
BITMAP
03FF00
0FFFE0
1FFFF0
3C03E0
3803C0
380780
380780
3C0F00
181F00
001E00
003C00
03FC00
07FF00
07CF80
000780
400780
E00780
E00780
F00F80
F00F00
F83F00
7FFE00
3FF800
0FE000
ENDCHAR
STARTCHAR uni04E1
ENCODING 1249
SWIDTH 435 0
DWIDTH 12 0
BBX 16 26 -1 -13
BITMAP
1FFC
3FFC
1FFC
01F8
03E0
0780
0F00
1E03
1C0F
1C1F
1F7C
0FF0
03E0
07C0
0FC0
1FC0
3DC0
39C0
73C0
E380
E380
E700
EF00
FE00
FC00
7800
ENDCHAR
STARTCHAR uni04E2
ENCODING 1250
SWIDTH 890 0
DWIDTH 25 0
BBX 29 29 0 0
BITMAP
001FE000
001FF000
001FE000
00000000
00000000
07800E00
1FC00E00
3FE01E00
79E01E00
E1E01E00
E1E01E00
C1E01E00
01E01E00
03E03E00
03C03C00
03C03C00
03C03C00
03C07C00
07C07C00
07807C00
0780FC00
0780F800
0781B800
0783F810
07837838
078E7C70
07FE3FE0
03FC3FC0
01F01F80
ENDCHAR
STARTCHAR uni04E3
ENCODING 1251
SWIDTH 462 0
DWIDTH 13 0
BBX 16 18 1 0
BITMAP
1FF0
1FF0
1FE0
0000
0000
3860
38E0
78E0
71E0
71E0
71C0
F3C0
F3C3
F7C7
FFCE
7DFC
7DF8
38F0
ENDCHAR
STARTCHAR uni04E4
ENCODING 1252
SWIDTH 890 0
DWIDTH 25 0
BBX 29 30 0 0
BITMAP
001C7000
003EF000
003CF000
001C7000
00000000
00000000
07800E00
1FC00E00
3FE01E00
79E01E00
E1E01E00
E1E01E00
C1E01E00
01E01E00
03E03E00
03C03C00
03C03C00
03C03C00
03C07C00
07C07C00
07807C00
0780FC00
0780F800
0781B800
0783F810
07837838
078E7C70
07FE3FE0
03FC3FC0
01F01F80
ENDCHAR
STARTCHAR uni04E5
ENCODING 1253
SWIDTH 462 0
DWIDTH 13 0
BBX 16 19 1 0
BITMAP
1C70
1EF8
1EF0
1C70
0000
0000
3860
38E0
78E0
71E0
71E0
71C0
F3C0
F3C3
F7C7
FFCE
7DFC
7DF8
38F0
ENDCHAR
STARTCHAR uni04E6
ENCODING 1254
SWIDTH 816 0
DWIDTH 23 0
BBX 20 30 2 0
BITMAP
00E380
01E780
01E780
01E700
000000
000000
00FE00
03FF80
07FFC0
0F87E0
1E01E0
3C01F0
7C00F0
7800F0
7800F0
F000F0
F000F0
F000F0
F000F0
F000F0
F000F0
F001E0
F001E0
F003E0
F803C0
7C0780
3E1F80
3FFF00
0FFC00
07F000
ENDCHAR
STARTCHAR uni04E7
ENCODING 1255
SWIDTH 451 0
DWIDTH 13 0
BBX 15 19 1 0
BITMAP
38E0
3CF0
3DF0
38E0
0000
0000
0F00
3FC0
7FC0
7BE0
F3E2
F3FE
E1FE
E0FC
F0E0
F1C0
7FC0
7F80
1F00
ENDCHAR
STARTCHAR uni04E8
ENCODING 1256
SWIDTH 816 0
DWIDTH 23 0
BBX 20 24 2 0
BITMAP
00FE00
03FF80
07FFC0
0F87E0
1E03E0
3C01F0
7C00F0
7800F0
7800F0
F800F0
F000F0
FFFFF0
FFFFF0
FFFFF0
F000F0
F001E0
F001E0
F001E0
F803C0
780780
3E0F80
3FFF00
0FFC00
07F000
ENDCHAR
STARTCHAR uni04E9
ENCODING 1257
SWIDTH 451 0
DWIDTH 13 0
BBX 15 13 1 0
BITMAP
0F00
3FC0
7FC0
79E0
F0E6
FFFE
FFFE
FFFC
F1E0
F1C0
7FC0
7F80
1E00
ENDCHAR
STARTCHAR uni04EA
ENCODING 1258
SWIDTH 816 0
DWIDTH 23 0
BBX 20 30 2 0
BITMAP
00E380
01E780
01E780
01E700
000000
000000
00FE00
03FF80
07FFC0
0F87E0
1E03E0
3C01F0
7C00F0
7800F0
7800F0
F800F0
F000F0
FFFFF0
FFFFF0
FFFFF0
F000F0
F001E0
F001E0
F001E0
F803C0
780780
3E0F80
3FFF00
0FFC00
07F000
ENDCHAR
STARTCHAR uni04EB
ENCODING 1259
SWIDTH 451 0
DWIDTH 13 0
BBX 15 19 1 0
BITMAP
38E0
3CF0
3DF0
38E0
0000
0000
0F00
3FC0
7FC0
79E0
F0E6
FFFE
FFFE
FFFC
F1E0
F1C0
7FC0
7F80
1E00
ENDCHAR
STARTCHAR uni04EC
ENCODING 1260
SWIDTH 755 0
DWIDTH 21 0
BBX 20 30 1 0
BITMAP
00E700
01E780
01E780
01C700
000000
000000
01FC00
07FF00
1FFF80
3E0FC0
3803C0
3003E0
2001E0
0001E0
0001F0
0001F0
0001F0
07FFF0
07FFE0
07FFE0
0001E0
0001E0
7003E0
F003C0
F007C0
F00F80
F81F00
7FFE00
3FFC00
0FE000
ENDCHAR
STARTCHAR uni04ED
ENCODING 1261
SWIDTH 466 0
DWIDTH 13 0
BBX 16 19 1 0
BITMAP
1C70
3CF0
3CF0
1CE0
0000
0000
1F80
7FC0
7FE0
01E0
00F2
0FFF
0FFF
EFFE
E0F0
E1E0
FFE0
7FC0
3F00
ENDCHAR
STARTCHAR uni04EE
ENCODING 1262
SWIDTH 824 0
DWIDTH 23 0
BBX 26 35 1 -6
BITMAP
003FC000
007FC000
007FC000
00000000
00000000
0F001C00
3F803C00
7FC03C00
E3C03C00
C3C03C00
03C07C00
03C07C00
07807800
0780F800
0780F800
0781F800
0783F800
078F7800
07FE7000
03FC7000
01F0FFC0
0000FFC0
0003FF80
000FF800
003FE000
007CE000
01F1E000
01C1E000
03C1C000
0383C000
0383C000
03C78000
03FF0000
01FE0000
00F80000
ENDCHAR
STARTCHAR uni04EF
ENCODING 1263
SWIDTH 479 0
DWIDTH 13 0
BBX 16 31 0 -13
BITMAP
0FF8
0FF8
0FF0
0000
0000
1C30
1C70
3C70
38F0
38F0
38F0
79E0
79E3
7BE7
7FFF
3EFC
3EF8
1DF0
03C0
07C0
0FC0
1DC0
3B80
7380
6380
E700
E700
EF00
FE00
FC00
7800
ENDCHAR
STARTCHAR uni04F0
ENCODING 1264
SWIDTH 824 0
DWIDTH 23 0
BBX 26 36 1 -6
BITMAP
0038E000
0079E000
0079E000
0079C000
00000000
00000000
0F001C00
3F803C00
7FC03C00
E3C03C00
C3C03C00
03C07C00
03C07C00
07807800
0780F800
0780F800
0781F800
0783F800
078F7800
07FE7000
03FC7000
01F0FFC0
0000FFC0
0003FF80
000FF800
003FE000
007CE000
01F1E000
01C1E000
03C1C000
0383C000
0383C000
03C78000
03FF0000
01FE0000
00F80000
ENDCHAR
STARTCHAR uni04F1
ENCODING 1265
SWIDTH 479 0
DWIDTH 13 0
BBX 16 32 0 -13
BITMAP
0E38
0F7C
0F78
0E38
0000
0000
1C30
1C70
3C70
38F0
38F0
38F0
79E0
79E3
7BE7
7FFF
3EFC
3EF8
1DF0
03C0
07C0
0FC0
1DC0
3B80
7380
6380
E700
E700
EF00
FE00
FC00
7800
ENDCHAR
STARTCHAR uni04F2
ENCODING 1266
SWIDTH 824 0
DWIDTH 23 0
BBX 26 39 1 -6
BITMAP
00084000
001CF000
001EF000
001CE000
003CE000
0039C000
00318000
00000000
00000000
0F001C00
3F803C00
7FC03C00
E3C03C00
C3C03C00
03C07C00
03C07C00
07807800
0780F800
0780F800
0781F800
0783F800
078F7800
07FE7000
03FC7000
01F0FFC0
0000FFC0
0003FF80
000FF800
003FE000
007CE000
01F1E000
01C1E000
03C1C000
0383C000
0383C000
03C78000
03FF0000
01FE0000
00F80000
ENDCHAR
STARTCHAR uni04F3
ENCODING 1267
SWIDTH 479 0
DWIDTH 13 0
BBX 16 37 0 -13
BITMAP
0084
01CE
03DE
03DE
039C
079C
0738
0630
0630
0000
0000
1C30
1C70
3C70
38F0
38F0
38F0
79E0
79E3
7BE7
7FFF
3EFC
3EF8
1DF0
03C0
07C0
0FC0
1DC0
3B80
7380
6380
E700
E700
EF00
FE00
FC00
7800
ENDCHAR
STARTCHAR uni04F4
ENCODING 1268
SWIDTH 773 0
DWIDTH 22 0
BBX 18 30 3 0
BITMAP
038E00
079E00
079E00
079C00
000000
000000
380180
7803C0
7803C0
7803C0
780380
780780
780780
780780
780780
F00F80
F00F80
F01F80
F03F00
F87F00
7FF700
3FE700
1F8F00
000F00
000F00
000F00
000F00
000E00
000E00
000E00
ENDCHAR
STARTCHAR uni04F5
ENCODING 1269
SWIDTH 555 0
DWIDTH 16 0
BBX 19 20 0 0
BITMAP
00E380
01F780
01E780
00E380
000000
038000
07C000
07FF00
06FF00
0E7E00
0E3C00
1C7800
1CF000
39E020
79C060
71C0E0
E3C3E0
C1FFC0
01FF00
00FC00
ENDCHAR
STARTCHAR uni04F6
ENCODING 1270
SWIDTH 600 0
DWIDTH 17 0
BBX 23 33 1 -9
BITMAP
03FFFE
1FFFFE
3FFFFC
7CF000
F0F000
E1E000
E1E000
F1E000
F1E000
61E000
01E000
03C000
03C000
03C000
03C000
03C000
03C000
078000
078000
078000
07A000
07F000
07F000
03E000
07E000
1EE000
3CE000
39E000
79C000
7BC000
7F8000
3F8000
1E0000
ENDCHAR
STARTCHAR uni04F7
ENCODING 1271
SWIDTH 441 0
DWIDTH 12 0
BBX 14 21 1 -8
BITMAP
3F00
7F80
7F80
6380
0780
0F00
3E00
7800
F00C
F09C
FFFC
FFF0
7FE0
0F80
1F80
3B80
7380
7700
7F00
7E00
3800
ENDCHAR
STARTCHAR uni04F8
ENCODING 1272
SWIDTH 1078 0
DWIDTH 30 0
BBX 28 30 1 0
BITMAP
00071C00
000F3C00
000F3C00
00071C00
00000000
00000000
07000070
0F0000F0
0F0000F0
0F0000F0
0F0000F0
0F0000F0
1E0000F0
1E0000F0
1E0001E0
1EFE01E0
1FFF81E0
7FFFC1E0
FE07E1E0
FC03E1E0
7C01E3C0
3C01E3C0
3C01E3C0
3C03E3C0
3C03C3C0
3C07C3C0
1E0F87C0
1FFF0780
0FFE0780
03F80380
ENDCHAR
STARTCHAR uni04F9
ENCODING 1273
SWIDTH 702 0
DWIDTH 20 0
BBX 22 19 1 0
BITMAP
01C600
03CF00
03CF00
038E00
000000
000000
3801C0
7803C0
780380
7BC780
77EF80
7FEF80
F8FF84
F0FF8C
F0FF9C
78F7BC
7FE7F8
3FC3F0
1F01C0
ENDCHAR
STARTCHAR uni04FA
ENCODING 1274
SWIDTH 635 0
DWIDTH 18 0
BBX 26 34 -2 -10
BITMAP
007FFFC0
03FFFFC0
07FFFF80
0FDE0000
1E1E0000
1C1E0000
1C3C0000
1C3C0000
1E3C0000
0E3C0000
003C0000
01FF8000
03FF8000
03FF8000
00780000
00780000
00780000
00780000
00F00000
00F00000
00F00000
00F00000
00F00000
00F00000
01E00000
01E00000
01E00000
01E00000
03C00000
73C00000
F7800000
FF800000
7F000000
3E000000
ENDCHAR
STARTCHAR uni04FB
ENCODING 1275
SWIDTH 441 0
DWIDTH 12 0
BBX 15 21 0 -8
BITMAP
1F80
3FC0
3FC0
31C0
03C0
4780
FF00
3F80
7B06
784E
7FFE
3FF8
1FF0
07C0
0FC0
1DC0
39C0
3B80
3F80
3F00
1C00
ENDCHAR
STARTCHAR uni04FC
ENCODING 1276
SWIDTH 716 0
DWIDTH 20 0
BBX 24 33 0 -9
BITMAP
0F8038
3FC07C
7FE0F8
F1E1F0
E0F1E0
40F3C0
00F780
007F00
007F00
007E00
007C00
007C00
00FC00
01FC00
03FE00
07DE00
0F9E00
0F1E00
1E0F00
3E0F06
7C0FEF
F807FE
F003F8
E001F0
0007E0
001FE0
003DE0
0079C0
0071C0
0073C0
007F80
007F00
003E00
ENDCHAR
STARTCHAR uni04FD
ENCODING 1277
SWIDTH 601 0
DWIDTH 17 0
BBX 20 22 0 -9
BITMAP
0E1E00
1FBE00
3FFE00
3BEE00
19E600
01C000
01C000
73C000
73C020
F3E070
7FFFF0
7EFFC0
3C7F80
001E00
007E00
00EC00
01CC00
019C00
03BC00
03F800
01F000
01E000
ENDCHAR
STARTCHAR uni04FE
ENCODING 1278
SWIDTH 712 0
DWIDTH 20 0
BBX 24 24 0 0
BITMAP
0F8038
3FC07C
7FE0F8
F1E1F0
E0F1E0
40F3C0
00F7C0
007F80
007F00
007E00
07FFC0
0FFFC0
0FFFC0
00FC00
01FC00
03DE00
079E00
0F9E00
1F1F02
3E0F07
7C0F8E
F807FC
F007F8
E001F0
ENDCHAR
STARTCHAR uni04FF
ENCODING 1279
SWIDTH 529 0
DWIDTH 15 0
BBX 18 13 0 0
BITMAP
0E1E00
1FBE00
3FFE00
3BEE00
19E600
07F000
07F800
77F040
73C0C0
F3E3C0
7FFF80
7EFF00
3C7C00
ENDCHAR
STARTCHAR uni0510
ENCODING 1296
SWIDTH 706 0
DWIDTH 20 0
BBX 18 24 1 0
BITMAP
01FC00
03FF00
07FF80
0F0780
1E03C0
1E03C0
1E03C0
1E0380
1E0300
0F0000
070000
0FF000
1FF800
3C7800
780000
780080
F803C0
F803C0
F803C0
7C07C0
7E0F80
3FFF00
1FFE00
07F800
ENDCHAR
STARTCHAR uni0511
ENCODING 1297
SWIDTH 392 0
DWIDTH 11 0
BBX 13 13 1 0
BITMAP
1F00
3F80
7F80
7180
7000
3E00
7E08
F018
E038
E0F8
FFF0
FFC0
3F00
ENDCHAR
STARTCHAR uni0512
ENCODING 1298
SWIDTH 884 0
DWIDTH 25 0
BBX 28 33 0 -9
BITMAP
0000F000
0001F000
0001F000
0001F000
0003F000
0003F000
0003F000
0007F000
0007F000
0007F000
000FF000
000EF000
000EF000
001EF000
001CF000
003CF000
003CF000
0078F000
E078F000
F0F0F810
F1E07F70
7FE07FF0
3FC03FE0
1F000F80
00003F00
0000FF00
0001EE00
0003CE00
00038E00
00039C00
0003FC00
0003F800
0001F000
ENDCHAR
STARTCHAR uni0513
ENCODING 1299
SWIDTH 631 0
DWIDTH 18 0
BBX 21 22 0 -9
BITMAP
007000
00F800
00F800
01F800
01F800
01F800
23F800
73F800
E77810
E77838
FE7FF0
7C3FE0
783FC0
001F00
003F00
007E00
00EE00
01CE00
01DC00
01FC00
01F800
00F000
ENDCHAR
STARTCHAR uni051A
ENCODING 1306
SWIDTH 816 0
DWIDTH 23 0
BBX 23 32 2 -8
BITMAP
00FE00
03FF80
07FFC0
1F87E0
1E01E0
3C01F0
7C00F0
7800F0
7800F0
F000F0
F000F0
F000F0
F000F0
F000F0
F000F0
F001E0
F001E0
F803C0
7807C0
7E0F80
3FFF00
1FFE00
07F800
00F800
007C00
007C00
003E06
003E0E
001F1C
001FFC
000FF8
0003E0
ENDCHAR
STARTCHAR uni051B
ENCODING 1307
SWIDTH 500 0
DWIDTH 14 0
BBX 17 25 1 -11
BITMAP
007000
07F000
1FF000
3FF000
3CE000
78E000
F1E000
F1E000
F1C000
E3DF80
F3DF80
FFDF00
7F9800
3B9800
039800
039800
079800
079800
079800
079800
07B800
03B000
03F000
03E000
01C000
ENDCHAR
STARTCHAR uni051C
ENCODING 1308
SWIDTH 1217 0
DWIDTH 34 0
BBX 35 24 3 0
BITMAP
3801C03C00
7803C0FE00
7803C0FF00
7803C1CF00
7803C1CF00
7803C1CF00
7807C1CF00
7807C1CF00
F007C1CE00
F007C1CE00
F00F80FE00
F00F80FE00
F00F807FE0
F01F803FE0
F01FC03FE0
703FC07800
783BC0F000
787BC0F000
7871C1E000
7CF1E3C000
3FE1FF8000
3FE0FF0000
1F80FE0000
0F007C0000
ENDCHAR
STARTCHAR uni051D
ENCODING 1309
SWIDTH 700 0
DWIDTH 20 0
BBX 22 13 1 0
BITMAP
70E1C0
F0E3C0
F1E7C0
F1E7C0
F3E7C4
F3E3FC
73E7FC
77E7F8
76EE00
7EFE00
7EFC00
7CF800
387000
ENDCHAR
STARTCHAR uni0524
ENCODING 1316
SWIDTH 892 0
DWIDTH 25 0
BBX 28 33 1 -9
BITMAP
00FFFF00
0FFFFFE0
3FFFFFF0
7EF01EE0
F0F01E00
F0F03C00
E0F03C00
F1E03C00
F1E03C00
61E03C00
01E07800
01E07800
03E07800
03C07800
03C07800
03C0F000
03C0F000
03C0F000
03C0F000
07C0FE60
0780FEF0
07807FE0
07800F80
03801F00
00007E00
0001FE00
0003FC00
00079C00
00071C00
00073C00
0007F800
0007F000
0003E000
ENDCHAR
STARTCHAR uni0525
ENCODING 1317
SWIDTH 536 0
DWIDTH 15 0
BBX 17 22 1 -9
BITMAP
38F000
79F000
7BF000
77F000
76F000
7EE000
FCE000
F8E000
F9E180
F9F380
70FF80
70FE00
707C00
01F000
03F000
077000
0E6000
0CE000
1CE000
1FC000
0F8000
070000
ENDCHAR
STARTCHAR uni0526
ENCODING 1318
SWIDTH 818 0
DWIDTH 23 0
BBX 24 33 2 -9
BITMAP
0E0000
0F0000
1F0000
1E0000
1E0000
1E0000
1E0000
3E0000
3C0000
3C0000
3C0000
3C7E00
3DFF00
7FFF80
7F8780
7E0780
7C0780
780780
780780
F807E3
F007F7
F007FF
F007FC
7000F8
0003F0
000FF0
001EE0
003CE0
0038E0
0039C0
003FC0
003F80
001F00
ENDCHAR
STARTCHAR uni0527
ENCODING 1319
SWIDTH 542 0
DWIDTH 15 0
BBX 17 35 1 -9
BITMAP
03C000
07C000
0FE000
0EE000
1CE000
1CE000
1CE000
38C000
39C000
398000
7B8000
7B0000
770000
7EF000
7DF000
7BF000
77F000
76F000
7EE000
7CE000
7CE000
78E180
F8F380
F8FF80
70FE00
607C00
00F000
03F000
077000
0E7000
0EE000
0CE000
0FC000
0F8000
070000
ENDCHAR
STARTCHAR uni0528
ENCODING 1320
SWIDTH 873 0
DWIDTH 24 0
BBX 31 34 -3 -9
BITMAP
00000070
00F001F8
03F801F8
0FFC03DC
0E3C079C
1C3C071C
183C0718
103C0F18
003C0E38
003C0E30
003C1EF0
00381FE0
00783FC0
03FFFF00
03FFFE00
03FE1E00
00781C00
00F01C00
00F01E00
00F01E06
00F01E0E
00F01F1E
01E00FFC
01E007F8
01E003E0
01E00000
03C00000
03C00000
03C00000
E3800000
E7800000
FF000000
FE000000
7C000000
ENDCHAR
STARTCHAR uni0529
ENCODING 1321
SWIDTH 475 0
DWIDTH 13 0
BBX 20 22 -3 -9
BITMAP
038700
078F00
078E00
070E00
070E00
07FE00
0FFE00
0FFC30
0F1C70
0F1CF0
0F1FE0
071FC0
070F00
070000
070000
070000
070000
E70000
EF0000
FE0000
FE0000
3C0000
ENDCHAR
STARTCHAR uni052E
ENCODING 1326
SWIDTH 884 0
DWIDTH 25 0
BBX 28 33 0 -9
BITMAP
0000F000
0001F000
0001F000
0001F000
0003F000
0003F000
0003F000
0007F000
0007F000
0007F000
000FF000
000EF000
000EF000
001EF000
001CF000
003CF000
003CF000
0078F000
E078F000
F0F0F810
F1E07F70
7FE07FF0
3FC03FE0
1F000F80
00003F00
0000FF00
0001EE00
0003CE00
00038E00
00039C00
0003FC00
0003F800
0001F000
ENDCHAR
STARTCHAR uni052F
ENCODING 1327
SWIDTH 631 0
DWIDTH 18 0
BBX 21 22 0 -9
BITMAP
007000
00F800
00F800
01F800
01F800
01F800
23F800
73F800
E77810
E77838
FE7FF0
7C3FE0
783FC0
001F00
003F00
007E00
00EE00
01CE00
01DC00
01FC00
01F800
00F000
ENDCHAR
STARTCHAR Wgrave
ENCODING 7808
SWIDTH 1217 0
DWIDTH 34 0
BBX 35 33 3 0
BITMAP
0020000000
0078000000
007C000000
003E000000
001F000000
0007800000
0001C00000
0000000000
0000000000
3801C03C00
7803C0FE00
7803C0FF00
7803C1CF00
7803C1CF00
7803C1CF00
7807C1CF00
7807C1CF00
F007C1CE00
F007C1CE00
F00F80FE00
F00F80FE00
F00F807FE0
F01F803FE0
F01FC03FE0
703FC07800
783BC0F000
787BC0F000
7871C1E000
7CF1E3C000
3FE1FF8000
3FE0FF0000
1F80FE0000
0F007C0000
ENDCHAR
STARTCHAR wgrave
ENCODING 7809
SWIDTH 700 0
DWIDTH 20 0
BBX 22 24 1 0
BITMAP
020000
070000
070000
078000
038000
03C000
01C000
00E000
004000
000000
000000
70E1C0
F0E3C0
F1E7C0
F1E7C0
F3E7C4
F3E3FC
73E7FC
77E7F8
76EE00
7EFE00
7EFC00
7CF800
387000
ENDCHAR
STARTCHAR Wacute
ENCODING 7810
SWIDTH 1217 0
DWIDTH 34 0
BBX 35 33 3 0
BITMAP
0000020000
00000F0000
00001F0000
00003F0000
00007C0000
0000F00000
0000C00000
0000000000
0000000000
3801C03C00
7803C0FE00
7803C0FF00
7803C1CF00
7803C1CF00
7803C1CF00
7807C1CF00
7807C1CF00
F007C1CE00
F007C1CE00
F00F80FE00
F00F80FE00
F00F807FE0
F01F803FE0
F01FC03FE0
703FC07800
783BC0F000
787BC0F000
7871C1E000
7CF1E3C000
3FE1FF8000
3FE0FF0000
1F80FE0000
0F007C0000
ENDCHAR
STARTCHAR wacute
ENCODING 7811
SWIDTH 700 0
DWIDTH 20 0
BBX 22 24 1 0
BITMAP
000800
001E00
001E00
001C00
003C00
003800
007000
006000
006000
000000
000000
70E1C0
F0E3C0
F1E7C0
F1E7C0
F3E7C4
F3E3FC
73E7FC
77E7F8
76EE00
7EFE00
7EFC00
7CF800
387000
ENDCHAR
STARTCHAR Wdieresis
ENCODING 7812
SWIDTH 1217 0
DWIDTH 34 0
BBX 35 30 3 0
BITMAP
00071C0000
000F3C0000
000F3C0000
0007380000
0000000000
0000000000
3801C03C00
7803C0FE00
7803C0FF00
7803C1CF00
7803C1CF00
7803C1CF00
7807C1CF00
7807C1CF00
F007C1CE00
F007C1CE00
F00F80FE00
F00F80FE00
F00F807FE0
F01F803FE0
F01FC03FE0
703FC07800
783BC0F000
787BC0F000
7871C1E000
7CF1E3C000
3FE1FF8000
3FE0FF0000
1F80FE0000
0F007C0000
ENDCHAR
STARTCHAR wdieresis
ENCODING 7813
SWIDTH 700 0
DWIDTH 20 0
BBX 22 19 1 0
BITMAP
039C00
079E00
079E00
071C00
000000
000000
70E1C0
F0E3C0
F1E7C0
F1E7C0
F3E7C4
F3E3FC
73E7FC
77E7F8
76EE00
7EFE00
7EFC00
7CF800
387000
ENDCHAR
STARTCHAR uni1E9E
ENCODING 7838
SWIDTH 843 0
DWIDTH 24 0
BBX 21 25 2 -1
BITMAP
0E0FC0
1E3FE0
1E7FF0
1EF0F8
1EE0F8
3DC0F8
3F80F0
3F00F0
3F03E0
3E0FC0
3E3F00
7E3F80
7C3FC0
7C03E0
7C01F0
7800F0
7800F0
7800F0
7800F0
7801F0
F003E0
F007C0
F07F80
70FF00
007800
ENDCHAR
STARTCHAR uni1EA0
ENCODING 7840
SWIDTH 786 0
DWIDTH 22 0
BBX 24 30 2 -6
BITMAP
001FF0
00FFFC
03FFF8
07E030
0F8000
1F01C0
3E03E0
3C03C0
7803C0
7803C0
F803C0
F00780
F00780
F00780
F00780
F00F80
F00F80
F01F80
F01F83
F83F87
7C778E
7FE7FC
3FE3F8
0F81F0
000000
000000
01C000
03E000
03E000
03C000
ENDCHAR
STARTCHAR uni1EA1
ENCODING 7841
SWIDTH 470 0
DWIDTH 13 0
BBX 16 19 1 -6
BITMAP
0700
1FE0
3FE0
3CE0
79E0
F1E0
F1C0
F1C3
F3C7
F3CE
FFFE
7EFC
3C70
0000
0000
1C00
3E00
3E00
3C00
ENDCHAR
STARTCHAR uni1EA2
ENCODING 7842
SWIDTH 786 0
DWIDTH 22 0
BBX 24 33 2 0
BITMAP
0007C0
000FE0
0000E0
0000E0
0000E0
0007C0
000780
000000
000000
001FF0
00FFFC
03FFF8
07E030
0F8000
1F01C0
3E03E0
3C03C0
7803C0
7803C0
F803C0
F00780
F00780
F00780
F00780
F00F80
F00F80
F01F80
F01F83
F83F87
7C778E
7FE7FC
3FE3F8
0F81F0
ENDCHAR
STARTCHAR uni1EA3
ENCODING 7843
SWIDTH 470 0
DWIDTH 13 0
BBX 16 23 1 0
BITMAP
03C0
07E0
0070
0070
0070
0060
03E0
03C0
0000
0000
0700
1FE0
3FE0
3CE0
79E0
F1E0
F1C0
F1C3
F3C7
F3CE
FFFE
7EFC
3C70
ENDCHAR
STARTCHAR uni1EA4
ENCODING 7844
SWIDTH 786 0
DWIDTH 22 0
BBX 24 42 2 0
BITMAP
000004
00000E
00003E
00007E
0000F8
0001E0
000180
000000
000100
0007C0
0007C0
000EE0
001EE0
001CE0
0038F0
003860
000000
000000
001FF0
00FFFC
03FFF8
07E030
0F8000
1F01C0
3E03E0
3C03C0
7803C0
7803C0
F803C0
F00780
F00780
F00780
F00780
F00F80
F00F80
F01F80
F01F83
F83F87
7C778E
7FE7FC
3FE3F8
0F81F0
ENDCHAR
STARTCHAR uni1EA5
ENCODING 7845
SWIDTH 470 0
DWIDTH 13 0
BBX 16 25 1 0
BITMAP
0002
0007
000F
001E
01C8
03E0
07E0
0E70
1E70
1C30
0000
0000
0700
1FE0
3FE0
3CE0
79E0
F1E0
F1C0
F1C3
F3C7
F3CE
FFFE
7EFC
3C70
ENDCHAR
STARTCHAR uni1EA6
ENCODING 7846
SWIDTH 786 0
DWIDTH 22 0
BBX 24 42 2 0
BITMAP
002000
00F000
00F800
007C00
003E00
000F80
000300
000000
000100
0007C0
0007C0
000EE0
001EE0
001CE0
0038F0
003860
000000
000000
001FF0
00FFFC
03FFF8
07E030
0F8000
1F01C0
3E03E0
3C03C0
7803C0
7803C0
F803C0
F00780
F00780
F00780
F00780
F00F80
F00F80
F01F80
F01F83
F83F87
7C778E
7FE7FC
3FE3F8
0F81F0
ENDCHAR
STARTCHAR uni1EA7
ENCODING 7847
SWIDTH 470 0
DWIDTH 13 0
BBX 16 25 1 0
BITMAP
4000
F000
7800
3C00
09C0
03E0
07E0
0E70
1E70
1C30
0000
0000
0700
1FE0
3FE0
3CE0
79E0
F1E0
F1C0
F1C3
F3C7
F3CE
FFFE
7EFC
3C70
ENDCHAR
STARTCHAR uni1EA8
ENCODING 7848
SWIDTH 786 0
DWIDTH 22 0
BBX 24 42 2 0
BITMAP
0003E0
0007F0
000070
000070
000070
0001E0
0003C0
000000
000100
0007C0
0007C0
000EE0
001EE0
001CE0
0038F0
003860
000000
000000
001FF0
00FFFC
03FFF8
07E030
0F8000
1F01C0
3E03E0
3C03C0
7803C0
7803C0
F803C0
F00780
F00780
F00780
F00780
F00F80
F00F80
F01F80
F01F83
F83F87
7C778E
7FE7FC
3FE3F8
0F81F0
ENDCHAR
STARTCHAR uni1EA9
ENCODING 7849
SWIDTH 470 0
DWIDTH 13 0
BBX 17 24 1 0
BITMAP
001E00
001F00
000380
000380
01CF00
07EE00
07F000
0E7000
1C7000
000000
000000
070000
1FE000
3FE000
3CE000
79E000
F1E000
F1C000
F1C300
F3C700
F3CE00
FFFE00
7EFC00
3C7000
ENDCHAR
STARTCHAR uni1EAA
ENCODING 7850
SWIDTH 786 0
DWIDTH 22 0
BBX 24 41 2 0
BITMAP
000400
000F0C
001FDE
003FFC
0038F8
001070
000000
000100
0007C0
0007C0
000EE0
001EE0
001CE0
0038F0
003860
000000
000000
001FF0
00FFFC
03FFF8
07E030
0F8000
1F01C0
3E03E0
3C03C0
7803C0
7803C0
F803C0
F00780
F00780
F00780
F00780
F00F80
F00F80
F01F80
F01F83
F83F87
7C778E
7FE7FC
3FE3F8
0F81F0
ENDCHAR
STARTCHAR uni1EAB
ENCODING 7851
SWIDTH 470 0
DWIDTH 13 0
BBX 16 25 1 0
BITMAP
070C
0FDC
0DF8
1C78
00C0
03E0
07E0
0E70
1E70
1C30
0000
0000
0700
1FE0
3FE0
3CE0
79E0
F1E0
F1C0
F1C3
F3C7
F3CE
FFFE
7EFC
3C70
ENDCHAR
STARTCHAR uni1EAC
ENCODING 7852
SWIDTH 786 0
DWIDTH 22 0
BBX 24 40 2 -6
BITMAP
000100
0007C0
0007C0
000EE0
001EE0
001CE0
0038F0
003860
000000
000000
001FF0
00FFFC
03FFF8
07E030
0F8000
1F01C0
3E03E0
3C03C0
7803C0
7803C0
F803C0
F00780
F00780
F00780
F00780
F00F80
F00F80
F01F80
F01F83
F83F87
7C778E
7FE7FC
3FE3F8
0F81F0
000000
000000
01C000
03E000
03E000
03C000
ENDCHAR
STARTCHAR uni1EAD
ENCODING 7853
SWIDTH 470 0
DWIDTH 13 0
BBX 16 30 1 -6
BITMAP
01C0
03E0
03E0
0760
0770
0E70
1E70
1C70
1830
0000
0000
0700
1FE0
3FE0
3CE0
79E0
F1E0
F1C0
F1C3
F3C7
F3CE
FFFE
7EFC
3C70
0000
0000
1C00
3E00
3E00
3C00
ENDCHAR
STARTCHAR uni1EAE
ENCODING 7854
SWIDTH 786 0
DWIDTH 22 0
BBX 24 35 2 0
BITMAP
000060
0000F0
0001E0
000380
007038
007878
003FF0
001FF0
000FC0
000000
000000
001FF0
00FFFC
03FFF8
07E030
0F8000
1F01C0
3E03E0
3C03C0
7803C0
7803C0
F803C0
F00780
F00780
F00780
F00780
F00F80
F00F80
F01F80
F01F83
F83F87
7C778E
7FE7FC
3FE3F8
0F81F0
ENDCHAR
STARTCHAR uni1EAF
ENCODING 7855
SWIDTH 470 0
DWIDTH 13 0
BBX 16 24 1 0
BITMAP
0030
0078
00F0
01C0
381C
3C3C
1FF8
1FF0
07E0
0000
0000
0700
1FE0
3FE0
3CE0
79E0
F1E0
F1C0
F1C3
F3C7
F3CE
FFFE
7EFC
3C70
ENDCHAR
STARTCHAR uni1EB0
ENCODING 7856
SWIDTH 786 0
DWIDTH 22 0
BBX 24 35 2 0
BITMAP
000C00
001E00
000F00
000780
003038
007838
003FF0
003FF0
000FC0
000000
000000
001FF0
00FFFC
03FFF8
07E030
0F8000
1F01C0
3E03E0
3C03C0
7803C0
7803C0
F803C0
F00780
F00780
F00780
F00780
F00F80
F00F80
F01F80
F01F83
F83F87
7C778E
7FE7FC
3FE3F8
0F81F0
ENDCHAR
STARTCHAR uni1EB1
ENCODING 7857
SWIDTH 470 0
DWIDTH 13 0
BBX 16 24 1 0
BITMAP
0600
0F00
0780
0380
381C
3C3C
1FF8
1FF0
07E0
0000
0000
0700
1FE0
3FE0
3CE0
79E0
F1E0
F1C0
F1C3
F3C7
F3CE
FFFE
7EFC
3C70
ENDCHAR
STARTCHAR uni1EB2
ENCODING 7858
SWIDTH 786 0
DWIDTH 22 0
BBX 24 36 2 0
BITMAP
000780
0007C0
0000C0
0003C0
001790
007838
007878
003FF0
001FE0
000FC0
000000
000000
001FF0
00FFFC
03FFF8
07E030
0F8000
1F01C0
3E03E0
3C03C0
7803C0
7803C0
F803C0
F00780
F00780
F00780
F00780
F00F80
F00F80
F01F80
F01F83
F83F87
7C778E
7FE7FC
3FE3F8
0F81F0
ENDCHAR
STARTCHAR uni1EB3
ENCODING 7859
SWIDTH 470 0
DWIDTH 13 0
BBX 16 25 1 0
BITMAP
03C0
07E0
0060
03E0
13C8
381C
3C3C
1FF8
1FF0
07E0
0000
0000
0700
1FE0
3FE0
3CE0
79E0
F1E0
F1C0
F1C3
F3C7
F3CE
FFFE
7EFC
3C70
ENDCHAR
STARTCHAR uni1EB4
ENCODING 7860
SWIDTH 786 0
DWIDTH 22 0
BBX 24 37 2 0
BITMAP
000400
000F18
001FB8
003BF8
0030F0
000040
003038
007838
003FF0
003FF0
000FC0
000000
000000
001FF0
00FFFC
03FFF8
07E030
0F8000
1F01C0
3E03E0
3C03C0
7803C0
7803C0
F803C0
F00780
F00780
F00780
F00780
F00F80
F00F80
F01F80
F01F83
F83F87
7C778E
7FE7FC
3FE3F8
0F81F0
ENDCHAR
STARTCHAR uni1EB5
ENCODING 7861
SWIDTH 470 0
DWIDTH 13 0
BBX 16 26 1 0
BITMAP
0200
0F8C
0FDC
1DFC
1878
0020
181C
3C3C
1FF8
1FF0
07E0
0000
0000
0700
1FE0
3FE0
3CE0
79E0
F1E0
F1C0
F1C3
F3C7
F3CE
FFFE
7EFC
3C70
ENDCHAR
STARTCHAR uni1EB6
ENCODING 7862
SWIDTH 786 0
DWIDTH 22 0
BBX 24 37 2 -6
BITMAP
003038
007878
003FF0
003FF0
000FC0
000000
000000
001FF0
00FFFC
03FFF8
07E030
0F8000
1F01C0
3E03E0
3C03C0
7803C0
7803C0
F803C0
F00780
F00780
F00780
F00780
F00F80
F00F80
F01F80
F01F83
F83F87
7C778E
7FE7FC
3FE3F8
0F81F0
000000
000000
01C000
03E000
03E000
03C000
ENDCHAR
STARTCHAR uni1EB7
ENCODING 7863
SWIDTH 470 0
DWIDTH 13 0
BBX 16 27 1 -6
BITMAP
181C
3C1C
3C3C
1FF8
0FF0
07E0
0000
0000
0700
1FE0
3FE0
3CE0
79E0
F1E0
F1C0
F1C3
F3C7
F3CE
FFFE
7EFC
3C70
0000
0000
1C00
3E00
3E00
3C00
ENDCHAR
STARTCHAR uni1EB8
ENCODING 7864
SWIDTH 686 0
DWIDTH 19 0
BBX 22 30 1 -6
BITMAP
00FE00
03FF80
07FFC0
0F83E0
1F01E0
1E01E0
1E01E0
1E01E0
1E01C0
1F0000
0FF000
07F000
1FF000
3E0000
780000
F80000
F00000
F00000
F00000
F8001C
7E01FC
7FFFF8
1FFFF0
03FF00
000000
000000
01E000
03E000
03E000
01E000
ENDCHAR
STARTCHAR uni1EB9
ENCODING 7865
SWIDTH 393 0
DWIDTH 11 0
BBX 14 19 1 -6
BITMAP
0F00
3F80
7FC0
79C0
F1C0
E380
E780
FE0C
F83C
F078
7FF0
3FE0
1F80
0000
0000
1E00
1F00
1E00
1E00
ENDCHAR
STARTCHAR uni1EBA
ENCODING 7866
SWIDTH 686 0
DWIDTH 19 0
BBX 22 33 1 0
BITMAP
003E00
003F00
000700
000380
000700
001F00
001E00
000000
000000
00FE00
03FF80
07FFC0
0F83E0
1F01E0
1E01E0
1E01E0
1E01E0
1E01C0
1F0000
0FF000
07F000
1FF000
3E0000
780000
F80000
F00000
F00000
F00000
F8001C
7E01FC
7FFFF8
1FFFF0
03FF00
ENDCHAR
STARTCHAR uni1EBB
ENCODING 7867
SWIDTH 393 0
DWIDTH 11 0
BBX 14 23 1 0
BITMAP
0F80
0FC0
00E0
00E0
00E0
01C0
07C0
0700
0000
0000
0F00
3F80
7FC0
79C0
F1C0
E380
E780
FE0C
F83C
F078
7FF0
3FE0
1F80
ENDCHAR
STARTCHAR uni1EBC
ENCODING 7868
SWIDTH 686 0
DWIDTH 19 0
BBX 22 32 1 0
BITMAP
002000
00F0E0
01FCE0
01DFC0
038FC0
010380
000000
000000
00FE00
03FF80
07FFC0
0F83E0
1F01E0
1E01E0
1E01E0
1E01E0
1E01C0
1F0000
0FF000
07F000
1FF000
3E0000
780000
F80000
F00000
F00000
F00000
F8001C
7E01FC
7FFFF8
1FFFF0
03FF00
ENDCHAR
STARTCHAR uni1EBD
ENCODING 7869
SWIDTH 393 0
DWIDTH 11 0
BBX 14 21 1 0
BITMAP
0800
3E18
3F38
77F0
73F0
40E0
0000
0000
0F00
3F80
7FC0
79C0
F1C0
E380
E780
FE0C
F83C
F078
7FF0
3FE0
1F80
ENDCHAR
STARTCHAR uni1EBE
ENCODING 7870
SWIDTH 686 0
DWIDTH 19 0
BBX 22 36 1 0
BITMAP
000010
000038
000078
0000F0
001E80
003F00
007F00
007780
00E380
00C380
000000
000000
00FE00
03FF80
07FFC0
0F83E0
1F01E0
1E01E0
1E01E0
1E01E0
1E01C0
1F0000
0FF000
07F000
1FF000
3E0000
780000
F80000
F00000
F00000
F00000
F8001C
7E01FC
7FFFF8
1FFFF0
03FF00
ENDCHAR
STARTCHAR uni1EBF
ENCODING 7871
SWIDTH 393 0
DWIDTH 11 0
BBX 15 25 1 0
BITMAP
0004
000E
001E
003C
03A0
0FC0
0FC0
1CE0
38E0
38E0
0000
0000
0F00
3F80
7FC0
79C0
F1C0
E380
E780
FE0C
F83C
F078
7FF0
3FE0
1F80
ENDCHAR
STARTCHAR uni1EC0
ENCODING 7872
SWIDTH 686 0
DWIDTH 19 0
BBX 22 36 1 0
BITMAP
020000
070000
078000
03C000
005E00
003F00
007F00
007780
00E380
00C380
000000
000000
00FE00
03FF80
07FFC0
0F83E0
1F01E0
1E01E0
1E01E0
1E01E0
1E01C0
1F0000
0FF000
07F000
1FF000
3E0000
780000
F80000
F00000
F00000
F00000
F8001C
7E01FC
7FFFF8
1FFFF0
03FF00
ENDCHAR
STARTCHAR uni1EC1
ENCODING 7873
SWIDTH 393 0
DWIDTH 11 0
BBX 15 25 0 0
BITMAP
4000
E000
F800
3800
09C0
07E0
07E0
0E70
1C70
1C70
0000
0000
0780
1FC0
3FE0
3CE0
78E0
71C0
73C0
7F06
7C1E
783C
3FF8
1FF0
0FC0
ENDCHAR
STARTCHAR uni1EC2
ENCODING 7874
SWIDTH 686 0
DWIDTH 19 0
BBX 22 35 1 0
BITMAP
0000F0
0000F8
000018
000018
001E78
003FF0
007F00
00F780
00E380
000000
000000
00FE00
03FF80
07FFC0
0F83E0
1F01E0
1E01E0
1E01E0
1E01E0
1E01C0
1F0000
0FF000
07F000
1FF000
3E0000
780000
F80000
F00000
F00000
F00000
F8001C
7E01FC
7FFFF8
1FFFF0
03FF00
ENDCHAR
STARTCHAR uni1EC3
ENCODING 7875
SWIDTH 393 0
DWIDTH 11 0
BBX 15 24 1 0
BITMAP
003C
003E
0006
0006
079E
0FDC
1FC0
3CE0
38E0
0000
0000
0F00
3F80
7FC0
79C0
F1C0
E380
E780
FE0C
F83C
F078
7FF0
3FE0
1F80
ENDCHAR
STARTCHAR uni1EC4
ENCODING 7876
SWIDTH 686 0
DWIDTH 19 0
BBX 22 36 1 0
BITMAP
003840
007CE0
00EFC0
00C780
000400
003E00
003F00
007700
00E380
00C380
000000
000000
00FE00
03FF80
07FFC0
0F83E0
1F01E0
1E01E0
1E01E0
1E01E0
1E01C0
1F0000
0FF000
07F000
1FF000
3E0000
780000
F80000
F00000
F00000
F00000
F8001C
7E01FC
7FFFF8
1FFFF0
03FF00
ENDCHAR
STARTCHAR uni1EC5
ENCODING 7877
SWIDTH 393 0
DWIDTH 11 0
BBX 14 25 1 0
BITMAP
0E10
1F38
3BF0
30E0
0100
07C0
0FC0
1DE0
38E0
38E0
0000
0000
0F00
3F80
7FC0
79C0
F1C0
E380
E780
FE0C
F83C
F078
7FF0
3FE0
1F80
ENDCHAR
STARTCHAR uni1EC6
ENCODING 7878
SWIDTH 686 0
DWIDTH 19 0
BBX 22 40 1 -6
BITMAP
000400
001E00
003F00
007F00
007700
00F380
01E380
00C380
000000
000000
00FE00
03FF80
07FFC0
0F83E0
1F01E0
1E01E0
1E01E0
1E01E0
1E01C0
1F0000
0FF000
07F000
1FF000
3E0000
780000
F80000
F00000
F00000
F00000
F8001C
7E01FC
7FFFF8
1FFFF0
03FF00
000000
000000
01E000
03E000
03E000
01E000
ENDCHAR
STARTCHAR uni1EC7
ENCODING 7879
SWIDTH 393 0
DWIDTH 11 0
BBX 14 30 1 -6
BITMAP
0380
07C0
07C0
0EC0
1EC0
1CE0
3CE0
38E0
30E0
0000
0000
0F00
3F80
7FC0
79C0
F1C0
E380
E780
FE0C
F83C
F078
7FF0
3FE0
1F80
0000
0000
1E00
1F00
1E00
1E00
ENDCHAR
STARTCHAR uni1EC8
ENCODING 7880
SWIDTH 495 0
DWIDTH 14 0
BBX 16 33 0 0
BITMAP
00F0
01FC
001C
001C
001C
00F8
00F0
0000
0000
1FFE
1FFF
1FFE
01E0
01E0
01E0
03C0
03C0
03C0
03C0
03C0
03C0
0380
0780
0780
0780
0780
0780
0780
0F00
0F00
FFF0
FFF0
FFF0
ENDCHAR
STARTCHAR uni1EC9
ENCODING 7881
SWIDTH 246 0
DWIDTH 7 0
BBX 10 23 1 0
BITMAP
3C00
7E00
0700
0700
0700
0600
3E00
3C00
0000
0000
3800
7800
7800
7800
7000
7000
F000
F0C0
F180
F380
7F00
7E00
3C00
ENDCHAR
STARTCHAR uni1ECA
ENCODING 7882
SWIDTH 495 0
DWIDTH 14 0
BBX 16 30 0 -6
BITMAP
1FFE
1FFF
1FFE
01E0
01E0
01E0
03C0
03C0
03C0
03C0
03C0
03C0
0380
0780
0780
0780
0780
0780
0780
0F00
0F00
FFF0
FFF0
FFF0
0000
0000
0F00
1F00
1F00
0E00
ENDCHAR
STARTCHAR uni1ECB
ENCODING 7883
SWIDTH 246 0
DWIDTH 7 0
BBX 11 25 0 -6
BITMAP
0E00
1F00
1F00
1E00
0000
0000
1C00
3C00
3C00
3C00
3800
3800
7800
7860
78C0
79C0
3F80
3F00
1E00
0000
0000
7800
F800
F800
7000
ENDCHAR
STARTCHAR uni1ECC
ENCODING 7884
SWIDTH 816 0
DWIDTH 23 0
BBX 20 30 2 -6
BITMAP
00FE00
03FF80
07FFC0
0F87E0
1E01E0
3C01F0
7C00F0
7800F0
7800F0
F000F0
F000F0
F000F0
F000F0
F000F0
F000F0
F001E0
F001E0
F003E0
F803C0
7C0780
3E1F80
3FFF00
0FFC00
07F000
000000
000000
03C000
03E000
07E000
03C000
ENDCHAR
STARTCHAR uni1ECD
ENCODING 7885
SWIDTH 451 0
DWIDTH 13 0
BBX 15 19 1 -6
BITMAP
0F00
3FC0
7FC0
7BE0
F3E2
F3FE
E1FE
E0FC
F0E0
F1C0
7FC0
7F80
1F00
0000
0000
1E00
3E00
3E00
1C00
ENDCHAR
STARTCHAR uni1ECE
ENCODING 7886
SWIDTH 816 0
DWIDTH 23 0
BBX 20 33 2 0
BITMAP
003E00
007F00
000700
000700
000700
003E00
003C00
000000
000000
00FE00
03FF80
07FFC0
0F87E0
1E01E0
3C01F0
7C00F0
7800F0
7800F0
F000F0
F000F0
F000F0
F000F0
F000F0
F000F0
F001E0
F001E0
F003E0
F803C0
7C0780
3E1F80
3FFF00
0FFC00
07F000
ENDCHAR
STARTCHAR uni1ECF
ENCODING 7887
SWIDTH 451 0
DWIDTH 13 0
BBX 15 23 1 0
BITMAP
0F80
0FC0
01C0
00E0
00C0
01C0
07C0
0700
0000
0000
0F00
3FC0
7FC0
7BE0
F3E2
F3FE
E1FE
E0FC
F0E0
F1C0
7FC0
7F80
1F00
ENDCHAR
STARTCHAR uni1ED0
ENCODING 7888
SWIDTH 816 0
DWIDTH 23 0
BBX 20 35 2 0
BITMAP
000020
000070
0000F0
0001E0
001C80
003E00
007F00
00E700
01E700
01C300
000000
00FE00
03FF80
07FFC0
0F87E0
1E01E0
3C01F0
7C00F0
7800F0
7800F0
F000F0
F000F0
F000F0
F000F0
F000F0
F000F0
F001E0
F001E0
F003E0
F803C0
7C0780
3E1F80
3FFF00
0FFC00
07F000
ENDCHAR
STARTCHAR uni1ED1
ENCODING 7889
SWIDTH 451 0
DWIDTH 13 0
BBX 15 25 1 0
BITMAP
0004
000E
001E
003C
07A0
0FC0
1FC0
1DE0
38E0
38E0
0000
0000
0F00
3FC0
7FC0
7BE0
F3E2
F3FE
E1FE
E0FC
F0E0
F1C0
7FC0
7F80
1F00
ENDCHAR
STARTCHAR uni1ED2
ENCODING 7890
SWIDTH 816 0
DWIDTH 23 0
BBX 20 35 2 0
BITMAP
020000
0F0000
078000
03C000
009C00
003E00
007F00
00E700
01E700
01C300
000000
00FE00
03FF80
07FFC0
0F87E0
1E01E0
3C01F0
7C00F0
7800F0
7800F0
F000F0
F000F0
F000F0
F000F0
F000F0
F000F0
F001E0
F001E0
F003E0
F803C0
7C0780
3E1F80
3FFF00
0FFC00
07F000
ENDCHAR
STARTCHAR uni1ED3
ENCODING 7891
SWIDTH 451 0
DWIDTH 13 0
BBX 16 25 0 0
BITMAP
4000
E000
F000
7800
0BC0
07E0
0FE0
0EF0
1C70
1C70
0000
0000
0780
1FE0
3FE0
3DF0
79F1
79FF
70FF
707E
7870
78E0
3FE0
3FC0
0F80
ENDCHAR
STARTCHAR uni1ED4
ENCODING 7892
SWIDTH 816 0
DWIDTH 23 0
BBX 21 34 2 0
BITMAP
0001F0
0001F0
000038
000038
001CF0
003EE0
007F00
00E700
01C700
000000
00FE00
03FF80
07FFC0
0F87E0
1E01E0
3C01F0
7C00F0
7800F0
7800F0
F000F0
F000F0
F000F0
F000F0
F000F0
F000F0
F001E0
F001E0
F003E0
F803C0
7C0780
3E1F80
3FFF00
0FFC00
07F000
ENDCHAR
STARTCHAR uni1ED5
ENCODING 7893
SWIDTH 451 0
DWIDTH 13 0
BBX 15 24 1 0
BITMAP
003C
003E
0006
0006
079E
0FDC
1FC0
3CE0
38E0
0000
0000
0F00
3FC0
7FC0
7BE0
F3E2
F3FE
E1FE
E0FC
F0E0
F1C0
7FC0
7F80
1F00
ENDCHAR
STARTCHAR uni1ED6
ENCODING 7894
SWIDTH 816 0
DWIDTH 23 0
BBX 20 35 2 0
BITMAP
0070C0
00FDC0
00DF80
01C780
000800
003E00
007E00
00F700
01E700
01C300
000000
00FE00
03FF80
07FFC0
0F87E0
1E01E0
3C01F0
7C00F0
7800F0
7800F0
F000F0
F000F0
F000F0
F000F0
F000F0
F000F0
F001E0
F001E0
F003E0
F803C0
7C0780
3E1F80
3FFF00
0FFC00
07F000
ENDCHAR
STARTCHAR uni1ED7
ENCODING 7895
SWIDTH 451 0
DWIDTH 13 0
BBX 15 25 1 0
BITMAP
0E10
1F38
3BF0
30E0
0300
0780
0FC0
1DE0
38E0
38E0
0000
0000
0F00
3FC0
7FC0
7BE0
F3E2
F3FE
E1FE
E0FC
F0E0
F1C0
7FC0
7F80
1F00
ENDCHAR
STARTCHAR uni1ED8
ENCODING 7896
SWIDTH 816 0
DWIDTH 23 0
BBX 20 40 2 -6
BITMAP
000800
003E00
007E00
007700
00F700
01E700
01C780
01C300
000000
000000
00FE00
03FF80
07FFC0
0F87E0
1E01E0
3C01F0
7C00F0
7800F0
7800F0
F000F0
F000F0
F000F0
F000F0
F000F0
F000F0
F001E0
F001E0
F003E0
F803C0
7C0780
3E1F80
3FFF00
0FFC00
07F000
000000
000000
03C000
03E000
07E000
03C000
ENDCHAR
STARTCHAR uni1ED9
ENCODING 7897
SWIDTH 451 0
DWIDTH 13 0
BBX 15 30 1 -6
BITMAP
0380
07C0
07C0
0FC0
1CC0
1CE0
38E0
38E0
30E0
0000
0000
0F00
3FC0
7FC0
7BE0
F3E2
F3FE
E1FE
E0FC
F0E0
F1C0
7FC0
7F80
1F00
0000
0000
1E00
3E00
3E00
1C00
ENDCHAR
STARTCHAR uni1EDA
ENCODING 7898
SWIDTH 816 0
DWIDTH 23 0
BBX 22 33 2 0
BITMAP
000040
0001E0
0003E0
0007E0
000F80
001E1C
00181C
00003C
00003C
00FFF8
03FFF8
07FFE0
0F87E0
1E01E0
3C01F0
7C00F0
7800F0
7800F0
F000F0
F000F0
F000F0
F000F0
F000F0
F000F0
F001E0
F001E0
F003E0
F803C0
7C0780
3E1F80
3FFE00
0FFC00
07F000
ENDCHAR
STARTCHAR uni1EDB
ENCODING 7899
SWIDTH 451 0
DWIDTH 13 0
BBX 15 24 1 0
BITMAP
0040
00E0
01E0
01E0
03C0
0380
0700
0710
0638
0038
0038
0FF0
3FF0
7FC0
7BE0
F3E2
F3FE
E1FE
E0FC
F0E0
F1C0
7FC0
7F80
1F00
ENDCHAR
STARTCHAR uni1EDC
ENCODING 7900
SWIDTH 816 0
DWIDTH 23 0
BBX 22 33 2 0
BITMAP
040000
0F0000
0F8000
07C000
03E000
00F01C
00301C
00003C
00003C
00FFF8
03FFF8
07FFE0
0F87E0
1E01E0
3C01F0
7C00F0
7800F0
7800F0
F000F0
F000F0
F000F0
F000F0
F000F0
F000F0
F001E0
F001E0
F003E0
F803C0
7C0780
3E1F80
3FFE00
0FFC00
07F000
ENDCHAR
STARTCHAR uni1EDD
ENCODING 7901
SWIDTH 451 0
DWIDTH 13 0
BBX 15 24 1 0
BITMAP
2000
7000
7000
7800
3800
1C00
1C00
0E10
0638
0038
0038
0FF0
3FF0
7FC0
7BE0
F3E2
F3FE
E1FE
E0FC
F0E0
F1C0
7FC0
7F80
1F00
ENDCHAR
STARTCHAR uni1EDE
ENCODING 7902
SWIDTH 816 0
DWIDTH 23 0
BBX 22 33 2 0
BITMAP
003E00
007F00
000700
000700
000700
003E1C
003C1C
00003C
00003C
00FFF8
03FFF8
07FFE0
0F87E0
1E01E0
3C01F0
7C00F0
7800F0
7800F0
F000F0
F000F0
F000F0
F000F0
F000F0
F000F0
F001E0
F001E0
F003E0
F803C0
7C0780
3E1F80
3FFE00
0FFC00
07F000
ENDCHAR
STARTCHAR uni1EDF
ENCODING 7903
SWIDTH 451 0
DWIDTH 13 0
BBX 15 23 1 0
BITMAP
0F00
1F80
01C0
01C0
01C0
01C0
0F90
0F38
0038
0038
0FF0
3FF0
7FC0
7BE0
F3E2
F3FE
E1FE
E0FC
F0E0
F1C0
7FC0
7F80
1F00
ENDCHAR
STARTCHAR uni1EE0
ENCODING 7904
SWIDTH 816 0
DWIDTH 23 0
BBX 22 32 2 0
BITMAP
004000
00F0C0
01F9C0
03FFC0
038F9C
01071C
00003C
00003C
00FFF8
03FFF8
07FFE0
0F87E0
1E01E0
3C01F0
7C00F0
7800F0
7800F0
F000F0
F000F0
F000F0
F000F0
F000F0
F000F0
F001E0
F001E0
F003E0
F803C0
7C0780
3E1F80
3FFE00
0FFC00
07F000
ENDCHAR
STARTCHAR uni1EE1
ENCODING 7905
SWIDTH 451 0
DWIDTH 13 0
BBX 15 21 1 0
BITMAP
0800
3C60
3E60
7FE0
63D0
41B8
0038
0038
0FF0
3FF0
7FC0
7BE0
F3E2
F3FE
E1FE
E0FC
F0E0
F1C0
7FC0
7F80
1E00
ENDCHAR
STARTCHAR uni1EE2
ENCODING 7906
SWIDTH 816 0
DWIDTH 23 0
BBX 22 34 2 -6
BITMAP
00001C
00001C
00003C
00003C
00FFF8
03FFF8
07FFE0
0F87E0
1E01E0
3C01F0
7C00F0
7800F0
7800F0
F000F0
F000F0
F000F0
F000F0
F000F0
F000F0
F001E0
F001E0
F003E0
F803C0
7C0780
3E1F80
3FFE00
0FFC00
07F000
000000
000000
01C000
03E000
03E000
03C000
ENDCHAR
STARTCHAR uni1EE3
ENCODING 7907
SWIDTH 451 0
DWIDTH 13 0
BBX 15 23 1 -6
BITMAP
0010
0038
0038
0038
0FF0
3FF0
7FC0
7BE0
F3E2
F3FE
E1FE
E0FC
F0E0
F1C0
7FC0
7F80
1F00
0000
0000
1E00
3E00
3E00
1C00
ENDCHAR
STARTCHAR uni1EE4
ENCODING 7908
SWIDTH 890 0
DWIDTH 25 0
BBX 29 30 0 -6
BITMAP
07800E00
1FC00E00
3FE01E00
79E01E00
E1E01E00
E1E01E00
C1E01E00
01E01E00
03E03E00
03C03C00
03C03C00
03C03C00
03C07C00
07C07C00
07807C00
0780FC00
0780F800
0781B800
0783F810
07837838
078E7C70
07FE3FE0
03FC3FC0
01F01F80
00000000
00000000
003C0000
007C0000
007C0000
00380000
ENDCHAR
STARTCHAR uni1EE5
ENCODING 7909
SWIDTH 462 0
DWIDTH 13 0
BBX 16 19 1 -6
BITMAP
3860
38E0
78E0
71E0
71E0
71C0
F3C0
F3C3
F7C7
FFCE
7DFC
7DF8
38F0
0000
0000
1E00
1E00
3E00
1E00
ENDCHAR
STARTCHAR uni1EE6
ENCODING 7910
SWIDTH 890 0
DWIDTH 25 0
BBX 29 33 0 0
BITMAP
0007C000
0007E000
0000E000
00006000
0000E000
0003E000
00038000
00000000
00000000
07800E00
1FC00E00
3FE01E00
79E01E00
E1E01E00
E1E01E00
C1E01E00
01E01E00
03E03E00
03C03C00
03C03C00
03C03C00
03C07C00
07C07C00
07807C00
0780FC00
0780F800
0781B800
0783F810
07837838
078E7C70
07FE3FE0
03FC3FC0
01F01F80
ENDCHAR
STARTCHAR uni1EE7
ENCODING 7911
SWIDTH 462 0
DWIDTH 13 0
BBX 16 23 1 0
BITMAP
07C0
07E0
00E0
0060
0060
00E0
03C0
0380
0000
0000
3860
38E0
78E0
71E0
71E0
71C0
F3C0
F3C3
F7C7
FFCE
7DFC
7DF8
38F0
ENDCHAR
STARTCHAR uni1EE8
ENCODING 7912
SWIDTH 890 0
DWIDTH 25 0
BBX 29 33 0 0
BITMAP
00000800
00001C00
00003C00
0000FC00
0001F000
0003C060
00030070
000000F0
000001F0
07800FE0
1FC00FC0
3FE01F80
79E01E00
E1E01E00
E1E01E00
C1E01E00
01E01E00
03E03E00
03C03C00
03C03C00
03C03C00
03C07C00
07C07C00
07807C00
0780FC00
0780F800
0781B800
0783F810
07837838
078E7C70
07FE3FE0
03FC3FC0
01F01F80
ENDCHAR
STARTCHAR uni1EE9
ENCODING 7913
SWIDTH 512 0
DWIDTH 14 0
BBX 17 24 1 0
BITMAP
002000
007000
007000
00F000
00E000
01E000
01C000
038400
030E00
000E00
001E00
387C00
38F800
78F000
71E000
71E000
71C000
F3C000
F3C180
F7C380
FFC780
7DFF00
7DFC00
38F800
ENDCHAR
STARTCHAR uni1EEA
ENCODING 7914
SWIDTH 890 0
DWIDTH 25 0
BBX 29 33 0 0
BITMAP
00400000
00E00000
01F00000
00FC0000
003E0000
001F0060
00070070
000000F0
000001F0
07800FE0
1FC00FC0
3FE01F80
79E01E00
E1E01E00
E1E01E00
C1E01E00
01E01E00
03E03E00
03C03C00
03C03C00
03C03C00
03C07C00
07C07C00
07807C00
0780FC00
0780F800
0781B800
0783F810
07837838
078E7C70
07FE3FE0
03FC3FC0
01F01F80
ENDCHAR
STARTCHAR uni1EEB
ENCODING 7915
SWIDTH 512 0
DWIDTH 14 0
BBX 17 24 1 0
BITMAP
100000
380000
3C0000
1C0000
1E0000
0E0000
070000
030400
030E00
000E00
001E00
387C00
38F800
78F000
71E000
71E000
71C000
F3C000
F3C180
F7C380
FFC780
7DFF00
7DFC00
38F800
ENDCHAR
STARTCHAR uni1EEC
ENCODING 7916
SWIDTH 890 0
DWIDTH 25 0
BBX 29 33 0 0
BITMAP
0007C000
0007E000
0000E000
00006000
0000E000
0003E060
00038070
000000F0
000001F0
07800FE0
1FC00FC0
3FE01F80
79E01E00
E1E01E00
E1E01E00
C1E01E00
01E01E00
03E03E00
03C03C00
03C03C00
03C03C00
03C07C00
07C07C00
07807C00
0780FC00
0780F800
0781B800
0783F810
07837838
078E7C70
07FE3FE0
03FC3FC0
01F01F80
ENDCHAR
STARTCHAR uni1EED
ENCODING 7917
SWIDTH 512 0
DWIDTH 14 0
BBX 17 23 1 0
BITMAP
07C000
07E000
00E000
006000
006000
00E000
03C400
038E00
000E00
001E00
387C00
38F800
78F000
71E000
71E000
71C000
F3C000
F3C180
F7C380
FFC780
7DFF00
7DFC00
38F800
ENDCHAR
STARTCHAR uni1EEE
ENCODING 7918
SWIDTH 890 0
DWIDTH 25 0
BBX 29 32 0 0
BITMAP
00040000
001E1C00
003FBC00
003FF800
0071F860
0020F070
000000F0
000001F0
07800FE0
1FC00FC0
3FE01F80
79E01E00
E1E01E00
E1E01E00
C1E01E00
01E01E00
03E03E00
03C03C00
03C03C00
03C03C00
03C07C00
07C07C00
07807C00
0780FC00
0780F800
0781B800
0783F810
07837838
078E7C70
07FE3FE0
03FC3FC0
01F01F80
ENDCHAR
STARTCHAR uni1EEF
ENCODING 7919
SWIDTH 512 0
DWIDTH 14 0
BBX 17 21 1 0
BITMAP
040000
0E1800
1F3800
1BF000
39F400
10EE00
000E00
001E00
387C00
38F800
78F000
71E000
71E000
71C000
F3C000
F3C180
F7C380
FFC780
7DFF00
7DFC00
38F800
ENDCHAR
STARTCHAR uni1EF0
ENCODING 7920
SWIDTH 890 0
DWIDTH 25 0
BBX 29 34 0 -6
BITMAP
00000060
00000070
000000F0
000001F0
07800FE0
1FC00FC0
3FE01F80
79E01E00
E1E01E00
E1E01E00
C1E01E00
01E01E00
03E03E00
03C03C00
03C03C00
03C03C00
03C07C00
07C07C00
07807C00
0780FC00
0780F800
0781B800
0783F810
07837838
078E7C70
07FE3FE0
03FC3FC0
01F01F80
00000000
00000000
003C0000
007C0000
007C0000
00380000
ENDCHAR
STARTCHAR uni1EF1
ENCODING 7921
SWIDTH 512 0
DWIDTH 14 0
BBX 17 23 1 -6
BITMAP
000400
000E00
000E00
001E00
387C00
38F800
78F000
71E000
71E000
71C000
F3C000
F3C180
F7C380
FFC780
7DFF00
7DFC00
38F800
000000
000000
1E0000
1E0000
3E0000
1E0000
ENDCHAR
STARTCHAR Ygrave
ENCODING 7922
SWIDTH 851 0
DWIDTH 24 0
BBX 27 41 0 -8
BITMAP
00400000
00F00000
00F80000
00FC0000
003E0000
000F0000
00030000
00000000
00000000
07800E00
1FC00E00
3FE01E00
79E01E00
E1E01E00
C1E01E00
C1E01E00
01E03E00
03E03E00
03C03C00
03C03C00
03C07C00
03C07C00
0780FC00
0781FC00
0781B800
03C7B800
03FF39E0
01FE7FE0
00F8FFC0
0003FC00
000FF800
003C7000
00787000
00E0F000
01E0F000
01C0E000
01C1E000
01E3C000
01FF8000
00FF0000
007C0000
ENDCHAR
STARTCHAR ygrave
ENCODING 7923
SWIDTH 479 0
DWIDTH 13 0
BBX 16 37 0 -13
BITMAP
0800
1C00
1E00
0E00
0F00
0700
0380
0180
0180
0000
0000
1C30
1C70
3C70
38F0
38F0
38F0
79E0
79E3
7BE7
7FFF
3EFC
3EF8
1DF0
03C0
07C0
0FC0
1DC0
3B80
7380
6380
E700
E700
EF00
FE00
FC00
7800
ENDCHAR
STARTCHAR uni1EF4
ENCODING 7924
SWIDTH 851 0
DWIDTH 24 0
BBX 27 33 0 -9
BITMAP
07800E00
1FC00E00
3FE01E00
79E01E00
E1E01E00
C1E01E00
C1E01E00
01E03E00
03E03E00
03C03C00
03C03C00
03C07C00
03C07C00
0780FC00
0781FC00
0781B800
03C7B800
03FF39E0
01FE7FE0
00F8FFC0
0003FC00
000FF800
003C7000
00787000
00E0F000
01E0F000
01C0E000
01C1E000
01E3C000
01FF8E00
00FF1F00
007C1F00
00001E00
ENDCHAR
STARTCHAR uni1EF5
ENCODING 7925
SWIDTH 479 0
DWIDTH 13 0
BBX 16 26 0 -13
BITMAP
1C30
1C70
3C70
38F0
38F0
38F0
79E0
79E3
7BE7
7FFF
3EFC
3EF8
1DF0
03C0
07C0
0FC0
1DC0
3B80
7380
6380
E700
E778
EFF8
FEF8
FC70
7800
ENDCHAR
STARTCHAR uni1EF6
ENCODING 7926
SWIDTH 851 0
DWIDTH 24 0
BBX 27 41 0 -8
BITMAP
0007C000
0007E000
00007000
00007000
0000F000
0003E000
0003C000
00000000
00000000
07800E00
1FC00E00
3FE01E00
79E01E00
E1E01E00
C1E01E00
C1E01E00
01E03E00
03E03E00
03C03C00
03C03C00
03C07C00
03C07C00
0780FC00
0781FC00
0781B800
03C7B800
03FF39E0
01FE7FE0
00F8FFC0
0003FC00
000FF800
003C7000
00787000
00E0F000
01E0F000
01C0E000
01C1E000
01E3C000
01FF8000
00FF0000
007C0000
ENDCHAR
STARTCHAR uni1EF7
ENCODING 7927
SWIDTH 479 0
DWIDTH 13 0
BBX 16 36 0 -13
BITMAP
03E0
03F0
0070
0030
0030
0070
01E0
01C0
0000
0000
1C30
1C70
3C70
38F0
38F0
38F0
79E0
79E3
7BE7
7FFF
3EFC
3EF8
1DF0
03C0
07C0
0FC0
1DC0
3B80
7380
6380
E700
E700
EF00
FE00
FC00
7800
ENDCHAR
STARTCHAR uni1EF8
ENCODING 7928
SWIDTH 851 0
DWIDTH 24 0
BBX 27 40 0 -8
BITMAP
00040000
001F0C00
001F9C00
003BFC00
0039F800
00207000
00000000
00000000
07800E00
1FC00E00
3FE01E00
79E01E00
E1E01E00
C1E01E00
C1E01E00
01E03E00
03E03E00
03C03C00
03C03C00
03C07C00
03C07C00
0780FC00
0781FC00
0781B800
03C7B800
03FF39E0
01FE7FE0
00F8FFC0
0003FC00
000FF800
003C7000
00787000
00E0F000
01E0F000
01C0E000
01C1E000
01E3C000
01FF8000
00FF0000
007C0000
ENDCHAR
STARTCHAR uni1EF9
ENCODING 7929
SWIDTH 479 0
DWIDTH 13 0
BBX 16 34 0 -13
BITMAP
0200
0F0E
1FCE
1DFC
18FC
1038
0000
0000
1C30
1C70
3C70
38F0
38F0
38F0
79E0
79E3
7BE7
7FFF
3EFC
3EF8
1DF0
03C0
07C0
0FC0
1DC0
3B80
7380
6380
E700
E700
EF00
FE00
FC00
7800
ENDCHAR
STARTCHAR endash
ENCODING 8211
SWIDTH 484 0
DWIDTH 14 0
BBX 11 3 2 7
BITMAP
FFC0
FFE0
FFC0
ENDCHAR
STARTCHAR emdash
ENCODING 8212
SWIDTH 620 0
DWIDTH 17 0
BBX 14 3 2 7
BITMAP
FFFC
FFFC
FFFC
ENDCHAR
STARTCHAR quoteleft
ENCODING 8216
SWIDTH 237 0
DWIDTH 7 0
BBX 5 9 3 17
BITMAP
18
38
78
78
70
F0
F0
F0
F0
ENDCHAR
STARTCHAR quoteright
ENCODING 8217
SWIDTH 236 0
DWIDTH 7 0
BBX 5 9 3 17
BITMAP
38
78
78
78
78
70
F0
E0
E0
ENDCHAR
STARTCHAR quotesinglbase
ENCODING 8218
SWIDTH 257 0
DWIDTH 7 0
BBX 6 10 0 -4
BITMAP
10
38
7C
78
78
78
70
70
E0
60
ENDCHAR
STARTCHAR quotedblleft
ENCODING 8220
SWIDTH 457 0
DWIDTH 13 0
BBX 11 9 3 17
BITMAP
1860
38E0
78E0
79E0
71E0
F3C0
F3C0
F3C0
F3C0
ENDCHAR
STARTCHAR quotedblright
ENCODING 8221
SWIDTH 456 0
DWIDTH 13 0
BBX 11 9 3 17
BITMAP
38E0
79E0
79E0
79E0
79E0
71E0
F1C0
E3C0
E380
ENDCHAR
STARTCHAR quotedblbase
ENCODING 8222
SWIDTH 477 0
DWIDTH 13 0
BBX 12 10 0 -4
BITMAP
1040
38E0
7DF0
79F0
79E0
79E0
71E0
71C0
E1C0
6180
ENDCHAR
STARTCHAR dagger
ENCODING 8224
SWIDTH 588 0
DWIDTH 16 0
BBX 12 19 4 7
BITMAP
0700
0700
0700
0700
FFF0
FFF0
FFF0
0E00
0E00
0E00
0E00
0E00
1E00
1C00
1C00
1C00
1C00
1C00
1800
ENDCHAR
STARTCHAR daggerdbl
ENCODING 8225
SWIDTH 588 0
DWIDTH 16 0
BBX 13 19 3 7
BITMAP
0380
0380
0380
0380
7FF8
7FF8
7FF8
0700
0700
0700
0700
0700
FFF0
FFF0
FFF0
0E00
0E00
0E00
0C00
ENDCHAR
STARTCHAR bullet
ENCODING 8226
SWIDTH 512 0
DWIDTH 14 0
BBX 9 9 3 2
BITMAP
3E00
7F00
FF00
FF80
FF80
FF00
FF00
7F00
3C00
ENDCHAR
STARTCHAR ellipsis
ENCODING 8230
SWIDTH 777 0
DWIDTH 22 0
BBX 20 5 1 0
BITMAP
70F1E0
F9F1E0
F9F3F0
F9F3E0
70E1E0
ENDCHAR
STARTCHAR perthousand
ENCODING 8240
SWIDTH 1277 0
DWIDTH 36 0
BBX 34 21 1 0
BITMAP
1F00C00000
3F81E00000
7F83C00000
73CFC00000
73FF800000
E3FF800000
E1FF000000
738F000000
7F9E000000
7F1C000000
1E3C780F00
0078FE3F80
0079FE3FC0
00F3CF71C0
00E38771C0
01E38771C0
03C38F71C0
03C38E71C0
0781FE7F80
0701FC3F80
0300F81E00
ENDCHAR
STARTCHAR guilsinglleft
ENCODING 8249
SWIDTH 350 0
DWIDTH 10 0
BBX 8 11 1 1
BITMAP
06
1F
3E
FC
F0
F0
F8
7C
3E
1E
0E
ENDCHAR
STARTCHAR guilsinglright
ENCODING 8250
SWIDTH 350 0
DWIDTH 10 0
BBX 8 11 1 1
BITMAP
60
F8
7C
3E
1F
0F
1F
3E
7C
F8
60
ENDCHAR
STARTCHAR fraction
ENCODING 8260
SWIDTH 200 0
DWIDTH 6 0
BBX 11 18 -2 3
BITMAP
0040
00E0
00E0
01E0
03C0
03C0
0780
0700
0F00
1E00
1C00
3C00
3800
7800
F000
E000
E000
C000
ENDCHAR
STARTCHAR uni2074
ENCODING 8308
SWIDTH 450 0
DWIDTH 13 0
BBX 11 14 2 10
BITMAP
0E00
0E00
1C00
1DC0
39C0
39C0
7380
7380
FFE0
FFE0
7FE0
0380
0380
0300
ENDCHAR
STARTCHAR colonmonetary
ENCODING 8353
SWIDTH 517 0
DWIDTH 14 0
BBX 16 22 0 -3
BITMAP
0011
001B
0076
03FE
0FFC
1FDC
1EDC
3D9C
39BC
3B30
7B60
7E60
7EC0
3CC0
3D8C
3D9C
1FF8
3FF0
37E0
6600
6C00
CC00
ENDCHAR
STARTCHAR franc
ENCODING 8355
SWIDTH 750 0
DWIDTH 21 0
BBX 20 17 1 0
BITMAP
7FFF00
7FFF00
3FFF00
380000
3801C0
3803C0
7FE7C0
7FE7C0
7FEFE0
70FDF0
70F9F0
70F9E0
70F0C0
F0F000
F0F000
F0E000
60E000
ENDCHAR
STARTCHAR lira
ENCODING 8356
SWIDTH 525 0
DWIDTH 15 0
BBX 14 17 1 0
BITMAP
03E0
0FF8
0FF8
1E3C
3C3C
3C18
3800
FFC0
FF80
3800
FF80
FF80
7800
7800
FFF8
FFF8
FFF8
ENDCHAR
STARTCHAR uni20A6
ENCODING 8358
SWIDTH 672 0
DWIDTH 19 0
BBX 17 17 1 0
BITMAP
080200
1C0700
1E0700
1E0700
1F0700
3F0700
3F8F00
3FCF00
FFFF80
FFFF80
38EE00
FFFF80
FFFF80
783E00
783E00
701C00
700C00
ENDCHAR
STARTCHAR peseta
ENCODING 8359
SWIDTH 1085 0
DWIDTH 30 0
BBX 29 16 1 0
BITMAP
3F81C000
FFE1C000
79E3C000
38FFF800
38FFFCE0
78FFF9E0
78F381C0
70E781C0
71E783E0
7FC703F0
7F0706F0
F8070E78
F0079C38
F007FDF8
F003FBF0
E001E1E0
ENDCHAR
STARTCHAR uni20A9
ENCODING 8361
SWIDTH 775 0
DWIDTH 22 0
BBX 21 16 1 0
BITMAP
383070
387070
FFFFF8
FFFFF8
38F0E0
FFFFF8
FFFFF8
39F1C0
39F380
3DB380
1FBB80
1FBF00
1F3F00
1F3E00
1E3E00
0E1C00
ENDCHAR
STARTCHAR dong
ENCODING 8363
SWIDTH 463 0
DWIDTH 13 0
BBX 15 25 0 -4
BITMAP
001C
003C
003C
0038
1FFE
3FFE
0078
0078
03F0
0FF0
1FF0
3EF0
3CF0
78F0
78E0
70E0
71E0
79E0
7FE0
3FE0
1CE0
0000
0000
FFF0
FFF0
ENDCHAR
STARTCHAR Euro
ENCODING 8364
SWIDTH 552 0
DWIDTH 15 0
BBX 15 17 0 0
BITMAP
00F8
03FC
07FE
0F0E
0E0E
1E0E
1C0E
7FCC
7FC0
3C00
7FC0
FFC0
1C06
1E0E
0FFC
0FF8
03F0
ENDCHAR
STARTCHAR uni20AD
ENCODING 8365
SWIDTH 590 0
DWIDTH 17 0
BBX 16 17 1 0
BITMAP
0804
1C0E
1C1E
1C1C
3C3C
3C78
38F0
3BE0
FFFE
FFFE
7BC0
79E0
71E0
70F0
70FF
707F
703E
ENDCHAR
STARTCHAR uni20AE
ENCODING 8366
SWIDTH 513 0
DWIDTH 14 0
BBX 13 16 2 0
BITMAP
7FF0
FFF8
FFF8
0700
0E00
0F80
0F80
7E00
EFC0
0FC0
7E00
7C00
1C00
1C00
1C00
1800
ENDCHAR
STARTCHAR uni20B1
ENCODING 8369
SWIDTH 557 0
DWIDTH 16 0
BBX 16 17 0 0
BITMAP
0100
1FF0
3FF8
1E38
7FFF
7FFF
1E3C
7FFF
FFFE
1C78
1FF0
3FC0
3E00
3C00
3C00
3800
3800
ENDCHAR
STARTCHAR uni20B2
ENCODING 8370
SWIDTH 599 0
DWIDTH 17 0
BBX 15 23 1 -3
BITMAP
00C0
00C0
01C0
0180
07F0
0FF8
1FFC
3D9C
799C
7198
7300
F300
F33E
F37E
733E
731E
7B3E
3FFE
1FFC
0FCC
061C
061C
0600
ENDCHAR
STARTCHAR uni20B4
ENCODING 8372
SWIDTH 570 0
DWIDTH 16 0
BBX 14 17 1 0
BITMAP
0FC0
1FF0
3FF0
3878
3038
0078
7FFC
7FFC
0000
FFFC
FFFC
3C00
7838
7878
3FF8
3FF0
0FC0
ENDCHAR
STARTCHAR uni20B5
ENCODING 8373
SWIDTH 517 0
DWIDTH 14 0
BBX 13 23 1 -3
BITMAP
00C0
00C0
01C0
0180
07F0
1FF8
1FF8
3DB8
79B8
71B8
7310
F300
F300
F300
7300
7318
7B38
3FF0
1FE0
0FC0
0600
0600
0600
ENDCHAR
STARTCHAR uni20B8
ENCODING 8376
SWIDTH 522 0
DWIDTH 15 0
BBX 14 16 1 0
BITMAP
7FF8
7FFC
7FFC
0000
7FF8
FFF8
FFF8
0700
0700
0700
0E00
0E00
0E00
0E00
0E00
0E00
ENDCHAR
STARTCHAR uni20B9
ENCODING 8377
SWIDTH 511 0
DWIDTH 14 0
BBX 14 16 1 0
BITMAP
7FFC
7FFC
0380
FFFC
FFF8
0380
0780
FF00
F800
FE00
1F00
0F00
0780
07F8
03F8
01F0
ENDCHAR
STARTCHAR uni20BA
ENCODING 8378
SWIDTH 452 0
DWIDTH 13 0
BBX 13 17 0 0
BITMAP
0400
0E00
1E40
1EC0
1FC0
1F00
1CC0
7FC0
7F80
1E00
7C00
FC10
7C38
3CF0
3FE0
3FC0
1F00
ENDCHAR
STARTCHAR uni20BC
ENCODING 8380
SWIDTH 673 0
DWIDTH 19 0
BBX 17 20 0 0
BITMAP
003000
003000
003000
003000
00FC00
03FE00
07FF00
0FFF00
0F6780
1E6780
1E6380
3C6380
3C6380
386380
78E380
78E380
78C380
70C380
F0C380
70C380
ENDCHAR
STARTCHAR uni20BD
ENCODING 8381
SWIDTH 505 0
DWIDTH 14 0
BBX 14 16 0 0
BITMAP
0FE0
3FF0
3E78
0E3C
0E3C
1E3C
1E3C
1C78
1CF0
7FE0
7F80
3C00
7FC0
FFC0
3800
3800
ENDCHAR
STARTCHAR uni2116
ENCODING 8470
SWIDTH 1198 0
DWIDTH 34 0
BBX 31 24 2 0
BITMAP
0E0F8078
1E3FC1FC
1E7FE1FE
1CFFE39E
1DE1E38E
3DC1E38E
3F81E38E
3F01E38E
3F01E39E
3E01E3FC
3E03C1F8
7E03C0F0
7C03C000
7C03CFFC
7C03CFFC
78038FF8
78078000
78078000
78078000
F0078000
F0078000
F0078000
F0078000
60070000
ENDCHAR
STARTCHAR trademark
ENCODING 8482
SWIDTH 1150 0
DWIDTH 32 0
BBX 28 11 3 13
BITMAP
FFCCF1E0
FFDDFBF0
1C1F3E70
1C1E3C70
1C1C3870
1C1C3860
181C38E0
381830E0
383870E0
383870E0
383870E0
ENDCHAR
STARTCHAR partialdiff
ENCODING 8706
SWIDTH 451 0
DWIDTH 13 0
BBX 12 23 1 0
BITMAP
2000
7C00
3E00
0F00
0780
03C0
01C0
01E0
00E0
00E0
0FF0
3FF0
7FF0
78F0
F0F0
F0E0
E0E0
E0E0
F1E0
F1C0
7FC0
7F80
1E00
ENDCHAR
STARTCHAR product
ENCODING 8719
SWIDTH 700 0
DWIDTH 20 0
BBX 17 23 2 0
BITMAP
1FFF80
1FFF80
3FFF80
3C0780
3C0780
3C0780
380700
380700
380700
780F00
780F00
780F00
780F00
700E00
700E00
700E00
701E00
F01E00
F01E00
F01E00
E01C00
E01C00
E01C00
ENDCHAR
STARTCHAR summation
ENCODING 8721
SWIDTH 700 0
DWIDTH 20 0
BBX 17 23 2 0
BITMAP
3FFF80
3FFF80
3FFF80
1E0000
0F0000
078000
03C000
01E000
01F000
00F800
007C00
003C00
007800
00F000
03E000
07C000
0F8000
1F0000
3C0000
780000
FFFE00
FFFE00
FFFC00
ENDCHAR
STARTCHAR minus
ENCODING 8722
SWIDTH 700 0
DWIDTH 20 0
BBX 16 3 2 6
BITMAP
7FFE
FFFF
7FFE
ENDCHAR
STARTCHAR uni2215
ENCODING 8725
SWIDTH 700 0
DWIDTH 20 0
BBX 15 27 3 0
BITMAP
0004
000E
000E
001E
001C
003C
0038
0078
00F0
00F0
01E0
01E0
03C0
03C0
0780
0780
0F00
0F00
1E00
1C00
3C00
3800
7800
7000
F000
E000
E000
ENDCHAR
STARTCHAR uni2219
ENCODING 8729
SWIDTH 700 0
DWIDTH 20 0
BBX 5 5 7 4
BITMAP
78
F8
F8
F8
70
ENDCHAR
STARTCHAR radical
ENCODING 8730
SWIDTH 700 0
DWIDTH 20 0
BBX 20 24 1 0
BITMAP
000020
000070
0000F0
0000E0
0001E0
0001C0
0001C0
000380
000380
000700
000700
780E00
FC0E00
7E1E00
0E1C00
0E1C00
073800
073800
077000
037000
03E000
03E000
01C000
01C000
ENDCHAR
STARTCHAR infinity
ENCODING 8734
SWIDTH 700 0
DWIDTH 20 0
BBX 18 11 1 3
BITMAP
1E1F00
7FBF80
7FFFC0
F3F3C0
E1E1C0
E1E1C0
E1E1C0
F3F3C0
FFFF80
7F7F80
1E1E00
ENDCHAR
STARTCHAR integral
ENCODING 8747
SWIDTH 700 0
DWIDTH 20 0
BBX 18 35 1 -8
BITMAP
000F80
001FC0
003F80
007C00
007800
007000
007000
00F000
00F000
00F000
00F000
00F000
00F000
00E000
00E000
01E000
01E000
01E000
01E000
01E000
01E000
01C000
01C000
03C000
03C000
03C000
03C000
03C000
03C000
038000
038000
078000
7F0000
FF0000
7C0000
ENDCHAR
STARTCHAR approxequal
ENCODING 8776
SWIDTH 700 0
DWIDTH 20 0
BBX 16 14 2 1
BITMAP
1E03
3F87
3FCF
7BFF
70FE
607C
0010
0800
3E06
7F0E
FFDE
E3FC
E0FC
8078
ENDCHAR
STARTCHAR notequal
ENCODING 8800
SWIDTH 700 0
DWIDTH 20 0
BBX 16 16 2 0
BITMAP
0030
0078
0070
7FFF
7FFF
7FFF
01C0
03C0
0380
0380
FFFE
FFFE
FFFE
0E00
1C00
1C00
ENDCHAR
STARTCHAR lessequal
ENCODING 8804
SWIDTH 700 0
DWIDTH 20 0
BBX 16 16 2 0
BITMAP
0007
003F
01FF
1FF8
7FC0
7C00
7F00
7FE0
0FFC
01FE
003E
0004
0000
FFFE
FFFE
FFFE
ENDCHAR
STARTCHAR greaterequal
ENCODING 8805
SWIDTH 700 0
DWIDTH 20 0
BBX 16 16 2 0
BITMAP
3800
7F00
3FE0
0FFC
01FF
003F
007F
07FE
7FF0
FF00
F800
4000
0000
FFFE
FFFE
FFFE
ENDCHAR
STARTCHAR lozenge
ENCODING 9674
SWIDTH 700 0
DWIDTH 20 0
BBX 13 27 4 0
BITMAP
0080
01C0
03C0
07C0
07E0
0FE0
0EE0
1C70
1C70
3870
7838
7038
F038
E038
E038
E078
6070
70F0
70E0
71C0
39C0
3B80
3F80
1F00
1F00
1E00
0C00
ENDCHAR
STARTCHAR fi
ENCODING 64257
SWIDTH 633 0
DWIDTH 18 0
BBX 20 34 1 -8
BITMAP
00F000
01F000
03F800
07B800
073800
0F3800
0E3000
0E3780
1E77C0
1E6780
1CC780
3DC000
3F8000
FFFE00
FFFE00
FFFE00
380E00
789E00
799E00
799E00
799C30
799C70
799EF0
799FE0
798FC0
798700
798000
798000
798000
398000
3B0000
3F0000
1F0000
1E0000
ENDCHAR
STARTCHAR fl
ENCODING 64258
SWIDTH 688 0
DWIDTH 19 0
BBX 22 35 1 -9
BITMAP
00E0F0
03F1F8
07F3F8
0773B8
0F77B8
0E7738
1E7738
1C7E38
1C6E38
3CEE30
3CDE70
39DE70
3B9C60
7B9CE0
7F1DC0
7E1FC0
7C1F80
781F00
77FE00
77FC04
7FFC0C
F61E1C
F61E38
F60FF0
F60FE0
F703C0
F70000
730000
730000
730000
730000
760000
7E0000
3E0000
1C0000
ENDCHAR
STARTCHAR .notdef
ENCODING -1
SWIDTH 265 0
DWIDTH 7 0
BBX 1 1 0 0
BITMAP
00
ENDCHAR
STARTCHAR Iacute_J.loclNLD
ENCODING -1
SWIDTH 776 0
DWIDTH 22 0
BBX 24 33 3 0
BITMAP
004004
00E00F
01F01F
03E03E
0FC0FC
1F01F0
1C01C0
000000
000000
380180
7803C0
7803C0
7803C0
7803C0
780780
780780
780780
F80780
F00F80
F00F80
F01F80
F03F80
F87F80
7FF700
3FE700
1F8F00
000F00
000E00
C01E00
F07C00
FFF800
FFF000
1FC000
ENDCHAR
STARTCHAR A.ss01
ENCODING -1
SWIDTH 780 0
DWIDTH 22 0
BBX 21 24 2 0
BITMAP
001FF0
00FFF8
03FFF8
07F000
0F8000
1F01E0
3E01E0
3C03C0
7803C0
7803C0
F803C0
F00780
F00780
F00780
F00780
F00F80
F00F80
F01F80
F01F00
F83F00
787F00
7FFF00
3FEF00
0F8F00
ENDCHAR
STARTCHAR Aacute.ss01
ENCODING -1
SWIDTH 780 0
DWIDTH 22 0
BBX 22 33 2 0
BITMAP
000008
00003C
00007C
0000FC
0001F0
0003C0
000300
000000
000000
001FF0
00FFF8
03FFF8
07F000
0F8000
1F01E0
3E01E0
3C03C0
7803C0
7803C0
F803C0
F00780
F00780
F00780
F00780
F00F80
F00F80
F01F80
F01F00
F83F00
787F00
7FFF00
3FEF00
0F8F00
ENDCHAR
STARTCHAR Abreve.ss01
ENCODING -1
SWIDTH 780 0
DWIDTH 22 0
BBX 21 31 2 0
BITMAP
003038
007878
003FF0
003FF0
000FC0
000000
000000
001FF0
00FFF8
03FFF8
07F000
0F8000
1F01E0
3E01E0
3C03C0
7803C0
7803C0
F803C0
F00780
F00780
F00780
F00780
F00F80
F00F80
F01F80
F01F00
F83F00
787F00
7FFF00
3FEF00
0F8F00
ENDCHAR
STARTCHAR uni1EAE.ss01
ENCODING -1
SWIDTH 780 0
DWIDTH 22 0
BBX 21 35 2 0
BITMAP
000060
0000F0
0001E0
000380
007038
007878
003FF0
001FF0
000FC0
000000
000000
001FF0
00FFF8
03FFF8
07F000
0F8000
1F01E0
3E01E0
3C03C0
7803C0
7803C0
F803C0
F00780
F00780
F00780
F00780
F00F80
F00F80
F01F80
F01F00
F83F00
787F00
7FFF00
3FEF00
0F8F00
ENDCHAR
ENDFONT
